<COLLADA xmlns="http://www.collada.org/2005/11/COLLADASchema" version="1.4.1">
  <asset>
    <created>2026-08-07T10:28:00.096899</created>
    <modified>2026-08-07T10:28:00.096902</modified>
    <up_axis>Y_UP</up_axis>
  </asset>
  <library_effects>
    <effect id="c6b8ad80e0c64433aad8940ac30b80bd" name="c6b8ad80e0c64433aad8940ac30b80bd">
      <profile_COMMON>
        <technique sid="common">
          <phong>
            <ambient>
              <color>0.0 0.0 0.0 1.0</color>
            </ambient>
            <diffuse>
              <color>0.0784313725490196 0.0784313725490196 0.09019607843137255 1.0</color>
            </diffuse>
            <specular>
              <color>1.0 1.0 1.0 1.0</color>
            </specular>
            <shininess>
              <float>0.06598803534436781</float>
            </shininess>
            <reflective>
              <color>0.0 0.0 0.0 1.0</color>
            </reflective>
            <reflectivity>
              <float>0.0</float>
            </reflectivity>
            <transparent>
              <color>0.0 0.0 0.0 1.0</color>
            </transparent>
            <transparency>
              <float>1.0</float>
            </transparency>
          </phong>
        </technique>
        <extra>
          <technique profile="GOOGLEEARTH">
            <double_sided>0</double_sided>
          </technique>
        </extra>
      </profile_COMMON>
    </effect>
    <effect id="292708c881df4d1aa04cc9d8e8545e54" name="292708c881df4d1aa04cc9d8e8545e54">
      <profile_COMMON>
        <technique sid="common">
          <phong>
            <ambient>
              <color>0.0 0.0 0.0 1.0</color>
            </ambient>
            <diffuse>
              <color>0.2196078431372549 0.2196078431372549 0.23921568627450981 1.0</color>
            </diffuse>
            <specular>
              <color>1.0 1.0 1.0 1.0</color>
            </specular>
            <shininess>
              <float>0.06598803534436781</float>
            </shininess>
            <reflective>
              <color>0.0 0.0 0.0 1.0</color>
            </reflective>
            <reflectivity>
              <float>0.0</float>
            </reflectivity>
            <transparent>
              <color>0.0 0.0 0.0 1.0</color>
            </transparent>
            <transparency>
              <float>1.0</float>
            </transparency>
          </phong>
        </technique>
        <extra>
          <technique profile="GOOGLEEARTH">
            <double_sided>0</double_sided>
          </technique>
        </extra>
      </profile_COMMON>
    </effect>
  </library_effects>
  <library_geometries>
    <geometry id="a200bdb37a7b48a4ac5ea0fcb6513868" name="b7f1c4e1ea2c47338239b373bed70444">
      <mesh>
        <source id="verts-array">
          <float_array count="1248" id="verts-array-array">-0.0278 0.018 0.0188 -0.0278 0.0231 0.0188 -0.0278 0.018 -0.0188 -0.0278 0.0231 -0.0188 -0.02158115 0.0231 0.02735951 -0.02608115 0.0231 0.02409007 -0.02409007 0.0231 0.02608115 -0.0188 0.0231 0.0278 -0.0278 0.0231 0.0188 -0.02735951 0.0231 0.02158115 -0.0278 0.0231 -0.0188 -0.02608115 0.0231 -0.02409007 -0.02735951 0.0231 -0.02158115 0.02409007 0.0231 0.02608115 0.0188 0.0231 0.0278 0.02158115 0.0231 0.02735951 0.02608115 0.0231 0.02409007 -0.02158115 0.0231 -0.02735951 -0.02409007 0.0231 -0.02608115 0.0278 0.0231 0.0188 0.02735951 0.0231 0.02158115 -0.0188 0.0231 -0.0278 0.0188 0.0231 -0.0278 0.0278 0.0231 -0.0188 0.02409007 0.0231 -0.02608115 0.02735951 0.0231 -0.02158115 0.02608115 0.0231 -0.02409007 0.02158115 0.0231 -0.02735951 -0.02735951 0.0231 0.02158115 -0.0278 0.018 0.0188 -0.02735951 0.018 0.02158115 -0.0278 0.0231 0.0188 -0.02608115 0.0231 0.02409007 -0.02735951 0.018 0.02158115 -0.02608115 0.018 0.02409007 -0.02735951 0.0231 0.02158115 -0.02409007 0.0231 0.02608115 -0.02608115 0.018 0.02409007 -0.02409007 0.018 0.02608115 -0.02608115 0.0231 0.02409007 -0.02158115 0.0231 0.02735951 -0.02409007 0.018 0.02608115 -0.02158115 0.018 0.02735951 -0.02409007 0.0231 0.02608115 -0.0188 0.0231 0.0278 -0.02158115 0.018 0.02735951 -0.0188 0.018 0.0278 -0.02158115 0.0231 0.02735951 -0.0278 0.018 -0.0188 -0.02735951 0.0231 -0.02158115 -0.02735951 0.018 -0.02158115 -0.0278 0.0231 -0.0188 -0.02735951 0.018 -0.02158115 -0.02608115 0.0231 -0.02409007 -0.02608115 0.018 -0.02409007 -0.02735951 0.0231 -0.02158115 -0.02608115 0.018 -0.02409007 -0.02409007 0.0231 -0.02608115 -0.02409007 0.018 -0.02608115 -0.02608115 0.0231 -0.02409007 -0.02409007 0.018 -0.02608115 -0.02158115 0.0231 -0.02735951 -0.02158115 0.018 -0.02735951 -0.02409007 0.0231 -0.02608115 -0.02158115 0.018 -0.02735951 -0.0188 0.0231 -0.0278 -0.0188 0.018 -0.0278 -0.02158115 0.0231 -0.02735951 -0.02608115 0.018 0.02409007 -0.02158115 0.018 0.02735951 -0.02409007 0.018 0.02608115 -0.0278 0.018 0.0188 -0.0188 0.018 0.0278 -0.02735951 0.018 0.02158115 -0.0278 0.018 -0.0188 -0.02735951 0.018 -0.02158115 -0.02608115 0.018 -0.02409007 0.0188 0.018 0.0278 0.02409007 0.018 0.02608115 0.02158115 0.018 0.02735951 0.02608115 0.018 0.02409007 -0.02409007 0.018 -0.02608115 -0.02158115 0.018 -0.02735951 0.0278 0.018 0.0188 0.02735951 0.018 0.02158115 -0.0188 0.018 -0.0278 0.0188 0.018 -0.0278 0.0278 0.018 -0.0188 0.02409007 0.018 -0.02608115 0.02735951 0.018 -0.02158115 0.02608115 0.018 -0.02409007 0.02158115 0.018 -0.02735951 0.0188 0.018 0.0278 0.0188 0.0231 0.0278 -0.0188 0.018 0.0278 -0.0188 0.0231 0.0278 0.0188 0.0231 -0.0278 0.0188 0.018 -0.0278 -0.0188 0.018 -0.0278 -0.0188 0.0231 -0.0278 0.0278 0.018 0.0188 0.02735951 0.0231 0.02158115 0.02735951 0.018 0.02158115 0.0278 0.0231 0.0188 0.02735951 0.018 0.02158115 0.02608115 0.0231 0.02409007 0.02608115 0.018 0.02409007 0.02735951 0.0231 0.02158115 0.02608115 0.018 0.02409007 0.02409007 0.0231 0.02608115 0.02409007 0.018 0.02608115 0.02608115 0.0231 0.02409007 0.02409007 0.018 0.02608115 0.02158115 0.0231 0.02735951 0.02158115 0.018 0.02735951 0.02409007 0.0231 0.02608115 0.02158115 0.018 0.02735951 0.0188 0.0231 0.0278 0.0188 0.018 0.0278 0.02158115 0.0231 0.02735951 0.02735951 0.0231 -0.02158115 0.0278 0.018 -0.0188 0.02735951 0.018 -0.02158115 0.0278 0.0231 -0.0188 0.02608115 0.0231 -0.02409007 0.02735951 0.018 -0.02158115 0.02608115 0.018 -0.02409007 0.02735951 0.0231 -0.02158115 0.02409007 0.0231 -0.02608115 0.02608115 0.018 -0.02409007 0.02409007 0.018 -0.02608115 0.02608115 0.0231 -0.02409007 0.02158115 0.0231 -0.02735951 0.02409007 0.018 -0.02608115 0.02158115 0.018 -0.02735951 0.02409007 0.0231 -0.02608115 0.0188 0.0231 -0.0278 0.02158115 0.018 -0.02735951 0.0188 0.018 -0.0278 0.02158115 0.0231 -0.02735951 0.0278 0.0231 0.0188 0.0278 0.018 0.0188 0.0278 0.018 -0.0188 0.0278 0.0231 -0.0188 0.02407293 0.0398 -0.006744919 0.025 0.0398 0 0.025 0.0231 6.123234e-18 0.02407293 0.0231 -0.006744919 0.02136048 0.0398 -0.0129896 0.02407293 0.0231 -0.006744919 0.02136048 0.0231 -0.0129896 0.02407293 0.0398 -0.006744919 0.01706383 0.0398 -0.0182709 0.02136048 0.0231 -0.0129896 0.01706383 0.0231 -0.0182709 0.01706383 0.0398 -0.0182709 0.01706383 0.0231 -0.0182709 0.01150163 0.0231 -0.02219713 0.02136048 0.0398 -0.0129896 0.01150163 0.0398 -0.02219713 0.005086401 0.0398 -0.0244771 0.01150163 0.0231 -0.02219713 0.005086401 0.0231 -0.0244771 0.01150163 0.0398 -0.02219713 -0.00170606 0.0398 -0.02494172 0.005086401 0.0231 -0.0244771 -0.00170606 0.0231 -0.02494172 0.005086401 0.0398 -0.0244771 -0.00837199 0.0398 -0.02355652 -0.00170606 0.0231 -0.02494172 -0.00837199 0.0231 -0.02355652 -0.00837199 0.0398 -0.02355652 -0.00837199 0.0231 -0.02355652 -0.01441701 0.0231 -0.02042425 -0.00170606 0.0398 -0.02494172 -0.01441701 0.0398 -0.02042425 -0.01939278 0.0398 -0.0157772 -0.01441701 0.0231 -0.02042425 -0.01939278 0.0231 -0.0157772 -0.01441701 0.0398 -0.02042425 -0.02293028 0.0398 -0.009960027 -0.01939278 0.0231 -0.0157772 -0.02293028 0.0231 -0.009960027 -0.01939278 0.0398 -0.0157772 -0.02476715 0.0398 -0.003404166 -0.02293028 0.0231 -0.009960027 -0.02476715 0.0231 -0.003404166 -0.02293028 0.0398 -0.009960027 -0.02476715 0.0398 0.003404166 -0.02476715 0.0231 -0.003404166 -0.02476715 0.0231 0.003404166 -0.02476715 0.0398 -0.003404166 -0.02293028 0.0398 0.009960027 -0.02476715 0.0398 0.003404166 -0.02476715 0.0231 0.003404166 -0.02293028 0.0231 0.009960027 -0.01939278 0.0398 0.0157772 -0.02293028 0.0398 0.009960027 -0.02293028 0.0231 0.009960027 -0.01939278 0.0231 0.0157772 -0.01939278 0.0398 0.0157772 -0.01939278 0.0231 0.0157772 -0.01441701 0.0231 0.02042425 -0.01441701 0.0398 0.02042425 -0.01441701 0.0231 0.02042425 -0.00837199 0.0231 0.02355652 -0.01441701 0.0398 0.02042425 -0.00837199 0.0398 0.02355652 -0.00170606 0.0398 0.02494172 -0.00837199 0.0398 0.02355652 -0.00837199 0.0231 0.02355652 -0.00170606 0.0231 0.02494172 0.005086401 0.0398 0.0244771 -0.00170606 0.0398 0.02494172 -0.00170606 0.0231 0.02494172 0.005086401 0.0231 0.0244771 0.01150163 0.0398 0.02219713 0.005086401 0.0398 0.0244771 0.005086401 0.0231 0.0244771 0.01150163 0.0231 0.02219713 0.01706383 0.0398 0.0182709 0.01150163 0.0398 0.02219713 0.01150163 0.0231 0.02219713 0.01706383 0.0231 0.0182709 0.02136048 0.0398 0.0129896 0.01706383 0.0398 0.0182709 0.01706383 0.0231 0.0182709 0.02136048 0.0231 0.0129896 0.02407293 0.0398 0.006744919 0.02136048 0.0398 0.0129896 0.02136048 0.0231 0.0129896 0.02407293 0.0231 0.006744919 0.025 0.0398 0 0.02407293 0.0398 0.006744919 0.02407293 0.0231 0.006744919 0.025 0.0231 6.123234e-18 0.02407293 0.0398 -0.006744919 0.0235 0.0413 0 0.025 0.0398 0 0.02254809 0.0413 -0.006620715 0.0235 0.0413 0 0.02407293 0.0398 -0.006744919 0.02136048 0.0398 -0.0129896 0.02254809 0.0413 -0.006620715 0.02407293 0.0398 -0.006744919 0.01976946 0.0413 -0.01270506 0.02254809 0.0413 -0.006620715 0.02136048 0.0398 -0.0129896 0.01706383 0.0398 -0.0182709 0.01976946 0.0413 -0.01270506 0.02136048 0.0398 -0.0129896 0.01538923 0.0413 -0.01776011 0.01976946 0.0413 -0.01270506 0.01706383 0.0398 -0.0182709 0.01150163 0.0398 -0.02219713 0.01538923 0.0413 -0.01776011 0.01706383 0.0398 -0.0182709 0.009762253 0.0413 -0.02137635 0.01538923 0.0413 -0.01776011 0.01150163 0.0398 -0.02219713 0.005086401 0.0398 -0.0244771 0.009762253 0.0413 -0.02137635 0.01150163 0.0398 -0.02219713 0.003344399 0.0413 -0.0232608 0.009762253 0.0413 -0.02137635 0.005086401 0.0398 -0.0244771 -0.00170606 0.0398 -0.02494172 0.003344399 0.0413 -0.0232608 0.005086401 0.0398 -0.0244771 -0.003344399 0.0413 -0.0232608 0.003344399 0.0413 -0.0232608 -0.00170606 0.0398 -0.02494172 -0.00837199 0.0398 -0.02355652 -0.003344399 0.0413 -0.0232608 -0.00170606 0.0398 -0.02494172 -0.009762253 0.0413 -0.02137635 -0.003344399 0.0413 -0.0232608 -0.00837199 0.0398 -0.02355652 -0.01441701 0.0398 -0.02042425 -0.009762253 0.0413 -0.02137635 -0.00837199 0.0398 -0.02355652 -0.01538923 0.0413 -0.01776011 -0.009762253 0.0413 -0.02137635 -0.01441701 0.0398 -0.02042425 -0.01939278 0.0398 -0.0157772 -0.01538923 0.0413 -0.01776011 -0.01441701 0.0398 -0.02042425 -0.01976946 0.0413 -0.01270506 -0.01538923 0.0413 -0.01776011 -0.01939278 0.0398 -0.0157772 -0.02293028 0.0398 -0.009960027 -0.01976946 0.0413 -0.01270506 -0.01939278 0.0398 -0.0157772 -0.02254809 0.0413 -0.006620715 -0.01976946 0.0413 -0.01270506 -0.02293028 0.0398 -0.009960027 -0.02476715 0.0398 -0.003404166 -0.02254809 0.0413 -0.006620715 -0.02293028 0.0398 -0.009960027 -0.0235 0.0413 -1.331402e-17 -0.02254809 0.0413 -0.006620715 -0.02476715 0.0398 -0.003404166 -0.02476715 0.0398 0.003404166 -0.0235 0.0413 -1.331402e-17 -0.02476715 0.0398 -0.003404166 -0.02254809 0.0413 0.006620715 -0.0235 0.0413 -1.331402e-17 -0.02476715 0.0398 0.003404166 -0.02293028 0.0398 0.009960027 -0.02254809 0.0413 0.006620715 -0.02476715 0.0398 0.003404166 -0.01976946 0.0413 0.01270506 -0.02254809 0.0413 0.006620715 -0.02293028 0.0398 0.009960027 -0.01939278 0.0398 0.0157772 -0.01976946 0.0413 0.01270506 -0.02293028 0.0398 0.009960027 -0.01538923 0.0413 0.01776011 -0.01976946 0.0413 0.01270506 -0.01939278 0.0398 0.0157772 -0.01441701 0.0398 0.02042425 -0.01538923 0.0413 0.01776011 -0.01939278 0.0398 0.0157772 -0.009762253 0.0413 0.02137635 -0.01538923 0.0413 0.01776011 -0.01441701 0.0398 0.02042425 -0.009762253 0.0413 0.02137635 -0.01441701 0.0398 0.02042425 -0.00837199 0.0398 0.02355652 -0.003344399 0.0413 0.0232608 -0.009762253 0.0413 0.02137635 -0.00837199 0.0398 0.02355652 -0.003344399 0.0413 0.0232608 -0.00837199 0.0398 0.02355652 -0.00170606 0.0398 0.02494172 0.003344399 0.0413 0.0232608 -0.00170606 0.0398 0.02494172 0.005086401 0.0398 0.0244771 0.003344399 0.0413 0.0232608 -0.003344399 0.0413 0.0232608 -0.00170606 0.0398 0.02494172 0.009762253 0.0413 0.02137635 0.005086401 0.0398 0.0244771 0.01150163 0.0398 0.02219713 0.009762253 0.0413 0.02137635 0.003344399 0.0413 0.0232608 0.005086401 0.0398 0.0244771 0.01538923 0.0413 0.01776011 0.01150163 0.0398 0.02219713 0.01706383 0.0398 0.0182709 0.01538923 0.0413 0.01776011 0.009762253 0.0413 0.02137635 0.01150163 0.0398 0.02219713 0.01976946 0.0413 0.01270506 0.01706383 0.0398 0.0182709 0.02136048 0.0398 0.0129896 0.01976946 0.0413 0.01270506 0.01538923 0.0413 0.01776011 0.01706383 0.0398 0.0182709 0.02254809 0.0413 0.006620715 0.02136048 0.0398 0.0129896 0.02407293 0.0398 0.006744919 0.02254809 0.0413 0.006620715 0.01976946 0.0413 0.01270506 0.02136048 0.0398 0.0129896 0.0235 0.0413 0 0.02407293 0.0398 0.006744919 0.025 0.0398 0 0.0235 0.0413 0 0.02254809 0.0413 0.006620715 0.02407293 0.0398 0.006744919 -0.01939278 0.0231 0.0157772 -0.02293028 0.0231 0.009960027 -0.01441701 0.0231 0.02042425 -0.00837199 0.0231 0.02355652 0.005086401 0.0231 0.0244771 -0.00170606 0.0231 0.02494172 -0.02293028 0.0231 -0.009960027 -0.01939278 0.0231 -0.0157772 -0.02476715 0.0231 -0.003404166 -0.02476715 0.0231 0.003404166 0.01706383 0.0231 0.0182709 0.01150163 0.0231 0.02219713 -0.01441701 0.0231 -0.02042425 -0.00837199 0.0231 -0.02355652 -0.00170606 0.0231 -0.02494172 0.025 0.0231 6.123234e-18 0.02136048 0.0231 0.0129896 0.02407293 0.0231 0.006744919 0.005086401 0.0231 -0.0244771 0.01706383 0.0231 -0.0182709 0.02407293 0.0231 -0.006744919 0.02136048 0.0231 -0.0129896 0.01150163 0.0231 -0.02219713 -0.02254809 0.0413 0.006620715 -0.01976946 0.0413 0.01270506 -0.01538923 0.0413 0.01776011 -0.009762253 0.0413 0.02137635 -0.02254809 0.0413 -0.006620715 -0.0235 0.0413 -1.331402e-17 0.01538923 0.0413 0.01776011 0.003344399 0.0413 0.0232608 0.009762253 0.0413 0.02137635 -0.01538923 0.0413 -0.01776011 -0.01976946 0.0413 -0.01270506 0.02254809 0.0413 0.006620715 0.01976946 0.0413 0.01270506 -0.003344399 0.0413 -0.0232608 -0.009762253 0.0413 -0.02137635 -0.003344399 0.0413 0.0232608 0.003344399 0.0413 -0.0232608 0.009762253 0.0413 -0.02137635 0.01976946 0.0413 -0.01270506 0.0235 0.0413 0 0.02254809 0.0413 -0.006620715 0.01538923 0.0413 -0.01776011</float_array>
          <technique_common>
            <accessor count="416" source="#verts-array-array" stride="3">
              <param type="float" name="X"/>
              <param type="float" name="Y"/>
              <param type="float" name="Z"/>
            </accessor>
          </technique_common>
        </source>
        <source id="normals-array">
          <float_array count="1248" id="normals-array-array">-1 0 0 -1 0 0 -1 0 0 -1 0 0 0 1 0 0 1 0 0 1 0 0 1 0 0 1 0 0 1 0 0 1 0 0 1 0 0 1 0 0 1 0 0 1 0 0 1 0 0 1 0 0 1 0 0 1 0 0 1 0 0 1 0 0 1 0 0 1 0 0 1 0 0 1 0 0 1 0 0 1 0 0 1 0 -0.9876884 0 0.1564339 -0.9876884 0 0.1564339 -0.9876884 0 0.1564339 -0.9876884 0 0.1564339 -0.8910064 0 0.4539908 -0.8910064 0 0.4539908 -0.8910064 0 0.4539908 -0.8910064 0 0.4539908 -0.7071068 0 0.7071068 -0.7071068 0 0.7071068 -0.7071068 0 0.7071068 -0.7071068 0 0.7071068 -0.4539908 0 0.8910064 -0.4539908 0 0.8910064 -0.4539908 0 0.8910064 -0.4539908 0 0.8910064 -0.1564339 0 0.9876884 -0.1564339 0 0.9876884 -0.1564339 0 0.9876884 -0.1564339 0 0.9876884 -0.9876884 0 -0.1564339 -0.9876884 0 -0.1564339 -0.9876884 0 -0.1564339 -0.9876884 0 -0.1564339 -0.8910064 0 -0.4539908 -0.8910064 0 -0.4539908 -0.8910064 0 -0.4539908 -0.8910064 0 -0.4539908 -0.7071068 0 -0.7071068 -0.7071068 0 -0.7071068 -0.7071068 0 -0.7071068 -0.7071068 0 -0.7071068 -0.4539908 0 -0.8910064 -0.4539908 0 -0.8910064 -0.4539908 0 -0.8910064 -0.4539908 0 -0.8910064 -0.1564339 0 -0.9876884 -0.1564339 0 -0.9876884 -0.1564339 0 -0.9876884 -0.1564339 0 -0.9876884 0 -1 0 0 -1 0 0 -1 0 0 -1 0 0 -1 0 0 -1 0 0 -1 0 0 -1 0 0 -1 0 0 -1 0 0 -1 0 0 -1 0 0 -1 0 0 -1 0 0 -1 0 0 -1 0 0 -1 0 0 -1 0 0 -1 0 0 -1 0 0 -1 0 0 -1 0 0 -1 0 0 -1 0 0 0 1 0 0 1 0 0 1 0 0 1 0 0 -1 0 0 -1 0 0 -1 0 0 -1 0.9876884 0 0.1564339 0.9876884 0 0.1564339 0.9876884 0 0.1564339 0.9876884 0 0.1564339 0.8910064 0 0.4539908 0.8910064 0 0.4539908 0.8910064 0 0.4539908 0.8910064 0 0.4539908 0.7071068 0 0.7071068 0.7071068 0 0.7071068 0.7071068 0 0.7071068 0.7071068 0 0.7071068 0.4539908 0 0.8910064 0.4539908 0 0.8910064 0.4539908 0 0.8910064 0.4539908 0 0.8910064 0.1564339 0 0.9876884 0.1564339 0 0.9876884 0.1564339 0 0.9876884 0.1564339 0 0.9876884 0.9876884 0 -0.1564339 0.9876884 0 -0.1564339 0.9876884 0 -0.1564339 0.9876884 0 -0.1564339 0.8910064 0 -0.4539908 0.8910064 0 -0.4539908 0.8910064 0 -0.4539908 0.8910064 0 -0.4539908 0.7071068 0 -0.7071068 0.7071068 0 -0.7071068 0.7071068 0 -0.7071068 0.7071068 0 -0.7071068 0.4539908 0 -0.8910064 0.4539908 0 -0.8910064 0.4539908 0 -0.8910064 0.4539908 0 -0.8910064 0.1564339 0 -0.9876884 0.1564339 0 -0.9876884 0.1564339 0 -0.9876884 0.1564339 0 -0.9876884 1 0 0 1 0 0 1 0 0 1 0 0 0.9906859 -3.762286e-17 -0.136167 0.9906859 -4.992709e-17 -0.136167 0.9906859 -1.230423e-17 -0.136167 0.9906859 0 -0.136167 0.9172111 0 -0.3984015 0.9172111 0 -0.3984015 0.9172111 0 -0.3984015 0.9172111 0 -0.3984015 0.7757118 0 -0.6310873 0.7757118 0 -0.6310873 0.7757118 0 -0.6310873 0.5766802 0 -0.81697 0.5766802 0 -0.81697 0.5766802 0 -0.81697 0.7757118 0 -0.6310873 0.5766802 0 -0.81697 0.3348793 0 -0.942261 0.3348793 0 -0.942261 0.3348793 0 -0.942261 0.3348793 0 -0.942261 0.06824285 0 -0.9976687 0.06824285 0 -0.9976687 0.06824285 0 -0.9976687 0.06824285 0 -0.9976687 -0.2034567 0 -0.979084 -0.2034567 0 -0.979084 -0.2034567 0 -0.979084 -0.4600641 0 -0.8878857 -0.4600641 0 -0.8878857 -0.4600641 0 -0.8878857 -0.2034567 0 -0.979084 -0.4600641 0 -0.8878857 -0.6825536 0 -0.7308355 -0.6825536 0 -0.7308355 -0.6825536 0 -0.7308355 -0.6825536 0 -0.7308355 -0.8544195 0 -0.5195838 -0.8544195 0 -0.5195838 -0.8544195 0 -0.5195838 -0.8544195 0 -0.5195838 -0.9629171 0 -0.2697973 -0.9629171 0 -0.2697973 -0.9629171 0 -0.2697973 -0.9629171 0 -0.2697973 -1 0 0 -1 0 0 -1 0 0 -1 0 0 -0.9629171 0 0.2697973 -0.9629171 0 0.2697973 -0.9629171 0 0.2697973 -0.9629171 0 0.2697973 -0.8544195 0 0.5195838 -0.8544195 0 0.5195838 -0.8544195 0 0.5195838 -0.8544195 0 0.5195838 -0.6825536 0 0.7308355 -0.6825536 0 0.7308355 -0.6825536 0 0.7308355 -0.4600641 0 0.8878857 -0.4600641 0 0.8878857 -0.4600641 0 0.8878857 -0.6825536 0 0.7308355 -0.4600641 0 0.8878857 -0.2034567 0 0.979084 -0.2034567 0 0.979084 -0.2034567 0 0.979084 -0.2034567 0 0.979084 0.06824285 0 0.9976687 0.06824285 0 0.9976687 0.06824285 0 0.9976687 0.06824285 0 0.9976687 0.3348793 0 0.942261 0.3348793 0 0.942261 0.3348793 0 0.942261 0.3348793 0 0.942261 0.5766802 0 0.81697 0.5766802 0 0.81697 0.5766802 0 0.81697 0.5766802 0 0.81697 0.7757118 0 0.6310873 0.7757118 0 0.6310873 0.7757118 0 0.6310873 0.7757118 0 0.6310873 0.9172111 0 0.3984015 0.9172111 0 0.3984015 0.9172111 0 0.3984015 0.9172111 0 0.3984015 0.9906859 1.285167e-17 0.136167 0.9906859 0 0.136167 0.9906859 3.929675e-17 0.136167 0.9906859 5.214842e-17 0.136167 0.7037902 0.7037911 -0.09673399 0.7037902 0.7037911 -0.09673399 0.7037902 0.7037911 -0.09673399 0.6936399 0.7133846 -0.09972968 0.6936399 0.7133846 -0.09972968 0.6936399 0.7133846 -0.09972968 0.6598853 0.6945468 -0.286629 0.6598853 0.6945468 -0.286629 0.6598853 0.6945468 -0.286629 0.6293314 0.7220385 -0.2874064 0.6293314 0.7220385 -0.2874064 0.6293314 0.7220385 -0.2874064 0.5645016 0.6858735 -0.4592554 0.5645016 0.6858735 -0.4592554 0.5645016 0.6858735 -0.4592554 0.516875 0.7295534 -0.4478752 0.516875 0.7295534 -0.4478752 0.516875 0.7295534 -0.4478752 0.4239726 0.6778553 -0.6006325 0.4239726 0.6778553 -0.6006325 0.4239726 0.6778553 -0.6006325 0.3659927 0.7360194 -0.5694952 0.3659927 0.7360194 -0.5694952 0.3659927 0.7360194 -0.5694952 0.2484299 0.670567 -0.6990154 0.2484299 0.670567 -0.6990154 0.2484299 0.670567 -0.6990154 0.1890232 0.7415187 -0.6437548 0.1890232 0.7415187 -0.6437548 0.1890232 0.7415187 -0.6437548 0.05102205 0.6640884 -0.7459111 0.05102205 0.6640884 -0.7459111 0.05102205 0.6640884 -0.7459111 0 0.7461189 -0.6658127 0 0.7461189 -0.6658127 0 0.7461189 -0.6658127 -0.1531202 0.6584851 -0.7368525 -0.1531202 0.6584851 -0.7368525 -0.1531202 0.6584851 -0.7368525 -0.1863893 0.7498718 -0.6347845 -0.1863893 0.7498718 -0.6347845 -0.1863893 0.7498718 -0.6347845 -0.3481094 0.6538153 -0.6718224 -0.3481094 0.6538153 -0.6718224 -0.3481094 0.6538153 -0.6718224 -0.3558605 0.7528261 -0.5537293 -0.3558605 0.7528261 -0.5537293 -0.3558605 0.7528261 -0.5537293 -0.5186187 0.6501321 -0.5553043 -0.5186187 0.6501321 -0.5553043 -0.5186187 0.6501321 -0.5553043 -0.4955548 0.7550101 -0.4294011 -0.4955548 0.7550101 -0.4294011 -0.4955548 0.7550101 -0.4294011 -0.6511461 0.647469 -0.3959706 -0.6511461 0.647469 -0.3959706 -0.6511461 0.647469 -0.3959706 -0.5949434 0.7564525 -0.2717019 -0.5949434 0.7564525 -0.2717019 -0.5949434 0.7564525 -0.2717019 -0.7351446 0.6458602 -0.2059783 -0.7351446 0.6458602 -0.2059783 -0.7351446 0.6458602 -0.2059783 -0.646568 0.757171 -0.0929618 -0.646568 0.757171 -0.0929618 -0.646568 0.757171 -0.0929618 -0.7639084 0.6453247 0 -0.7639084 0.6453247 0 -0.7639084 0.6453247 0 -0.646568 0.757171 0.0929618 -0.646568 0.757171 0.0929618 -0.646568 0.757171 0.0929618 -0.7351446 0.6458602 0.2059783 -0.7351446 0.6458602 0.2059783 -0.7351446 0.6458602 0.2059783 -0.5949434 0.7564525 0.2717019 -0.5949434 0.7564525 0.2717019 -0.5949434 0.7564525 0.2717019 -0.6511461 0.647469 0.3959706 -0.6511461 0.647469 0.3959706 -0.6511461 0.647469 0.3959706 -0.4955548 0.7550101 0.4294011 -0.4955548 0.7550101 0.4294011 -0.4955548 0.7550101 0.4294011 -0.5186187 0.6501321 0.5553043 -0.5186187 0.6501321 0.5553043 -0.5186187 0.6501321 0.5553043 -0.3558605 0.7528261 0.5537293 -0.3558605 0.7528261 0.5537293 -0.3558605 0.7528261 0.5537293 -0.3481094 0.6538153 0.6718224 -0.3481094 0.6538153 0.6718224 -0.3481094 0.6538153 0.6718224 -0.1863893 0.7498718 0.6347845 -0.1863893 0.7498718 0.6347845 -0.1863893 0.7498718 0.6347845 -0.1531202 0.6584851 0.7368525 -0.1531202 0.6584851 0.7368525 -0.1531202 0.6584851 0.7368525 0.05102205 0.6640884 0.7459111 0.05102205 0.6640884 0.7459111 0.05102205 0.6640884 0.7459111 0 0.7461189 0.6658127 0 0.7461189 0.6658127 0 0.7461189 0.6658127 0.2484299 0.670567 0.6990154 0.2484299 0.670567 0.6990154 0.2484299 0.670567 0.6990154 0.1890232 0.7415187 0.6437548 0.1890232 0.7415187 0.6437548 0.1890232 0.7415187 0.6437548 0.4239726 0.6778553 0.6006325 0.4239726 0.6778553 0.6006325 0.4239726 0.6778553 0.6006325 0.3659927 0.7360194 0.5694952 0.3659927 0.7360194 0.5694952 0.3659927 0.7360194 0.5694952 0.5645016 0.6858735 0.4592554 0.5645016 0.6858735 0.4592554 0.5645016 0.6858735 0.4592554 0.516875 0.7295534 0.4478752 0.516875 0.7295534 0.4478752 0.516875 0.7295534 0.4478752 0.6598853 0.6945468 0.286629 0.6598853 0.6945468 0.286629 0.6598853 0.6945468 0.286629 0.6293314 0.7220385 0.2874064 0.6293314 0.7220385 0.2874064 0.6293314 0.7220385 0.2874064 0.7037902 0.7037911 0.09673399 0.7037902 0.7037911 0.09673399 0.7037902 0.7037911 0.09673399 0.6936399 0.7133846 0.09972968 0.6936399 0.7133846 0.09972968 0.6936399 0.7133846 0.09972968 0 -1 0 0 -1 0 0 -1 0 0 -1 0 0 -1 0 0 -1 0 0 -1 0 0 -1 0 0 -1 0 0 -1 0 0 -1 0 0 -1 0 0 -1 0 0 -1 0 0 -1 0 0 -1 0 0 -1 0 0 -1 0 0 -1 0 0 -1 0 0 -1 0 0 -1 0 0 -1 0 0 1 0 0 1 0 0 1 0 0 1 0 0 1 0 0 1 0 0 1 0 0 1 0 0 1 0 0 1 0 0 1 0 0 1 0 0 1 0 0 1 0 0 1 0 0 1 0 0 1 0 0 1 0 0 1 0 0 1 0 0 1 0 0 1 0</float_array>
          <technique_common>
            <accessor count="416" source="#normals-array-array" stride="3">
              <param type="float" name="X"/>
              <param type="float" name="Y"/>
              <param type="float" name="Z"/>
            </accessor>
          </technique_common>
        </source>
        <vertices id="verts-array-vertices">
          <input semantic="POSITION" source="#verts-array"/>
        </vertices>
        <triangles count="224" material="material0">
          <input offset="0" semantic="VERTEX" source="#verts-array-vertices"/>
          <input offset="1" semantic="NORMAL" source="#normals-array"/>
          <p>0 0 1 1 2 2 2 2 1 1 3 3 4 4 5 5 6 6 7 7 8 8 9 9 7 7 9 9 5 5 7 7 5 5 4 4 10 10 8 8 7 7 11 11 12 12 10 10 13 13 14 14 15 15 16 16 14 14 13 13 17 17 18 18 11 11 17 17 11 11 10 10 19 19 16 16 20 20 19 19 14 14 16 16 21 21 17 17 10 10 22 22 7 7 14 14 22 22 10 10 7 7 22 22 21 21 10 10 23 23 14 14 19 19 23 23 22 22 14 14 24 24 23 23 25 25 24 24 25 25 26 26 24 24 27 27 22 22 24 24 22 22 23 23 28 28 29 29 30 30 28 28 31 31 29 29 32 32 33 33 34 34 32 32 35 35 33 33 36 36 37 37 38 38 36 36 39 39 37 37 40 40 41 41 42 42 40 40 43 43 41 41 44 44 45 45 46 46 44 44 47 47 45 45 48 48 49 49 50 50 51 51 49 49 48 48 52 52 53 53 54 54 55 55 53 53 52 52 56 56 57 57 58 58 59 59 57 57 56 56 60 60 61 61 62 62 63 63 61 61 60 60 64 64 65 65 66 66 67 67 65 65 64 64 68 68 69 69 70 70 71 71 72 72 73 73 73 73 72 72 68 68 68 68 72 72 69 69 71 71 74 74 72 72 75 75 76 76 74 74 77 77 78 78 79 79 77 77 80 80 78 78 81 81 82 82 76 76 76 76 82 82 74 74 80 80 83 83 84 84 77 77 83 83 80 80 82 82 85 85 74 74 72 72 86 86 77 77 74 74 86 86 72 72 85 85 86 86 74 74 77 77 87 87 83 83 86 86 87 87 77 77 87 87 88 88 89 89 89 89 88 88 90 90 91 91 88 88 86 86 86 86 88 88 87 87 92 92 93 93 94 94 94 94 93 93 95 95 96 96 97 97 98 98 96 96 98 98 99 99 100 100 101 101 102 102 103 103 101 101 100 100 104 104 105 105 106 106 107 107 105 105 104 104 108 108 109 109 110 110 111 111 109 109 108 108 112 112 113 113 114 114 115 115 113 113 112 112 116 116 117 117 118 118 119 119 117 117 116 116 120 120 121 121 122 122 120 120 123 123 121 121 124 124 125 125 126 126 124 124 127 127 125 125 128 128 129 129 130 130 128 128 131 131 129 129 132 132 133 133 134 134 132 132 135 135 133 133 136 136 137 137 138 138 136 136 139 139 137 137 140 140 141 141 142 142 140 140 142 142 143 143 144 144 145 145 146 146 144 144 146 146 147 147 148 148 149 149 150 150 148 148 151 151 149 149 152 152 153 153 154 154 155 155 156 156 157 157 152 152 158 158 153 153 159 159 155 155 157 157 160 160 161 161 162 162 160 160 163 163 161 161 164 164 165 165 166 166 164 164 167 167 165 165 168 168 169 169 170 170 171 171 172 172 173 173 168 168 174 174 169 169 175 175 171 171 173 173 176 176 177 177 178 178 176 176 179 179 177 177 180 180 181 181 182 182 180 180 183 183 181 181 184 184 185 185 186 186 184 184 187 187 185 185 188 188 189 189 190 190 188 188 191 191 189 189 192 192 193 193 194 194 192 192 194 194 195 195 196 196 197 197 198 198 196 196 198 198 199 199 200 200 201 201 202 202 203 203 204 204 205 205 206 206 200 200 202 202 207 207 203 203 205 205 208 208 209 209 210 210 208 208 210 210 211 211 212 212 213 213 214 214 212 212 214 214 215 215 216 216 217 217 218 218 216 216 218 218 219 219 220 220 221 221 222 222 220 220 222 222 223 223 224 224 225 225 226 226 224 224 226 226 227 227 228 228 229 229 230 230 228 228 230 230 231 231 232 232 233 233 234 234 232 232 234 234 235 235 236 236 237 237 238 238 239 239 240 240 241 241 242 242 243 243 244 244 245 245 246 246 247 247 248 248 249 249 250 250 251 251 252 252 253 253 254 254 255 255 256 256 257 257 258 258 259 259 260 260 261 261 262 262 263 263 264 264 265 265 266 266 267 267 268 268 269 269 270 270 271 271 272 272 273 273 274 274 275 275 276 276 277 277 278 278 279 279 280 280 281 281 282 282 283 283 284 284 285 285 286 286 287 287 288 288 289 289 290 290 291 291 292 292 293 293 294 294 295 295 296 296 297 297 298 298 299 299 300 300 301 301 302 302 303 303 304 304 305 305 306 306 307 307 308 308 309 309 310 310 311 311 312 312 313 313 314 314 315 315 316 316 317 317 318 318 319 319 320 320 321 321 322 322 323 323 324 324 325 325 326 326 327 327 328 328 329 329 330 330 331 331 332 332 333 333 334 334 335 335 336 336 337 337 338 338 339 339 340 340 341 341 342 342 343 343 344 344 345 345 346 346 347 347 348 348 349 349 350 350 351 351 352 352 353 353 354 354 355 355 356 356 357 357 358 358 359 359 360 360 361 361 362 362 363 363 364 364 365 365 366 366 367 367 368 368 369 369 370 370 371 371 372 372 373 373 372 372 374 374 373 373 374 374 375 375 376 376 377 377 378 378 379 379 379 379 378 378 380 380 380 380 381 381 372 372 375 375 381 381 382 382 372 372 381 381 374 374 374 374 381 381 375 375 378 378 383 383 380 380 384 384 385 385 383 383 381 381 386 386 387 387 387 387 386 386 388 388 380 380 386 386 381 381 385 385 389 389 383 383 383 383 389 389 380 380 380 380 389 389 386 386 386 386 390 390 391 391 391 391 390 390 392 392 393 393 390 390 389 389 389 389 390 390 386 386 394 394 395 395 396 396 394 394 396 396 397 397 398 398 399 399 394 394 398 398 394 394 397 397 400 400 401 401 402 402 403 403 404 404 398 398 403 403 398 398 397 397 405 405 400 400 406 406 407 407 408 408 403 403 407 407 397 397 409 409 407 407 403 403 397 397 410 410 409 409 401 401 410 410 401 401 400 400 410 410 407 407 409 409 411 411 410 410 400 400 412 412 413 413 414 414 415 415 405 405 413 413 415 415 400 400 405 405 415 415 413 413 412 412 415 415 411 411 400 400</p>
        </triangles>
      </mesh>
    </geometry>
    <geometry id="63d6954c22224742ae2e8b676b29968f" name="9ed99bea2c49418d8cdb15df8a6105d1">
      <mesh>
        <source id="verts-array">
          <float_array count="432" id="verts-array-array">-0.0278 0 0.0188 -0.0278 0.018 0.0188 -0.0278 0 -0.0188 -0.0278 0.018 -0.0188 -0.02158115 0.018 0.02735951 -0.02608115 0.018 0.02409007 -0.02409007 0.018 0.02608115 -0.0188 0.018 0.0278 -0.0278 0.018 0.0188 -0.02735951 0.018 0.02158115 -0.0278 0.018 -0.0188 -0.02608115 0.018 -0.02409007 -0.02735951 0.018 -0.02158115 0.02409007 0.018 0.02608115 0.0188 0.018 0.0278 0.02158115 0.018 0.02735951 0.02608115 0.018 0.02409007 -0.02158115 0.018 -0.02735951 -0.02409007 0.018 -0.02608115 0.0278 0.018 0.0188 0.02735951 0.018 0.02158115 -0.0188 0.018 -0.0278 0.0188 0.018 -0.0278 0.0278 0.018 -0.0188 0.02409007 0.018 -0.02608115 0.02735951 0.018 -0.02158115 0.02608115 0.018 -0.02409007 0.02158115 0.018 -0.02735951 -0.0278 0.018 0.0188 -0.0278 0 0.0188 -0.02735951 0 0.02158115 -0.02735951 0.018 0.02158115 -0.02735951 0 0.02158115 -0.02608115 0 0.02409007 -0.02735951 0.018 0.02158115 -0.02608115 0.018 0.02409007 -0.02409007 0.018 0.02608115 -0.02608115 0 0.02409007 -0.02409007 0 0.02608115 -0.02409007 0.018 0.02608115 -0.02409007 0 0.02608115 -0.02158115 0 0.02735951 -0.02608115 0.018 0.02409007 -0.02158115 0.018 0.02735951 -0.0188 0.018 0.0278 -0.02158115 0 0.02735951 -0.0188 0 0.0278 -0.02158115 0.018 0.02735951 -0.0278 0 -0.0188 -0.0278 0.018 -0.0188 -0.02735951 0 -0.02158115 -0.02735951 0 -0.02158115 -0.02735951 0.018 -0.02158115 -0.02608115 0 -0.02409007 -0.02735951 0.018 -0.02158115 -0.02608115 0.018 -0.02409007 -0.02608115 0 -0.02409007 -0.02409007 0.018 -0.02608115 -0.02409007 0 -0.02608115 -0.02409007 0 -0.02608115 -0.02409007 0.018 -0.02608115 -0.02158115 0 -0.02735951 -0.02608115 0.018 -0.02409007 -0.02158115 0.018 -0.02735951 -0.02158115 0 -0.02735951 -0.0188 0.018 -0.0278 -0.0188 0 -0.0278 -0.02158115 0.018 -0.02735951 -0.02608115 0 0.02409007 -0.02158115 0 0.02735951 -0.02409007 0 0.02608115 -0.0278 0 0.0188 -0.0188 0 0.0278 -0.02735951 0 0.02158115 -0.0278 0 -0.0188 -0.02735951 0 -0.02158115 -0.02608115 0 -0.02409007 0.0188 0 0.0278 0.02409007 0 0.02608115 0.02158115 0 0.02735951 0.02608115 0 0.02409007 -0.02409007 0 -0.02608115 -0.02158115 0 -0.02735951 0.0278 0 0.0188 0.02735951 0 0.02158115 -0.0188 0 -0.0278 0.0188 0 -0.0278 0.0278 0 -0.0188 0.02409007 0 -0.02608115 0.02735951 0 -0.02158115 0.02608115 0 -0.02409007 0.02158115 0 -0.02735951 0.0188 0 0.0278 0.0188 0.018 0.0278 -0.0188 0 0.0278 -0.0188 0.018 0.0278 0.0188 0.018 -0.0278 0.0188 0 -0.0278 -0.0188 0 -0.0278 -0.0188 0.018 -0.0278 0.0278 0 0.0188 0.0278 0.018 0.0188 0.02735951 0 0.02158115 0.02735951 0 0.02158115 0.02735951 0.018 0.02158115 0.02608115 0 0.02409007 0.02735951 0.018 0.02158115 0.02608115 0.018 0.02409007 0.02608115 0 0.02409007 0.02409007 0.018 0.02608115 0.02409007 0 0.02608115 0.02409007 0 0.02608115 0.02409007 0.018 0.02608115 0.02158115 0 0.02735951 0.02608115 0.018 0.02409007 0.02158115 0.018 0.02735951 0.02158115 0 0.02735951 0.0188 0.018 0.0278 0.0188 0 0.0278 0.02158115 0.018 0.02735951 0.0278 0.018 -0.0188 0.0278 0 -0.0188 0.02735951 0 -0.02158115 0.02735951 0.018 -0.02158115 0.02735951 0 -0.02158115 0.02608115 0 -0.02409007 0.02735951 0.018 -0.02158115 0.02608115 0.018 -0.02409007 0.02409007 0.018 -0.02608115 0.02608115 0 -0.02409007 0.02409007 0 -0.02608115 0.02409007 0.018 -0.02608115 0.02409007 0 -0.02608115 0.02158115 0 -0.02735951 0.02608115 0.018 -0.02409007 0.02158115 0.018 -0.02735951 0.0188 0.018 -0.0278 0.02158115 0 -0.02735951 0.0188 0 -0.0278 0.02158115 0.018 -0.02735951 0.0278 0.018 0.0188 0.0278 0 0.0188 0.0278 0 -0.0188 0.0278 0.018 -0.0188</float_array>
          <technique_common>
            <accessor count="144" source="#verts-array-array" stride="3">
              <param type="float" name="X"/>
              <param type="float" name="Y"/>
              <param type="float" name="Z"/>
            </accessor>
          </technique_common>
        </source>
        <source id="normals-array">
          <float_array count="432" id="normals-array-array">-1 0 0 -1 0 0 -1 0 0 -1 0 0 0 1 0 0 1 0 0 1 0 0 1 0 0 1 0 0 1 0 0 1 0 0 1 0 0 1 0 0 1 0 0 1 0 0 1 0 0 1 0 0 1 0 0 1 0 0 1 0 0 1 0 0 1 0 0 1 0 0 1 0 0 1 0 0 1 0 0 1 0 0 1 0 -0.9876884 0 0.1564339 -0.9876884 0 0.1564339 -0.9876884 0 0.1564339 -0.8910064 0 0.4539908 -0.8910064 0 0.4539908 -0.8910064 0 0.4539908 -0.9876884 0 0.1564339 -0.8910064 0 0.4539908 -0.7071068 0 0.7071068 -0.7071068 0 0.7071068 -0.7071068 0 0.7071068 -0.4539908 0 0.8910064 -0.4539908 0 0.8910064 -0.4539908 0 0.8910064 -0.7071068 0 0.7071068 -0.4539908 0 0.8910064 -0.1564339 0 0.9876884 -0.1564339 0 0.9876884 -0.1564339 0 0.9876884 -0.1564339 0 0.9876884 -0.9876884 0 -0.1564339 -0.9876884 0 -0.1564339 -0.9876884 0 -0.1564339 -0.8910064 0 -0.4539908 -0.8910064 0 -0.4539908 -0.8910064 0 -0.4539908 -0.9876884 0 -0.1564339 -0.8910064 0 -0.4539908 -0.7071068 0 -0.7071068 -0.7071068 0 -0.7071068 -0.7071068 0 -0.7071068 -0.4539908 0 -0.8910064 -0.4539908 0 -0.8910064 -0.4539908 0 -0.8910064 -0.7071068 0 -0.7071068 -0.4539908 0 -0.8910064 -0.1564339 0 -0.9876884 -0.1564339 0 -0.9876884 -0.1564339 0 -0.9876884 -0.1564339 0 -0.9876884 0 -1 0 0 -1 0 0 -1 0 0 -1 0 0 -1 0 0 -1 0 0 -1 0 0 -1 0 0 -1 0 0 -1 0 0 -1 0 0 -1 0 0 -1 0 0 -1 0 0 -1 0 0 -1 0 0 -1 0 0 -1 0 0 -1 0 0 -1 0 0 -1 0 0 -1 0 0 -1 0 0 -1 0 0 0 1 0 0 1 0 0 1 0 0 1 0 0 -1 0 0 -1 0 0 -1 0 0 -1 0.9876884 0 0.1564339 0.9876884 0 0.1564339 0.9876884 0 0.1564339 0.8910064 0 0.4539908 0.8910064 0 0.4539908 0.8910064 0 0.4539908 0.9876884 0 0.1564339 0.8910064 0 0.4539908 0.7071068 0 0.7071068 0.7071068 0 0.7071068 0.7071068 0 0.7071068 0.4539908 0 0.8910064 0.4539908 0 0.8910064 0.4539908 0 0.8910064 0.7071068 0 0.7071068 0.4539908 0 0.8910064 0.1564339 0 0.9876884 0.1564339 0 0.9876884 0.1564339 0 0.9876884 0.1564339 0 0.9876884 0.9876884 0 -0.1564339 0.9876884 0 -0.1564339 0.9876884 0 -0.1564339 0.8910064 0 -0.4539908 0.8910064 0 -0.4539908 0.8910064 0 -0.4539908 0.9876884 0 -0.1564339 0.8910064 0 -0.4539908 0.7071068 0 -0.7071068 0.7071068 0 -0.7071068 0.7071068 0 -0.7071068 0.4539908 0 -0.8910064 0.4539908 0 -0.8910064 0.4539908 0 -0.8910064 0.7071068 0 -0.7071068 0.4539908 0 -0.8910064 0.1564339 0 -0.9876884 0.1564339 0 -0.9876884 0.1564339 0 -0.9876884 0.1564339 0 -0.9876884 1 0 0 1 0 0 1 0 0 1 0 0</float_array>
          <technique_common>
            <accessor count="144" source="#normals-array-array" stride="3">
              <param type="float" name="X"/>
              <param type="float" name="Y"/>
              <param type="float" name="Z"/>
            </accessor>
          </technique_common>
        </source>
        <vertices id="verts-array-vertices">
          <input semantic="POSITION" source="#verts-array"/>
        </vertices>
        <triangles count="92" material="material1">
          <input offset="0" semantic="VERTEX" source="#verts-array-vertices"/>
          <input offset="1" semantic="NORMAL" source="#normals-array"/>
          <p>0 0 1 1 2 2 2 2 1 1 3 3 4 4 5 5 6 6 7 7 8 8 9 9 7 7 9 9 5 5 7 7 5 5 4 4 10 10 8 8 7 7 11 11 12 12 10 10 13 13 14 14 15 15 16 16 14 14 13 13 17 17 18 18 11 11 17 17 11 11 10 10 19 19 16 16 20 20 19 19 14 14 16 16 21 21 17 17 10 10 22 22 7 7 14 14 22 22 10 10 7 7 22 22 21 21 10 10 23 23 14 14 19 19 23 23 22 22 14 14 24 24 23 23 25 25 24 24 25 25 26 26 24 24 27 27 22 22 24 24 22 22 23 23 28 28 29 29 30 30 31 31 32 32 33 33 34 34 28 28 30 30 35 35 31 31 33 33 36 36 37 37 38 38 39 39 40 40 41 41 36 36 42 42 37 37 43 43 39 39 41 41 44 44 45 45 46 46 44 44 47 47 45 45 48 48 49 49 50 50 51 51 52 52 53 53 49 49 54 54 50 50 52 52 55 55 53 53 56 56 57 57 58 58 59 59 60 60 61 61 62 62 57 57 56 56 60 60 63 63 61 61 64 64 65 65 66 66 67 67 65 65 64 64 68 68 69 69 70 70 71 71 72 72 73 73 73 73 72 72 68 68 68 68 72 72 69 69 71 71 74 74 72 72 75 75 76 76 74 74 77 77 78 78 79 79 77 77 80 80 78 78 81 81 82 82 76 76 76 76 82 82 74 74 80 80 83 83 84 84 77 77 83 83 80 80 82 82 85 85 74 74 72 72 86 86 77 77 74 74 86 86 72 72 85 85 86 86 74 74 77 77 87 87 83 83 86 86 87 87 77 77 87 87 88 88 89 89 89 89 88 88 90 90 91 91 88 88 86 86 86 86 88 88 87 87 92 92 93 93 94 94 94 94 93 93 95 95 96 96 97 97 98 98 96 96 98 98 99 99 100 100 101 101 102 102 103 103 104 104 105 105 101 101 106 106 102 102 104 104 107 107 105 105 108 108 109 109 110 110 111 111 112 112 113 113 114 114 109 109 108 108 112 112 115 115 113 113 116 116 117 117 118 118 119 119 117 117 116 116 120 120 121 121 122 122 123 123 124 124 125 125 126 126 120 120 122 122 127 127 123 123 125 125 128 128 129 129 130 130 131 131 132 132 133 133 128 128 134 134 129 129 135 135 131 131 133 133 136 136 137 137 138 138 136 136 139 139 137 137 140 140 141 141 142 142 140 140 142 142 143 143</p>
        </triangles>
      </mesh>
    </geometry>
  </library_geometries>
  <library_materials>
    <material id="e8e1400b6cc3478e85de178ee44425a4" name="pbrmaterial">
      <instance_effect url="#c6b8ad80e0c64433aad8940ac30b80bd"/>
    </material>
    <material id="c187fbfdb1ed428cb4e9f8acd0ea162a" name="pbrmaterial">
      <instance_effect url="#292708c881df4d1aa04cc9d8e8545e54"/>
    </material>
  </library_materials>
  <library_visual_scenes>
    <visual_scene id="scene">
      <node id="node0" name="node0">
        <instance_geometry url="#a200bdb37a7b48a4ac5ea0fcb6513868">
          <bind_material>
            <technique_common>
              <instance_material symbol="material0" target="#e8e1400b6cc3478e85de178ee44425a4"/>
            </technique_common>
          </bind_material>
        </instance_geometry>
      </node>
      <node id="node1" name="node1">
        <instance_geometry url="#63d6954c22224742ae2e8b676b29968f">
          <bind_material>
            <technique_common>
              <instance_material symbol="material1" target="#c187fbfdb1ed428cb4e9f8acd0ea162a"/>
            </technique_common>
          </bind_material>
        </instance_geometry>
      </node>
    </visual_scene>
  </library_visual_scenes>
  <scene>
    <instance_visual_scene url="#scene"/>
  </scene>
</COLLADA>
