<COLLADA xmlns="http://www.collada.org/2005/11/COLLADASchema" version="1.4.1">
  <asset>
    <created>2026-08-07T10:27:59.687194</created>
    <modified>2026-08-07T10:27:59.687196</modified>
    <up_axis>Y_UP</up_axis>
  </asset>
  <library_effects>
    <effect id="54b44937ee7d47a9a54bef6135126866" name="54b44937ee7d47a9a54bef6135126866">
      <profile_COMMON>
        <technique sid="common">
          <phong>
            <ambient>
              <color>0.0 0.0 0.0 1.0</color>
            </ambient>
            <diffuse>
              <color>0.1411764705882353 0.1411764705882353 0.14901960784313725 1.0</color>
            </diffuse>
            <specular>
              <color>1.0 1.0 1.0 1.0</color>
            </specular>
            <shininess>
              <float>0.06598803534436781</float>
            </shininess>
            <reflective>
              <color>0.0 0.0 0.0 1.0</color>
            </reflective>
            <reflectivity>
              <float>0.0</float>
            </reflectivity>
            <transparent>
              <color>0.0 0.0 0.0 1.0</color>
            </transparent>
            <transparency>
              <float>1.0</float>
            </transparency>
          </phong>
        </technique>
        <extra>
          <technique profile="GOOGLEEARTH">
            <double_sided>0</double_sided>
          </technique>
        </extra>
      </profile_COMMON>
    </effect>
    <effect id="db81c4fdeb454870a8e12b668eb2caab" name="db81c4fdeb454870a8e12b668eb2caab">
      <profile_COMMON>
        <technique sid="common">
          <phong>
            <ambient>
              <color>0.0 0.0 0.0 1.0</color>
            </ambient>
            <diffuse>
              <color>0.0784313725490196 0.0784313725490196 0.09019607843137255 1.0</color>
            </diffuse>
            <specular>
              <color>1.0 1.0 1.0 1.0</color>
            </specular>
            <shininess>
              <float>0.06598803534436781</float>
            </shininess>
            <reflective>
              <color>0.0 0.0 0.0 1.0</color>
            </reflective>
            <reflectivity>
              <float>0.0</float>
            </reflectivity>
            <transparent>
              <color>0.0 0.0 0.0 1.0</color>
            </transparent>
            <transparency>
              <float>1.0</float>
            </transparency>
          </phong>
        </technique>
        <extra>
          <technique profile="GOOGLEEARTH">
            <double_sided>0</double_sided>
          </technique>
        </extra>
      </profile_COMMON>
    </effect>
    <effect id="b6c09a67d7284eb1878f096e0ced316f" name="b6c09a67d7284eb1878f096e0ced316f">
      <profile_COMMON>
        <technique sid="common">
          <phong>
            <ambient>
              <color>0.0 0.0 0.0 1.0</color>
            </ambient>
            <diffuse>
              <color>0.2196078431372549 0.2196078431372549 0.23921568627450981 1.0</color>
            </diffuse>
            <specular>
              <color>1.0 1.0 1.0 1.0</color>
            </specular>
            <shininess>
              <float>0.06598803534436781</float>
            </shininess>
            <reflective>
              <color>0.0 0.0 0.0 1.0</color>
            </reflective>
            <reflectivity>
              <float>0.0</float>
            </reflectivity>
            <transparent>
              <color>0.0 0.0 0.0 1.0</color>
            </transparent>
            <transparency>
              <float>1.0</float>
            </transparency>
          </phong>
        </technique>
        <extra>
          <technique profile="GOOGLEEARTH">
            <double_sided>0</double_sided>
          </technique>
        </extra>
      </profile_COMMON>
    </effect>
  </library_effects>
  <library_geometries>
    <geometry id="36623581b3b842cca993e7cf5d568d42" name="3fc3b2fc57be49d1b9f352c1f335433e">
      <mesh>
        <source id="verts-array">
          <float_array count="54" id="verts-array-array">0.014 0.051 0 0.01 0.051 -0.0024 0.014 0.0513 0 0.01 0.0513 -0.0024 0.01 0.051 -0.0024 0.01 0.051 0.0024 0.01 0.0513 -0.0024 0.01 0.0513 0.0024 0.01 0.051 0.0024 0.014 0.051 0 0.01 0.0513 0.0024 0.014 0.0513 0 0.01 0.051 -0.0024 0.014 0.051 0 0.01 0.051 0.0024 0.014 0.0513 0 0.01 0.0513 -0.0024 0.01 0.0513 0.0024</float_array>
          <technique_common>
            <accessor count="18" source="#verts-array-array" stride="3">
              <param type="float" name="X"/>
              <param type="float" name="Y"/>
              <param type="float" name="Z"/>
            </accessor>
          </technique_common>
        </source>
        <source id="normals-array">
          <float_array count="54" id="normals-array-array">0.5144957 0 -0.857493 0.5144957 0 -0.857493 0.5144957 0 -0.857493 0.5144957 0 -0.857493 -1 0 0 -1 0 0 -1 0 0 -1 0 0 0.5144957 0 0.857493 0.5144957 0 0.857493 0.5144957 0 0.857493 0.5144957 0 0.857493 0 -1 0 0 -1 0 0 -1 0 0 1 0 0 1 0 0 1 0</float_array>
          <technique_common>
            <accessor count="18" source="#normals-array-array" stride="3">
              <param type="float" name="X"/>
              <param type="float" name="Y"/>
              <param type="float" name="Z"/>
            </accessor>
          </technique_common>
        </source>
        <vertices id="verts-array-vertices">
          <input semantic="POSITION" source="#verts-array"/>
        </vertices>
        <triangles count="8" material="material0">
          <input offset="0" semantic="VERTEX" source="#verts-array-vertices"/>
          <input offset="1" semantic="NORMAL" source="#normals-array"/>
          <p>0 0 1 1 2 2 2 2 1 1 3 3 4 4 5 5 6 6 6 6 5 5 7 7 8 8 9 9 10 10 10 10 9 9 11 11 12 12 13 13 14 14 15 15 16 16 17 17</p>
        </triangles>
      </mesh>
    </geometry>
    <geometry id="2d3242262b324d5aba726c02b2e9b710" name="7f8c8ed4bb794158a8410a1eaccaf1e1">
      <mesh>
        <source id="verts-array">
          <float_array count="1806" id="verts-array-array">0.02378406 0.036 -0.00666398 0.0247 0.036 6.049755e-18 0.0247 0.0195 6.049755e-18 0.02378406 0.0195 -0.00666398 0.02110416 0.036 -0.01283372 0.02378406 0.0195 -0.00666398 0.02110416 0.0195 -0.01283372 0.02378406 0.036 -0.00666398 0.01685906 0.036 -0.01805165 0.02110416 0.0195 -0.01283372 0.01685906 0.0195 -0.01805165 0.01685906 0.036 -0.01805165 0.01685906 0.0195 -0.01805165 0.01136361 0.0195 -0.02193077 0.02110416 0.036 -0.01283372 0.01136361 0.036 -0.02193077 0.005025364 0.036 -0.02418338 0.01136361 0.0195 -0.02193077 0.005025364 0.0195 -0.02418338 0.01136361 0.036 -0.02193077 -0.001685588 0.036 -0.02464242 0.005025364 0.0195 -0.02418338 -0.001685588 0.0195 -0.02464242 -0.001685588 0.036 -0.02464242 -0.001685588 0.0195 -0.02464242 -0.008271527 0.0195 -0.02327385 0.005025364 0.036 -0.02418338 -0.008271527 0.036 -0.02327385 -0.008271527 0.0195 -0.02327385 -0.014244 0.0195 -0.02017916 -0.008271527 0.036 -0.02327385 -0.014244 0.036 -0.02017916 -0.01916007 0.036 -0.01558787 -0.014244 0.0195 -0.02017916 -0.01916007 0.0195 -0.01558787 -0.01916007 0.036 -0.01558787 -0.01916007 0.0195 -0.01558787 -0.02265512 0.0195 -0.009840506 -0.014244 0.036 -0.02017916 -0.02265512 0.036 -0.009840506 -0.02446994 0.036 -0.003363316 -0.02265512 0.0195 -0.009840506 -0.02446994 0.0195 -0.003363316 -0.02265512 0.036 -0.009840506 -0.02446994 0.036 0.003363316 -0.02446994 0.0195 -0.003363316 -0.02446994 0.0195 0.003363316 -0.02446994 0.036 -0.003363316 -0.02265512 0.036 0.009840506 -0.02446994 0.036 0.003363316 -0.02446994 0.0195 0.003363316 -0.02265512 0.0195 0.009840506 -0.02265512 0.036 0.009840506 -0.02265512 0.0195 0.009840506 -0.01916007 0.0195 0.01558787 -0.01916007 0.036 0.01558787 -0.01916007 0.0195 0.01558787 -0.014244 0.0195 0.02017916 -0.01916007 0.036 0.01558787 -0.014244 0.036 0.02017916 -0.014244 0.036 0.02017916 -0.014244 0.0195 0.02017916 -0.008271527 0.0195 0.02327385 -0.008271527 0.036 0.02327385 -0.001685588 0.036 0.02464242 -0.008271527 0.036 0.02327385 -0.008271527 0.0195 0.02327385 -0.001685588 0.0195 0.02464242 0.005025364 0.036 0.02418338 -0.001685588 0.036 0.02464242 -0.001685588 0.0195 0.02464242 0.005025364 0.0195 0.02418338 0.01136361 0.036 0.02193077 0.005025364 0.036 0.02418338 0.005025364 0.0195 0.02418338 0.01136361 0.0195 0.02193077 0.01136361 0.036 0.02193077 0.01136361 0.0195 0.02193077 0.01685906 0.0195 0.01805165 0.01685906 0.036 0.01805165 0.02110416 0.036 0.01283372 0.01685906 0.036 0.01805165 0.01685906 0.0195 0.01805165 0.02110416 0.0195 0.01283372 0.02110416 0.036 0.01283372 0.02110416 0.0195 0.01283372 0.02378406 0.0195 0.00666398 0.02378406 0.036 0.00666398 0.0247 0.036 6.049755e-18 0.02378406 0.036 0.00666398 0.02378406 0.0195 0.00666398 0.0247 0.0195 6.049755e-18 -0.008271527 0.036 0.02327385 -0.02265512 0.036 0.009840506 -0.01916007 0.036 0.01558787 -0.014244 0.036 0.02017916 -0.02446994 0.036 -0.003363316 -0.02446994 0.036 0.003363316 0.005025364 0.036 0.02418338 -0.001685588 0.036 0.02464242 -0.01916007 0.036 -0.01558787 -0.02265512 0.036 -0.009840506 0.01136361 0.036 0.02193077 -0.008271527 0.036 -0.02327385 -0.014244 0.036 -0.02017916 0.02378406 0.036 0.00666398 0.01685906 0.036 0.01805165 0.02110416 0.036 0.01283372 0.005025364 0.036 -0.02418338 -0.001685588 0.036 -0.02464242 0.02378406 0.036 -0.00666398 0.0247 0.036 6.049755e-18 0.01685906 0.036 -0.01805165 0.02110416 0.036 -0.01283372 0.01136361 0.036 -0.02193077 -0.02265512 0.0195 0.009840506 -0.008271527 0.0195 0.02327385 -0.01916007 0.0195 0.01558787 -0.014244 0.0195 0.02017916 -0.02446994 0.0195 0.003363316 -0.02446994 0.0195 -0.003363316 0.005025364 0.0195 0.02418338 -0.001685588 0.0195 0.02464242 -0.02265512 0.0195 -0.009840506 -0.01916007 0.0195 -0.01558787 0.01136361 0.0195 0.02193077 -0.014244 0.0195 -0.02017916 -0.008271527 0.0195 -0.02327385 0.01685906 0.0195 0.01805165 0.02378406 0.0195 0.00666398 0.02110416 0.0195 0.01283372 -0.001685588 0.0195 -0.02464242 0.005025364 0.0195 -0.02418338 0.02378406 0.0195 -0.00666398 0.0247 0.0195 6.049755e-18 0.01685906 0.0195 -0.01805165 0.02110416 0.0195 -0.01283372 0.01136361 0.0195 -0.02193077 0.02378406 0.036 -0.00666398 0.022 0.0375 5.388446e-18 0.0247 0.036 6.049755e-18 0.0210226 0.0375 -0.006484614 0.022 0.0375 5.388446e-18 0.02378406 0.036 -0.00666398 0.02110416 0.036 -0.01283372 0.0210226 0.0375 -0.006484614 0.02378406 0.036 -0.00666398 0.01817725 0.0375 -0.01239304 0.0210226 0.0375 -0.006484614 0.02110416 0.036 -0.01283372 0.01685906 0.036 -0.01805165 0.01817725 0.0375 -0.01239304 0.02110416 0.036 -0.01283372 0.01371678 0.0375 -0.01720029 0.01817725 0.0375 -0.01239304 0.01685906 0.036 -0.01805165 0.01136361 0.036 -0.02193077 0.01371678 0.0375 -0.01720029 0.01685906 0.036 -0.01805165 0.008037502 0.0375 -0.02047922 0.01371678 0.0375 -0.01720029 0.01136361 0.036 -0.02193077 0.005025364 0.036 -0.02418338 0.008037502 0.0375 -0.02047922 0.01136361 0.036 -0.02193077 0.001644062 0.0375 -0.02193848 0.008037502 0.0375 -0.02047922 0.005025364 0.036 -0.02418338 -0.001685588 0.036 -0.02464242 0.001644062 0.0375 -0.02193848 0.005025364 0.036 -0.02418338 -0.004895461 0.0375 -0.02144841 -0.001685588 0.036 -0.02464242 -0.008271527 0.036 -0.02327385 -0.004895461 0.0375 -0.02144841 0.001644062 0.0375 -0.02193848 -0.001685588 0.036 -0.02464242 -0.011 0.0375 -0.01905256 -0.008271527 0.036 -0.02327385 -0.014244 0.036 -0.02017916 -0.011 0.0375 -0.01905256 -0.004895461 0.0375 -0.02144841 -0.008271527 0.036 -0.02327385 -0.01612714 0.0375 -0.0149638 -0.014244 0.036 -0.02017916 -0.01916007 0.036 -0.01558787 -0.01612714 0.0375 -0.0149638 -0.011 0.0375 -0.01905256 -0.014244 0.036 -0.02017916 -0.01982132 0.0375 -0.009545443 -0.01916007 0.036 -0.01558787 -0.02265512 0.036 -0.009840506 -0.01982132 0.0375 -0.009545443 -0.01612714 0.0375 -0.0149638 -0.01916007 0.036 -0.01558787 -0.02175428 0.0375 -0.00327893 -0.02265512 0.036 -0.009840506 -0.02446994 0.036 -0.003363316 -0.02175428 0.0375 -0.00327893 -0.01982132 0.0375 -0.009545443 -0.02265512 0.036 -0.009840506 -0.02175428 0.0375 0.00327893 -0.02446994 0.036 -0.003363316 -0.02446994 0.036 0.003363316 -0.02175428 0.0375 -0.00327893 -0.02265512 0.036 0.009840506 -0.02175428 0.0375 0.00327893 -0.02446994 0.036 0.003363316 -0.01982132 0.0375 0.009545443 -0.02175428 0.0375 0.00327893 -0.02265512 0.036 0.009840506 -0.01916007 0.036 0.01558787 -0.01982132 0.0375 0.009545443 -0.02265512 0.036 0.009840506 -0.01612714 0.0375 0.0149638 -0.01982132 0.0375 0.009545443 -0.01916007 0.036 0.01558787 -0.014244 0.036 0.02017916 -0.01612714 0.0375 0.0149638 -0.01916007 0.036 0.01558787 -0.011 0.0375 0.01905256 -0.01612714 0.0375 0.0149638 -0.014244 0.036 0.02017916 -0.008271527 0.036 0.02327385 -0.011 0.0375 0.01905256 -0.014244 0.036 0.02017916 -0.004895461 0.0375 0.02144841 -0.011 0.0375 0.01905256 -0.008271527 0.036 0.02327385 -0.001685588 0.036 0.02464242 -0.004895461 0.0375 0.02144841 -0.008271527 0.036 0.02327385 0.001644062 0.0375 0.02193848 -0.004895461 0.0375 0.02144841 -0.001685588 0.036 0.02464242 0.001644062 0.0375 0.02193848 -0.001685588 0.036 0.02464242 0.005025364 0.036 0.02418338 0.008037502 0.0375 0.02047922 0.001644062 0.0375 0.02193848 0.005025364 0.036 0.02418338 0.008037502 0.0375 0.02047922 0.005025364 0.036 0.02418338 0.01136361 0.036 0.02193077 0.01371678 0.0375 0.01720029 0.008037502 0.0375 0.02047922 0.01136361 0.036 0.02193077 0.01371678 0.0375 0.01720029 0.01136361 0.036 0.02193077 0.01685906 0.036 0.01805165 0.01817725 0.0375 0.01239304 0.01371678 0.0375 0.01720029 0.01685906 0.036 0.01805165 0.01817725 0.0375 0.01239304 0.01685906 0.036 0.01805165 0.02110416 0.036 0.01283372 0.0210226 0.0375 0.006484614 0.01817725 0.0375 0.01239304 0.02110416 0.036 0.01283372 0.0210226 0.0375 0.006484614 0.02110416 0.036 0.01283372 0.02378406 0.036 0.00666398 0.022 0.0375 5.388446e-18 0.0210226 0.0375 0.006484614 0.02378406 0.036 0.00666398 0.022 0.0375 5.388446e-18 0.02378406 0.036 0.00666398 0.0247 0.036 6.049755e-18 -0.004895461 0.0375 0.02144841 -0.01612714 0.0375 0.0149638 -0.011 0.0375 0.01905256 -0.02175428 0.0375 -0.00327893 -0.02175428 0.0375 0.00327893 -0.01982132 0.0375 0.009545443 0.01371678 0.0375 0.01720029 0.001644062 0.0375 0.02193848 0.008037502 0.0375 0.02047922 -0.01612714 0.0375 -0.0149638 -0.01982132 0.0375 -0.009545443 -0.011 0.0375 -0.01905256 0.022 0.0375 5.388446e-18 0.01817725 0.0375 0.01239304 0.0210226 0.0375 0.006484614 0.0210226 0.0375 -0.006484614 0.01371678 0.0375 -0.01720029 0.01817725 0.0375 -0.01239304 0.008037502 0.0375 -0.02047922 0.001644062 0.0375 -0.02193848 -0.004895461 0.0375 -0.02144841 -0.02265512 0.036 0.009840506 -0.008271527 0.036 0.02327385 -0.01916007 0.036 0.01558787 -0.014244 0.036 0.02017916 -0.02446994 0.036 0.003363316 -0.02446994 0.036 -0.003363316 0.005025364 0.036 0.02418338 -0.001685588 0.036 0.02464242 -0.02265512 0.036 -0.009840506 -0.01916007 0.036 -0.01558787 0.01136361 0.036 0.02193077 -0.014244 0.036 -0.02017916 -0.008271527 0.036 -0.02327385 0.01685906 0.036 0.01805165 0.02378406 0.036 0.00666398 0.02110416 0.036 0.01283372 -0.001685588 0.036 -0.02464242 0.005025364 0.036 -0.02418338 0.02378406 0.036 -0.00666398 0.0247 0.036 6.049755e-18 0.01685906 0.036 -0.01805165 0.02110416 0.036 -0.01283372 0.01136361 0.036 -0.02193077 0.0210226 0.0475 -0.006484614 0.022 0.0475 5.388446e-18 0.022 0.0375 5.388446e-18 0.0210226 0.0375 -0.006484614 0.0210226 0.0475 -0.006484614 0.0210226 0.0375 -0.006484614 0.01817725 0.0375 -0.01239304 0.01817725 0.0475 -0.01239304 0.01371678 0.0475 -0.01720029 0.01817725 0.0375 -0.01239304 0.01371678 0.0375 -0.01720029 0.01817725 0.0475 -0.01239304 0.008037502 0.0475 -0.02047922 0.01371678 0.0375 -0.01720029 0.008037502 0.0375 -0.02047922 0.01371678 0.0475 -0.01720029 0.001644062 0.0475 -0.02193848 0.008037502 0.0375 -0.02047922 0.001644062 0.0375 -0.02193848 0.008037502 0.0475 -0.02047922 -0.004895461 0.0475 -0.02144841 0.001644062 0.0375 -0.02193848 -0.004895461 0.0375 -0.02144841 0.001644062 0.0475 -0.02193848 -0.011 0.0475 -0.01905256 -0.004895461 0.0375 -0.02144841 -0.011 0.0375 -0.01905256 -0.004895461 0.0475 -0.02144841 -0.01612714 0.0475 -0.0149638 -0.011 0.0375 -0.01905256 -0.01612714 0.0375 -0.0149638 -0.011 0.0475 -0.01905256 -0.01982132 0.0475 -0.009545443 -0.01612714 0.0375 -0.0149638 -0.01982132 0.0375 -0.009545443 -0.01612714 0.0475 -0.0149638 -0.02175428 0.0475 -0.00327893 -0.01982132 0.0375 -0.009545443 -0.02175428 0.0375 -0.00327893 -0.01982132 0.0475 -0.009545443 -0.02175428 0.0475 0.00327893 -0.02175428 0.0375 -0.00327893 -0.02175428 0.0375 0.00327893 -0.02175428 0.0475 0.00327893 -0.02175428 0.0375 0.00327893 -0.01982132 0.0375 0.009545443 -0.02175428 0.0475 -0.00327893 -0.01982132 0.0475 0.009545443 -0.01612714 0.0475 0.0149638 -0.01982132 0.0375 0.009545443 -0.01612714 0.0375 0.0149638 -0.01612714 0.0475 0.0149638 -0.01612714 0.0375 0.0149638 -0.011 0.0375 0.01905256 -0.01982132 0.0475 0.009545443 -0.011 0.0475 0.01905256 -0.004895461 0.0475 0.02144841 -0.011 0.0475 0.01905256 -0.011 0.0375 0.01905256 -0.004895461 0.0375 0.02144841 0.001644062 0.0475 0.02193848 -0.004895461 0.0475 0.02144841 -0.004895461 0.0375 0.02144841 0.001644062 0.0375 0.02193848 0.001644062 0.0475 0.02193848 0.001644062 0.0375 0.02193848 0.008037502 0.0375 0.02047922 0.008037502 0.0475 0.02047922 0.01371678 0.0475 0.01720029 0.008037502 0.0475 0.02047922 0.008037502 0.0375 0.02047922 0.01371678 0.0375 0.01720029 0.01817725 0.0475 0.01239304 0.01371678 0.0475 0.01720029 0.01371678 0.0375 0.01720029 0.01817725 0.0375 0.01239304 0.01817725 0.0475 0.01239304 0.01817725 0.0375 0.01239304 0.0210226 0.0375 0.006484614 0.0210226 0.0475 0.006484614 0.022 0.0475 5.388446e-18 0.0210226 0.0475 0.006484614 0.0210226 0.0375 0.006484614 0.022 0.0375 5.388446e-18 -0.004895461 0.0475 0.02144841 -0.01612714 0.0475 0.0149638 -0.011 0.0475 0.01905256 -0.02175428 0.0475 -0.00327893 -0.02175428 0.0475 0.00327893 -0.01982132 0.0475 0.009545443 0.01371678 0.0475 0.01720029 0.001644062 0.0475 0.02193848 0.008037502 0.0475 0.02047922 -0.01612714 0.0475 -0.0149638 -0.01982132 0.0475 -0.009545443 -0.011 0.0475 -0.01905256 0.022 0.0475 5.388446e-18 0.01817725 0.0475 0.01239304 0.0210226 0.0475 0.006484614 0.0210226 0.0475 -0.006484614 0.01371678 0.0475 -0.01720029 0.01817725 0.0475 -0.01239304 0.008037502 0.0475 -0.02047922 0.001644062 0.0475 -0.02193848 -0.004895461 0.0475 -0.02144841 -0.01612714 0.0375 0.0149638 -0.004895461 0.0375 0.02144841 -0.011 0.0375 0.01905256 -0.02175428 0.0375 0.00327893 -0.02175428 0.0375 -0.00327893 -0.01982132 0.0375 0.009545443 0.01371678 0.0375 0.01720029 0.001644062 0.0375 0.02193848 0.008037502 0.0375 0.02047922 -0.01982132 0.0375 -0.009545443 -0.01612714 0.0375 -0.0149638 -0.011 0.0375 -0.01905256 0.01817725 0.0375 0.01239304 0.022 0.0375 5.388446e-18 0.0210226 0.0375 0.006484614 0.0210226 0.0375 -0.006484614 0.01371678 0.0375 -0.01720029 0.01817725 0.0375 -0.01239304 0.008037502 0.0375 -0.02047922 0.001644062 0.0375 -0.02193848 -0.004895461 0.0375 -0.02144841 0.0210226 0.0475 -0.006484614 0.0184 0.051 4.5067e-18 0.022 0.0475 5.388446e-18 0.01749944 0.051 -0.005685912 0.0184 0.051 4.5067e-18 0.0210226 0.0475 -0.006484614 0.01817725 0.0475 -0.01239304 0.01749944 0.051 -0.005685912 0.0210226 0.0475 -0.006484614 0.01488591 0.051 -0.01081525 0.01749944 0.051 -0.005685912 0.01817725 0.0475 -0.01239304 0.01371678 0.0475 -0.01720029 0.01488591 0.051 -0.01081525 0.01817725 0.0475 -0.01239304 0.01081525 0.051 -0.01488591 0.01488591 0.051 -0.01081525 0.01371678 0.0475 -0.01720029 0.008037502 0.0475 -0.02047922 0.01081525 0.051 -0.01488591 0.01371678 0.0475 -0.01720029 0.005685912 0.051 -0.01749944 0.008037502 0.0475 -0.02047922 0.001644062 0.0475 -0.02193848 0.005685912 0.051 -0.01749944 0.01081525 0.051 -0.01488591 0.008037502 0.0475 -0.02047922 1.126675e-18 0.051 -0.0184 0.001644062 0.0475 -0.02193848 -0.004895461 0.0475 -0.02144841 1.126675e-18 0.051 -0.0184 0.005685912 0.051 -0.01749944 0.001644062 0.0475 -0.02193848 -0.005685912 0.051 -0.01749944 -0.004895461 0.0475 -0.02144841 -0.011 0.0475 -0.01905256 -0.005685912 0.051 -0.01749944 1.126675e-18 0.051 -0.0184 -0.004895461 0.0475 -0.02144841 -0.01081525 0.051 -0.01488591 -0.011 0.0475 -0.01905256 -0.01612714 0.0475 -0.0149638 -0.01081525 0.051 -0.01488591 -0.005685912 0.051 -0.01749944 -0.011 0.0475 -0.01905256 -0.01488591 0.051 -0.01081525 -0.01612714 0.0475 -0.0149638 -0.01982132 0.0475 -0.009545443 -0.01488591 0.051 -0.01081525 -0.01081525 0.051 -0.01488591 -0.01612714 0.0475 -0.0149638 -0.01749944 0.051 -0.005685912 -0.01982132 0.0475 -0.009545443 -0.02175428 0.0475 -0.00327893 -0.01749944 0.051 -0.005685912 -0.01488591 0.051 -0.01081525 -0.01982132 0.0475 -0.009545443 -0.0184 0.051 -2.25335e-18 -0.02175428 0.0475 -0.00327893 -0.02175428 0.0475 0.00327893 -0.0184 0.051 -2.25335e-18 -0.01749944 0.051 -0.005685912 -0.02175428 0.0475 -0.00327893 -0.01749944 0.051 0.005685912 -0.02175428 0.0475 0.00327893 -0.01982132 0.0475 0.009545443 -0.01749944 0.051 0.005685912 -0.0184 0.051 -2.25335e-18 -0.02175428 0.0475 0.00327893 -0.01488591 0.051 0.01081525 -0.01982132 0.0475 0.009545443 -0.01612714 0.0475 0.0149638 -0.01488591 0.051 0.01081525 -0.01749944 0.051 0.005685912 -0.01982132 0.0475 0.009545443 -0.01081525 0.051 0.01488591 -0.01612714 0.0475 0.0149638 -0.011 0.0475 0.01905256 -0.01081525 0.051 0.01488591 -0.01488591 0.051 0.01081525 -0.01612714 0.0475 0.0149638 -0.005685912 0.051 0.01749944 -0.011 0.0475 0.01905256 -0.004895461 0.0475 0.02144841 -0.005685912 0.051 0.01749944 -0.01081525 0.051 0.01488591 -0.011 0.0475 0.01905256 -3.380025e-18 0.051 0.0184 -0.005685912 0.051 0.01749944 -0.004895461 0.0475 0.02144841 -3.380025e-18 0.051 0.0184 -0.004895461 0.0475 0.02144841 0.001644062 0.0475 0.02193848 0.005685912 0.051 0.01749944 -3.380025e-18 0.051 0.0184 0.001644062 0.0475 0.02193848 0.005685912 0.051 0.01749944 0.001644062 0.0475 0.02193848 0.008037502 0.0475 0.02047922 0.01081525 0.051 0.01488591 0.005685912 0.051 0.01749944 0.008037502 0.0475 0.02047922 0.01081525 0.051 0.01488591 0.008037502 0.0475 0.02047922 0.01371678 0.0475 0.01720029 0.01488591 0.051 0.01081525 0.01081525 0.051 0.01488591 0.01371678 0.0475 0.01720029 0.01488591 0.051 0.01081525 0.01371678 0.0475 0.01720029 0.01817725 0.0475 0.01239304 0.01749944 0.051 0.005685912 0.01488591 0.051 0.01081525 0.01817725 0.0475 0.01239304 0.01749944 0.051 0.005685912 0.01817725 0.0475 0.01239304 0.0210226 0.0475 0.006484614 0.0184 0.051 4.5067e-18 0.01749944 0.051 0.005685912 0.0210226 0.0475 0.006484614 0.0184 0.051 4.5067e-18 0.0210226 0.0475 0.006484614 0.022 0.0475 5.388446e-18 -0.01749944 0.051 0.005685912 -0.01488591 0.051 0.01081525 -0.01081525 0.051 0.01488591 -0.005685912 0.051 0.01749944 -0.01749944 0.051 -0.005685912 -0.0184 0.051 -2.25335e-18 0.01081525 0.051 0.01488591 -3.380025e-18 0.051 0.0184 0.005685912 0.051 0.01749944 1.126675e-18 0.051 -0.0184 -0.005685912 0.051 -0.01749944 -0.01081525 0.051 -0.01488591 -0.01488591 0.051 -0.01081525 0.01488591 0.051 0.01081525 0.01749944 0.051 0.005685912 0.01488591 0.051 -0.01081525 0.0184 0.051 4.5067e-18 0.01749944 0.051 -0.005685912 0.01081525 0.051 -0.01488591 0.005685912 0.051 -0.01749944 -0.01612714 0.0475 0.0149638 -0.004895461 0.0475 0.02144841 -0.011 0.0475 0.01905256 -0.02175428 0.0475 0.00327893 -0.02175428 0.0475 -0.00327893 -0.01982132 0.0475 0.009545443 0.01371678 0.0475 0.01720029 0.001644062 0.0475 0.02193848 0.008037502 0.0475 0.02047922 -0.01982132 0.0475 -0.009545443 -0.01612714 0.0475 -0.0149638 -0.011 0.0475 -0.01905256 0.01817725 0.0475 0.01239304 0.022 0.0475 5.388446e-18 0.0210226 0.0475 0.006484614 0.0210226 0.0475 -0.006484614 0.01371678 0.0475 -0.01720029 0.01817725 0.0475 -0.01239304 0.008037502 0.0475 -0.02047922 0.001644062 0.0475 -0.02193848 -0.004895461 0.0475 -0.02144841</float_array>
          <technique_common>
            <accessor count="602" source="#verts-array-array" stride="3">
              <param type="float" name="X"/>
              <param type="float" name="Y"/>
              <param type="float" name="Z"/>
            </accessor>
          </technique_common>
        </source>
        <source id="normals-array">
          <float_array count="1806" id="normals-array-array">0.990686 0 -0.1361663 0.990686 0 -0.1361663 0.990686 0 -0.1361663 0.990686 0 -0.1361663 0.9172111 0 -0.3984015 0.9172111 0 -0.3984015 0.9172111 0 -0.3984015 0.9172111 0 -0.3984015 0.7757113 0 -0.6310879 0.7757113 0 -0.6310879 0.7757113 0 -0.6310879 0.5766809 0 -0.8169695 0.5766809 0 -0.8169695 0.5766809 0 -0.8169695 0.7757113 0 -0.6310879 0.5766809 0 -0.8169695 0.3348793 0 -0.942261 0.3348793 0 -0.942261 0.3348793 0 -0.942261 0.3348793 0 -0.942261 0.0682421 0 -0.9976688 0.0682421 0 -0.9976688 0.0682421 0 -0.9976688 -0.2034554 0 -0.9790842 -0.2034554 0 -0.9790842 -0.2034554 0 -0.9790842 0.0682421 0 -0.9976688 -0.4600654 0 -0.887885 -0.4600654 0 -0.887885 -0.4600654 0 -0.887885 -0.2034554 0 -0.9790842 -0.4600654 0 -0.887885 -0.6825533 0 -0.7308358 -0.6825533 0 -0.7308358 -0.6825533 0 -0.7308358 -0.8544193 0 -0.5195841 -0.8544193 0 -0.5195841 -0.8544193 0 -0.5195841 -0.6825533 0 -0.7308358 -0.8544193 0 -0.5195841 -0.9629174 0 -0.2697963 -0.9629174 0 -0.2697963 -0.9629174 0 -0.2697963 -0.9629174 0 -0.2697963 -1 0 0 -1 0 0 -1 0 0 -1 0 0 -0.9629174 0 0.2697963 -0.9629174 0 0.2697963 -0.9629174 0 0.2697963 -0.9629174 0 0.2697963 -0.8544193 0 0.5195841 -0.8544193 0 0.5195841 -0.8544193 0 0.5195841 -0.6825533 0 0.7308358 -0.6825533 0 0.7308358 -0.6825533 0 0.7308358 -0.8544193 0 0.5195841 -0.6825533 0 0.7308358 -0.4600654 0 0.887885 -0.4600654 0 0.887885 -0.4600654 0 0.887885 -0.4600654 0 0.887885 -0.2034554 0 0.9790842 -0.2034554 0 0.9790842 -0.2034554 0 0.9790842 -0.2034554 0 0.9790842 0.0682421 0 0.9976688 0.0682421 0 0.9976688 0.0682421 0 0.9976688 0.0682421 0 0.9976688 0.3348793 0 0.942261 0.3348793 0 0.942261 0.3348793 0 0.942261 0.3348793 0 0.942261 0.5766809 0 0.8169695 0.5766809 0 0.8169695 0.5766809 0 0.8169695 0.5766809 0 0.8169695 0.7757113 0 0.6310879 0.7757113 0 0.6310879 0.7757113 0 0.6310879 0.7757113 0 0.6310879 0.9172111 0 0.3984015 0.9172111 0 0.3984015 0.9172111 0 0.3984015 0.9172111 0 0.3984015 0.990686 0 0.1361663 0.990686 0 0.1361663 0.990686 0 0.1361663 0.990686 0 0.1361663 0 1 0 0 1 0 0 1 0 0 1 0 0 1 0 0 1 0 0 1 0 0 1 0 0 1 0 0 1 0 0 1 0 0 1 0 0 1 0 0 1 0 0 1 0 0 1 0 0 1 0 0 1 0 0 1 0 0 1 0 0 1 0 0 1 0 0 1 0 0 -1 0 0 -1 0 0 -1 0 0 -1 0 0 -1 0 0 -1 0 0 -1 0 0 -1 0 0 -1 0 0 -1 0 0 -1 0 0 -1 0 0 -1 0 0 -1 0 0 -1 0 0 -1 0 0 -1 0 0 -1 0 0 -1 0 0 -1 0 0 -1 0 0 -1 0 0 -1 0 0.4845652 0.872216 -0.06660181 0.4845652 0.872216 -0.06660181 0.4845652 0.872216 -0.06660181 0.4725307 0.8784316 -0.07122272 0.4725307 0.8784316 -0.07122272 0.4725307 0.8784316 -0.07122272 0.4577833 0.8665424 -0.1988436 0.4577833 0.8665424 -0.1988436 0.4577833 0.8665424 -0.1988436 0.4221433 0.8834403 -0.2032936 0.4221433 0.8834403 -0.2032936 0.4221433 0.8834403 -0.2032936 0.3934686 0.8618073 -0.3201104 0.3934686 0.8618073 -0.3201104 0.3934686 0.8618073 -0.3201104 0.3383889 0.8870797 -0.3139787 0.3383889 0.8870797 -0.3139787 0.3383889 0.8870797 -0.3139787 0.2960358 0.8581828 -0.4193865 0.2960358 0.8581828 -0.4193865 0.2960358 0.8581828 -0.4193865 0.2284597 0.8895081 -0.3957039 0.2284597 0.8895081 -0.3957039 0.2284597 0.8895081 -0.3957039 0.1732317 0.8558065 -0.4874279 0.1732317 0.8558065 -0.4874279 0.1732317 0.8558065 -0.4874279 0.1011013 0.8908256 -0.4429541 0.1011013 0.8908256 -0.4429541 0.1011013 0.8908256 -0.4429541 0.03541805 0.8547707 -0.5177959 0.03541805 0.8547707 -0.5177959 0.03541805 0.8547707 -0.5177959 -0.1054783 0.8551174 -0.5075909 -0.1054783 0.8551174 -0.5075909 -0.1054783 0.8551174 -0.5075909 -0.03391515 0.8910865 -0.4525646 -0.03391515 0.8910865 -0.4525646 -0.03391515 0.8910865 -0.4525646 -0.2372081 0.8568316 -0.4577903 -0.2372081 0.8568316 -0.4577903 -0.2372081 0.8568316 -0.4577903 -0.1663657 0.8903013 -0.4238939 -0.1663657 0.8903013 -0.4238939 -0.1663657 0.8903013 -0.4238939 -0.3484793 0.8598466 -0.37313 -0.3484793 0.8598466 -0.37313 -0.3484793 0.8598466 -0.37313 -0.2861803 0.8884376 -0.3588585 -0.2861803 0.8884376 -0.3588585 -0.2861803 0.8884376 -0.3588585 -0.4301264 0.8640455 -0.2615658 -0.4301264 0.8640455 -0.2615658 -0.4301264 0.8640455 -0.2615658 -0.3840292 0.8854197 -0.2618272 -0.3840292 0.8854197 -0.2618272 -0.3840292 0.8854197 -0.2618272 -0.4760012 0.869273 -0.133369 -0.4760012 0.869273 -0.133369 -0.4760012 0.869273 -0.133369 -0.4518853 0.881119 -0.1393879 -0.4518853 0.881119 -0.1393879 -0.4518853 0.881119 -0.1393879 -0.4834993 0.8753448 0 -0.4834993 0.8753448 0 -0.4834993 0.8753448 0 -0.4834993 0.8753448 0 -0.4760012 0.869273 0.133369 -0.4760012 0.869273 0.133369 -0.4760012 0.869273 0.133369 -0.4518853 0.881119 0.1393879 -0.4518853 0.881119 0.1393879 -0.4518853 0.881119 0.1393879 -0.4301264 0.8640455 0.2615658 -0.4301264 0.8640455 0.2615658 -0.4301264 0.8640455 0.2615658 -0.3840292 0.8854197 0.2618272 -0.3840292 0.8854197 0.2618272 -0.3840292 0.8854197 0.2618272 -0.3484793 0.8598466 0.37313 -0.3484793 0.8598466 0.37313 -0.3484793 0.8598466 0.37313 -0.2861803 0.8884376 0.3588585 -0.2861803 0.8884376 0.3588585 -0.2861803 0.8884376 0.3588585 -0.2372081 0.8568316 0.4577903 -0.2372081 0.8568316 0.4577903 -0.2372081 0.8568316 0.4577903 -0.1663657 0.8903013 0.4238939 -0.1663657 0.8903013 0.4238939 -0.1663657 0.8903013 0.4238939 -0.1054783 0.8551174 0.5075909 -0.1054783 0.8551174 0.5075909 -0.1054783 0.8551174 0.5075909 -0.03391515 0.8910865 0.4525646 -0.03391515 0.8910865 0.4525646 -0.03391515 0.8910865 0.4525646 0.03541805 0.8547707 0.5177959 0.03541805 0.8547707 0.5177959 0.03541805 0.8547707 0.5177959 0.1011013 0.8908256 0.4429541 0.1011013 0.8908256 0.4429541 0.1011013 0.8908256 0.4429541 0.1732317 0.8558065 0.4874279 0.1732317 0.8558065 0.4874279 0.1732317 0.8558065 0.4874279 0.2284597 0.8895081 0.3957039 0.2284597 0.8895081 0.3957039 0.2284597 0.8895081 0.3957039 0.2960358 0.8581828 0.4193865 0.2960358 0.8581828 0.4193865 0.2960358 0.8581828 0.4193865 0.3383889 0.8870797 0.3139787 0.3383889 0.8870797 0.3139787 0.3383889 0.8870797 0.3139787 0.3934686 0.8618073 0.3201104 0.3934686 0.8618073 0.3201104 0.3934686 0.8618073 0.3201104 0.4221433 0.8834403 0.2032936 0.4221433 0.8834403 0.2032936 0.4221433 0.8834403 0.2032936 0.4577833 0.8665424 0.1988436 0.4577833 0.8665424 0.1988436 0.4577833 0.8665424 0.1988436 0.4725307 0.8784316 0.07122272 0.4725307 0.8784316 0.07122272 0.4725307 0.8784316 0.07122272 0.4845652 0.872216 0.06660181 0.4845652 0.872216 0.06660181 0.4845652 0.872216 0.06660181 0 1 0 0 1 0 0 1 0 0 1 0 0 1 0 0 1 0 0 1 0 0 1 0 0 1 0 0 1 0 0 1 0 0 1 0 0 1 0 0 1 0 0 1 0 0 1 0 0 1 0 0 1 0 0 1 0 0 1 0 0 1 0 0 -1 0 0 -1 0 0 -1 0 0 -1 0 0 -1 0 0 -1 0 0 -1 0 0 -1 0 0 -1 0 0 -1 0 0 -1 0 0 -1 0 0 -1 0 0 -1 0 0 -1 0 0 -1 0 0 -1 0 0 -1 0 0 -1 0 0 -1 0 0 -1 0 0 -1 0 0 -1 0 0.9888308 0 -0.1490426 0.9888308 0 -0.1490426 0.9888308 0 -0.1490426 0.9888308 0 -0.1490426 0.9009688 0 -0.4338839 0.9009688 0 -0.4338839 0.9009688 0 -0.4338839 0.9009688 0 -0.4338839 0.7330523 0 -0.6801723 0.7330523 0 -0.6801723 0.7330523 0 -0.6801723 0.7330523 0 -0.6801723 0.4999999 0 -0.8660255 0.4999999 0 -0.8660255 0.4999999 0 -0.8660255 0.4999999 0 -0.8660255 0.2225207 0 -0.974928 0.2225207 0 -0.974928 0.2225207 0 -0.974928 0.2225207 0 -0.974928 -0.07473036 0 -0.9972038 -0.07473036 0 -0.9972038 -0.07473036 0 -0.9972038 -0.07473036 0 -0.9972038 -0.3653403 0 -0.930874 -0.3653403 0 -0.930874 -0.3653403 0 -0.930874 -0.3653403 0 -0.930874 -0.62349 0 -0.7818313 -0.62349 0 -0.7818313 -0.62349 0 -0.7818313 -0.62349 0 -0.7818313 -0.8262383 0 -0.5633208 -0.8262383 0 -0.5633208 -0.8262383 0 -0.5633208 -0.8262383 0 -0.5633208 -0.9555729 0 -0.2947547 -0.9555729 0 -0.2947547 -0.9555729 0 -0.2947547 -0.9555729 0 -0.2947547 -1 0 0 -1 0 0 -1 0 0 -0.9555729 0 0.2947547 -0.9555729 0 0.2947547 -0.9555729 0 0.2947547 -1 0 0 -0.9555729 0 0.2947547 -0.8262383 0 0.5633208 -0.8262383 0 0.5633208 -0.8262383 0 0.5633208 -0.62349 0 0.7818313 -0.62349 0 0.7818313 -0.62349 0 0.7818313 -0.8262383 0 0.5633208 -0.62349 0 0.7818313 -0.3653403 0 0.930874 -0.3653403 0 0.930874 -0.3653403 0 0.930874 -0.3653403 0 0.930874 -0.07473036 0 0.9972038 -0.07473036 0 0.9972038 -0.07473036 0 0.9972038 -0.07473036 0 0.9972038 0.2225207 0 0.974928 0.2225207 0 0.974928 0.2225207 0 0.974928 0.2225207 0 0.974928 0.4999999 0 0.8660255 0.4999999 0 0.8660255 0.4999999 0 0.8660255 0.4999999 0 0.8660255 0.7330523 0 0.6801723 0.7330523 0 0.6801723 0.7330523 0 0.6801723 0.7330523 0 0.6801723 0.9009688 0 0.4338839 0.9009688 0 0.4338839 0.9009688 0 0.4338839 0.9009688 0 0.4338839 0.9888308 0 0.1490426 0.9888308 0 0.1490426 0.9888308 0 0.1490426 0.9888308 0 0.1490426 0 1 0 0 1 0 0 1 0 0 1 0 0 1 0 0 1 0 0 1 0 0 1 0 0 1 0 0 1 0 0 1 0 0 1 0 0 1 0 0 1 0 0 1 0 0 1 0 0 1 0 0 1 0 0 1 0 0 1 0 0 1 0 0 -1 0 0 -1 0 0 -1 0 0 -1 0 0 -1 0 0 -1 0 0 -1 0 0 -1 0 0 -1 0 0 -1 0 0 -1 0 0 -1 0 0 -1 0 0 -1 0 0 -1 0 0 -1 0 0 -1 0 0 -1 0 0 -1 0 0 -1 0 0 -1 0 0.6932624 0.7130698 -0.1044927 0.6932624 0.7130698 -0.1044927 0.6932624 0.7130698 -0.1044927 0.6880314 0.7174521 -0.1089736 0.6880314 0.7174521 -0.1089736 0.6880314 0.7174521 -0.1089736 0.6351908 0.7091987 -0.3058919 0.6351908 0.7091987 -0.3058919 0.6351908 0.7091987 -0.3058919 0.6167796 0.7216789 -0.3142651 0.6167796 0.7216789 -0.3142651 0.6167796 0.7216789 -0.3142651 0.5193918 0.7056775 -0.4819246 0.5193918 0.7056775 -0.4819246 0.5193918 0.7056775 -0.4819246 0.4867419 0.725372 -0.4867419 0.4867419 0.725372 -0.4867419 0.4867419 0.725372 -0.4867419 0.3558295 0.7025249 -0.616315 0.3558295 0.7025249 -0.616315 0.3558295 0.7025249 -0.616315 0.1589646 0.6997568 -0.6964702 0.1589646 0.6997568 -0.6964702 0.1589646 0.6997568 -0.6964702 0.3109782 0.7285543 -0.6103288 0.3109782 0.7285543 -0.6103288 0.3109782 0.7285543 -0.6103288 -0.05355875 0.6973885 -0.7146892 -0.05355875 0.6973885 -0.7146892 -0.05355875 0.6973885 -0.7146892 0.1067062 0.7312461 -0.6737157 0.1067062 0.7312461 -0.6737157 0.1067062 0.7312461 -0.6737157 -0.2625301 0.6954334 -0.6689173 -0.2625301 0.6954334 -0.6689173 -0.2625301 0.6954334 -0.6689173 -0.106333 0.7334646 -0.6713591 -0.106333 0.7334646 -0.6713591 -0.106333 0.7334646 -0.6713591 -0.4489562 0.6939018 -0.562973 -0.4489562 0.6939018 -0.562973 -0.4489562 0.6939018 -0.562973 -0.307726 0.7352239 -0.6039459 -0.307726 0.7352239 -0.6039459 -0.307726 0.7352239 -0.6039459 -0.5958238 0.6928016 -0.4062265 -0.5958238 0.6928016 -0.4062265 -0.5958238 0.6928016 -0.4062265 -0.4782879 0.7365333 -0.4782879 -0.4782879 0.7365333 -0.4782879 -0.4782879 0.7365333 -0.4782879 -0.6896983 0.6921391 -0.2127434 -0.6896983 0.6921391 -0.2127434 -0.6896983 0.6921391 -0.2127434 -0.6018334 0.7374026 -0.3066496 -0.6018334 0.7374026 -0.3066496 -0.6018334 0.7374026 -0.3066496 -0.7219766 0.6919175 0 -0.7219766 0.6919175 0 -0.7219766 0.6919175 0 -0.6666707 0.7378353 -0.1055904 -0.6666707 0.7378353 -0.1055904 -0.6666707 0.7378353 -0.1055904 -0.6896983 0.6921391 0.2127434 -0.6896983 0.6921391 0.2127434 -0.6896983 0.6921391 0.2127434 -0.6666707 0.7378353 0.1055904 -0.6666707 0.7378353 0.1055904 -0.6666707 0.7378353 0.1055904 -0.5958238 0.6928016 0.4062265 -0.5958238 0.6928016 0.4062265 -0.5958238 0.6928016 0.4062265 -0.6018334 0.7374026 0.3066496 -0.6018334 0.7374026 0.3066496 -0.6018334 0.7374026 0.3066496 -0.4489562 0.6939018 0.562973 -0.4489562 0.6939018 0.562973 -0.4489562 0.6939018 0.562973 -0.4782879 0.7365333 0.4782879 -0.4782879 0.7365333 0.4782879 -0.4782879 0.7365333 0.4782879 -0.2625301 0.6954334 0.6689173 -0.2625301 0.6954334 0.6689173 -0.2625301 0.6954334 0.6689173 -0.307726 0.7352239 0.6039459 -0.307726 0.7352239 0.6039459 -0.307726 0.7352239 0.6039459 -0.106333 0.7334646 0.6713591 -0.106333 0.7334646 0.6713591 -0.106333 0.7334646 0.6713591 -0.05355875 0.6973885 0.7146892 -0.05355875 0.6973885 0.7146892 -0.05355875 0.6973885 0.7146892 0.1067062 0.7312461 0.6737157 0.1067062 0.7312461 0.6737157 0.1067062 0.7312461 0.6737157 0.1589646 0.6997568 0.6964702 0.1589646 0.6997568 0.6964702 0.1589646 0.6997568 0.6964702 0.3109782 0.7285543 0.6103288 0.3109782 0.7285543 0.6103288 0.3109782 0.7285543 0.6103288 0.3558295 0.7025249 0.616315 0.3558295 0.7025249 0.616315 0.3558295 0.7025249 0.616315 0.4867419 0.725372 0.4867419 0.4867419 0.725372 0.4867419 0.4867419 0.725372 0.4867419 0.5193918 0.7056775 0.4819246 0.5193918 0.7056775 0.4819246 0.5193918 0.7056775 0.4819246 0.6167796 0.7216789 0.3142651 0.6167796 0.7216789 0.3142651 0.6167796 0.7216789 0.3142651 0.6351908 0.7091987 0.3058919 0.6351908 0.7091987 0.3058919 0.6351908 0.7091987 0.3058919 0.6880314 0.7174521 0.1089736 0.6880314 0.7174521 0.1089736 0.6880314 0.7174521 0.1089736 0.6932624 0.7130698 0.1044927 0.6932624 0.7130698 0.1044927 0.6932624 0.7130698 0.1044927 0 1 0 0 1 0 0 1 0 0 1 0 0 1 0 0 1 0 0 1 0 0 1 0 0 1 0 0 1 0 0 1 0 0 1 0 0 1 0 0 1 0 0 1 0 0 1 0 0 1 0 0 1 0 0 1 0 0 1 0 0 -1 0 0 -1 0 0 -1 0 0 -1 0 0 -1 0 0 -1 0 0 -1 0 0 -1 0 0 -1 0 0 -1 0 0 -1 0 0 -1 0 0 -1 0 0 -1 0 0 -1 0 0 -1 0 0 -1 0 0 -1 0 0 -1 0 0 -1 0 0 -1 0</float_array>
          <technique_common>
            <accessor count="602" source="#normals-array-array" stride="3">
              <param type="float" name="X"/>
              <param type="float" name="Y"/>
              <param type="float" name="Z"/>
            </accessor>
          </technique_common>
        </source>
        <vertices id="verts-array-vertices">
          <input semantic="POSITION" source="#verts-array"/>
        </vertices>
        <triangles count="330" material="material1">
          <input offset="0" semantic="VERTEX" source="#verts-array-vertices"/>
          <input offset="1" semantic="NORMAL" source="#normals-array"/>
          <p>0 0 1 1 2 2 0 0 2 2 3 3 4 4 5 5 6 6 4 4 7 7 5 5 8 8 9 9 10 10 11 11 12 12 13 13 8 8 14 14 9 9 15 15 11 11 13 13 16 16 17 17 18 18 16 16 19 19 17 17 20 20 21 21 22 22 23 23 24 24 25 25 20 20 26 26 21 21 27 27 28 28 29 29 30 30 23 23 25 25 31 31 27 27 29 29 32 32 33 33 34 34 35 35 36 36 37 37 32 32 38 38 33 33 39 39 35 35 37 37 40 40 41 41 42 42 40 40 43 43 41 41 44 44 45 45 46 46 44 44 47 47 45 45 48 48 49 49 50 50 48 48 50 50 51 51 52 52 53 53 54 54 55 55 56 56 57 57 58 58 52 52 54 54 59 59 55 55 57 57 60 60 61 61 62 62 63 63 60 60 62 62 64 64 65 65 66 66 64 64 66 66 67 67 68 68 69 69 70 70 68 68 70 70 71 71 72 72 73 73 74 74 72 72 74 74 75 75 76 76 77 77 78 78 79 79 76 76 78 78 80 80 81 81 82 82 80 80 82 82 83 83 84 84 85 85 86 86 87 87 84 84 86 86 88 88 89 89 90 90 88 88 90 90 91 91 92 92 93 93 94 94 92 92 94 94 95 95 96 96 97 97 93 93 98 98 92 92 99 99 100 100 101 101 96 96 100 100 98 98 102 102 100 100 93 93 92 92 100 100 96 96 93 93 100 100 92 92 98 98 103 103 104 104 100 100 105 105 106 106 107 107 108 108 109 109 103 103 108 108 103 103 100 100 110 110 105 105 111 111 112 112 110 110 113 113 112 112 114 114 108 108 112 112 102 102 106 106 112 112 100 100 102 102 112 112 105 105 110 110 112 112 106 106 105 105 112 112 108 108 100 100 115 115 116 116 117 117 117 117 116 116 118 118 119 119 120 120 115 115 116 116 121 121 122 122 123 123 124 124 120 120 121 121 124 124 125 125 115 115 124 124 116 116 120 120 124 124 115 115 116 116 124 124 121 121 126 126 127 127 124 124 128 128 129 129 130 130 131 131 132 132 127 127 127 127 132 132 124 124 129 129 133 133 134 134 133 133 135 135 136 136 137 137 135 135 132 132 125 125 135 135 128 128 124 124 135 135 125 125 129 129 135 135 133 133 128 128 135 135 129 129 132 132 135 135 124 124 138 138 139 139 140 140 141 141 142 142 143 143 144 144 145 145 146 146 147 147 148 148 149 149 150 150 151 151 152 152 153 153 154 154 155 155 156 156 157 157 158 158 159 159 160 160 161 161 162 162 163 163 164 164 165 165 166 166 167 167 168 168 169 169 170 170 171 171 172 172 173 173 174 174 175 175 176 176 177 177 178 178 179 179 180 180 181 181 182 182 183 183 184 184 185 185 186 186 187 187 188 188 189 189 190 190 191 191 192 192 193 193 194 194 195 195 196 196 197 197 198 198 199 199 200 200 201 201 202 202 203 203 201 201 204 204 202 202 205 205 206 206 207 207 208 208 209 209 210 210 211 211 212 212 213 213 214 214 215 215 216 216 217 217 218 218 219 219 220 220 221 221 222 222 223 223 224 224 225 225 226 226 227 227 228 228 229 229 230 230 231 231 232 232 233 233 234 234 235 235 236 236 237 237 238 238 239 239 240 240 241 241 242 242 243 243 244 244 245 245 246 246 247 247 248 248 249 249 250 250 251 251 252 252 253 253 254 254 255 255 256 256 257 257 258 258 259 259 260 260 261 261 262 262 263 263 264 264 265 265 266 266 267 267 268 268 269 269 270 270 271 271 272 272 273 273 271 271 273 273 269 269 274 274 268 268 275 275 274 274 275 275 276 276 274 274 269 269 268 268 277 277 278 278 271 271 279 279 271 271 269 269 279 279 277 277 271 271 279 279 269 269 274 274 280 280 281 281 282 282 283 283 274 274 281 281 283 283 279 279 274 274 283 283 281 281 280 280 284 284 283 283 285 285 284 284 286 286 287 287 284 284 287 287 288 288 284 284 288 288 279 279 284 284 279 279 283 283 289 289 290 290 291 291 291 291 290 290 292 292 293 293 294 294 289 289 290 290 295 295 296 296 297 297 298 298 294 294 295 295 298 298 299 299 289 289 298 298 290 290 294 294 298 298 289 289 290 290 298 298 295 295 300 300 301 301 298 298 302 302 303 303 304 304 305 305 306 306 301 301 301 301 306 306 298 298 303 303 307 307 308 308 307 307 309 309 310 310 311 311 309 309 306 306 299 299 309 309 302 302 298 298 309 309 299 299 303 303 309 309 307 307 302 302 309 309 303 303 306 306 309 309 298 298 312 312 313 313 314 314 312 312 314 314 315 315 316 316 317 317 318 318 319 319 316 316 318 318 320 320 321 321 322 322 320 320 323 323 321 321 324 324 325 325 326 326 324 324 327 327 325 325 328 328 329 329 330 330 328 328 331 331 329 329 332 332 333 333 334 334 332 332 335 335 333 333 336 336 337 337 338 338 336 336 339 339 337 337 340 340 341 341 342 342 340 340 343 343 341 341 344 344 345 345 346 346 344 344 347 347 345 345 348 348 349 349 350 350 348 348 351 351 349 349 352 352 353 353 354 354 355 355 356 356 357 357 352 352 358 358 353 353 359 359 355 355 357 357 360 360 361 361 362 362 363 363 364 364 365 365 360 360 366 366 361 361 367 367 363 363 365 365 368 368 369 369 370 370 368 368 370 370 371 371 372 372 373 373 374 374 372 372 374 374 375 375 376 376 377 377 378 378 379 379 376 376 378 378 380 380 381 381 382 382 380 380 382 382 383 383 384 384 385 385 386 386 384 384 386 386 387 387 388 388 389 389 390 390 391 391 388 388 390 390 392 392 393 393 394 394 392 392 394 394 395 395 396 396 397 397 398 398 399 399 400 400 401 401 399 399 401 401 397 397 402 402 396 396 403 403 402 402 403 403 404 404 402 402 397 397 396 396 405 405 406 406 399 399 407 407 399 399 397 397 407 407 405 405 399 399 407 407 397 397 402 402 408 408 409 409 410 410 411 411 402 402 409 409 411 411 407 407 402 402 411 411 409 409 408 408 412 412 411 411 413 413 412 412 414 414 415 415 412 412 415 415 416 416 412 412 416 416 407 407 412 412 407 407 411 411 417 417 418 418 419 419 420 420 421 421 422 422 422 422 421 421 417 417 418 418 423 423 424 424 424 424 423 423 425 425 417 417 423 423 418 418 426 426 427 427 421 421 421 421 428 428 417 417 427 427 428 428 421 421 417 417 428 428 423 423 429 429 430 430 431 431 423 423 432 432 429 429 428 428 432 432 423 423 429 429 432 432 430 430 432 432 433 433 434 434 435 435 433 433 436 436 436 436 433 433 437 437 437 437 433 433 428 428 428 428 433 433 432 432 438 438 439 439 440 440 441 441 442 442 443 443 444 444 445 445 446 446 447 447 448 448 449 449 450 450 451 451 452 452 453 453 454 454 455 455 456 456 457 457 458 458 459 459 460 460 461 461 462 462 463 463 464 464 465 465 466 466 467 467 468 468 469 469 470 470 471 471 472 472 473 473 474 474 475 475 476 476 477 477 478 478 479 479 480 480 481 481 482 482 483 483 484 484 485 485 486 486 487 487 488 488 489 489 490 490 491 491 492 492 493 493 494 494 495 495 496 496 497 497 498 498 499 499 500 500 501 501 502 502 503 503 504 504 505 505 506 506 507 507 508 508 509 509 510 510 511 511 512 512 513 513 514 514 515 515 516 516 517 517 518 518 519 519 520 520 521 521 522 522 523 523 524 524 525 525 526 526 527 527 528 528 529 529 530 530 531 531 532 532 533 533 534 534 535 535 536 536 537 537 538 538 539 539 540 540 541 541 542 542 543 543 544 544 545 545 546 546 547 547 548 548 549 549 550 550 551 551 552 552 553 553 554 554 555 555 556 556 557 557 558 558 559 559 560 560 561 561 562 562 563 563 561 561 563 563 564 564 565 565 566 566 561 561 565 565 561 561 564 564 567 567 564 564 568 568 567 567 568 568 569 569 567 567 565 565 564 564 570 570 571 571 572 572 570 570 572 572 573 573 570 570 573 573 565 565 570 570 567 567 574 574 570 570 574 574 575 575 570 570 565 565 567 567 576 576 577 577 578 578 576 576 579 579 580 580 576 576 580 580 570 570 576 576 575 575 577 577 576 576 570 570 575 575 581 581 582 582 583 583 584 584 585 585 586 586 586 586 585 585 581 581 582 582 587 587 588 588 588 588 587 587 589 589 581 581 587 587 582 582 590 590 591 591 585 585 585 585 592 592 581 581 591 591 592 592 585 585 581 581 592 592 587 587 593 593 594 594 595 595 587 587 596 596 593 593 592 592 596 596 587 587 593 593 596 596 594 594 596 596 597 597 598 598 599 599 597 597 600 600 600 600 597 597 601 601 601 601 597 597 592 592 592 592 597 597 596 596</p>
        </triangles>
      </mesh>
    </geometry>
    <geometry id="efad0e1721104b79afd739b45e748aa9" name="ba14f5167cd34809b3bbe96fa824982f">
      <mesh>
        <source id="verts-array">
          <float_array count="432" id="verts-array-array">-0.02775 0 0.01675 -0.02775 0.0195 0.01675 -0.02775 0 -0.01675 -0.02775 0.0195 -0.01675 -0.02014919 0.0195 0.02721162 -0.02564919 0.0195 0.02321564 -0.02321564 0.0195 0.02564919 -0.01675 0.0195 0.02775 -0.02775 0.0195 0.01675 -0.02721162 0.0195 0.02014919 -0.02564919 0.0195 -0.02321564 -0.02721162 0.0195 -0.02014919 -0.02775 0.0195 -0.01675 0.02321564 0.0195 0.02564919 0.01675 0.0195 0.02775 0.02014919 0.0195 0.02721162 -0.02321564 0.0195 -0.02564919 0.02564919 0.0195 0.02321564 -0.02014919 0.0195 -0.02721162 0.02721162 0.0195 0.02014919 0.02775 0.0195 0.01675 -0.01675 0.0195 -0.02775 0.01675 0.0195 -0.02775 0.02775 0.0195 -0.01675 0.02721162 0.0195 -0.02014919 0.02014919 0.0195 -0.02721162 0.02321564 0.0195 -0.02564919 0.02564919 0.0195 -0.02321564 -0.02721162 0.0195 0.02014919 -0.02775 0 0.01675 -0.02721162 0 0.02014919 -0.02775 0.0195 0.01675 -0.02564919 0.0195 0.02321564 -0.02721162 0 0.02014919 -0.02564919 0 0.02321564 -0.02721162 0.0195 0.02014919 -0.02321564 0.0195 0.02564919 -0.02564919 0 0.02321564 -0.02321564 0 0.02564919 -0.02564919 0.0195 0.02321564 -0.02014919 0.0195 0.02721162 -0.02321564 0 0.02564919 -0.02014919 0 0.02721162 -0.02321564 0.0195 0.02564919 -0.01675 0.0195 0.02775 -0.02014919 0 0.02721162 -0.01675 0 0.02775 -0.02014919 0.0195 0.02721162 -0.02775 0 -0.01675 -0.02721162 0.0195 -0.02014919 -0.02721162 0 -0.02014919 -0.02775 0.0195 -0.01675 -0.02721162 0 -0.02014919 -0.02564919 0.0195 -0.02321564 -0.02564919 0 -0.02321564 -0.02721162 0.0195 -0.02014919 -0.02564919 0 -0.02321564 -0.02321564 0.0195 -0.02564919 -0.02321564 0 -0.02564919 -0.02564919 0.0195 -0.02321564 -0.02321564 0 -0.02564919 -0.02014919 0.0195 -0.02721162 -0.02014919 0 -0.02721162 -0.02321564 0.0195 -0.02564919 -0.02014919 0 -0.02721162 -0.01675 0.0195 -0.02775 -0.01675 0 -0.02775 -0.02014919 0.0195 -0.02721162 -0.02564919 0 0.02321564 -0.02014919 0 0.02721162 -0.02321564 0 0.02564919 -0.01675 0 0.02775 -0.02721162 0 0.02014919 -0.02775 0 0.01675 -0.02721162 0 -0.02014919 -0.02564919 0 -0.02321564 -0.02775 0 -0.01675 0.01675 0 0.02775 0.02321564 0 0.02564919 0.02014919 0 0.02721162 -0.02321564 0 -0.02564919 0.02564919 0 0.02321564 -0.02014919 0 -0.02721162 0.02721162 0 0.02014919 0.02775 0 0.01675 -0.01675 0 -0.02775 0.01675 0 -0.02775 0.02775 0 -0.01675 0.02014919 0 -0.02721162 0.02721162 0 -0.02014919 0.02321564 0 -0.02564919 0.02564919 0 -0.02321564 0.01675 0 0.02775 0.01675 0.0195 0.02775 -0.01675 0 0.02775 -0.01675 0.0195 0.02775 0.01675 0.0195 -0.02775 0.01675 0 -0.02775 -0.01675 0 -0.02775 -0.01675 0.0195 -0.02775 0.02775 0 0.01675 0.02721162 0.0195 0.02014919 0.02721162 0 0.02014919 0.02775 0.0195 0.01675 0.02721162 0 0.02014919 0.02564919 0.0195 0.02321564 0.02564919 0 0.02321564 0.02721162 0.0195 0.02014919 0.02564919 0 0.02321564 0.02321564 0.0195 0.02564919 0.02321564 0 0.02564919 0.02564919 0.0195 0.02321564 0.02321564 0 0.02564919 0.02014919 0.0195 0.02721162 0.02014919 0 0.02721162 0.02321564 0.0195 0.02564919 0.02014919 0 0.02721162 0.01675 0.0195 0.02775 0.01675 0 0.02775 0.02014919 0.0195 0.02721162 0.02721162 0.0195 -0.02014919 0.02775 0 -0.01675 0.02721162 0 -0.02014919 0.02775 0.0195 -0.01675 0.02564919 0.0195 -0.02321564 0.02721162 0 -0.02014919 0.02564919 0 -0.02321564 0.02721162 0.0195 -0.02014919 0.02321564 0.0195 -0.02564919 0.02564919 0 -0.02321564 0.02321564 0 -0.02564919 0.02564919 0.0195 -0.02321564 0.02014919 0.0195 -0.02721162 0.02321564 0 -0.02564919 0.02014919 0 -0.02721162 0.02321564 0.0195 -0.02564919 0.01675 0.0195 -0.02775 0.02014919 0 -0.02721162 0.01675 0 -0.02775 0.02014919 0.0195 -0.02721162 0.02775 0.0195 0.01675 0.02775 0 0.01675 0.02775 0 -0.01675 0.02775 0.0195 -0.01675</float_array>
          <technique_common>
            <accessor count="144" source="#verts-array-array" stride="3">
              <param type="float" name="X"/>
              <param type="float" name="Y"/>
              <param type="float" name="Z"/>
            </accessor>
          </technique_common>
        </source>
        <source id="normals-array">
          <float_array count="432" id="normals-array-array">-1 0 0 -1 0 0 -1 0 0 -1 0 0 0 1 0 0 1 0 0 1 0 0 1 0 0 1 0 0 1 0 0 1 0 0 1 0 0 1 0 0 1 0 0 1 0 0 1 0 0 1 0 0 1 0 0 1 0 0 1 0 0 1 0 0 1 0 0 1 0 0 1 0 0 1 0 0 1 0 0 1 0 0 1 0 -0.9876882 0 0.1564351 -0.9876882 0 0.1564351 -0.9876882 0 0.1564351 -0.9876882 0 0.1564351 -0.8910071 0 0.4539894 -0.8910071 0 0.4539894 -0.8910071 0 0.4539894 -0.8910071 0 0.4539894 -0.7071068 0 0.7071068 -0.7071068 0 0.7071068 -0.7071068 0 0.7071068 -0.7071068 0 0.7071068 -0.4539894 0 0.8910071 -0.4539894 0 0.8910071 -0.4539894 0 0.8910071 -0.4539894 0 0.8910071 -0.1564351 0 0.9876882 -0.1564351 0 0.9876882 -0.1564351 0 0.9876882 -0.1564351 0 0.9876882 -0.9876882 0 -0.1564351 -0.9876882 0 -0.1564351 -0.9876882 0 -0.1564351 -0.9876882 0 -0.1564351 -0.8910071 0 -0.4539894 -0.8910071 0 -0.4539894 -0.8910071 0 -0.4539894 -0.8910071 0 -0.4539894 -0.7071068 0 -0.7071068 -0.7071068 0 -0.7071068 -0.7071068 0 -0.7071068 -0.7071068 0 -0.7071068 -0.4539894 0 -0.8910071 -0.4539894 0 -0.8910071 -0.4539894 0 -0.8910071 -0.4539894 0 -0.8910071 -0.1564351 0 -0.9876882 -0.1564351 0 -0.9876882 -0.1564351 0 -0.9876882 -0.1564351 0 -0.9876882 0 -1 0 0 -1 0 0 -1 0 0 -1 0 0 -1 0 0 -1 0 0 -1 0 0 -1 0 0 -1 0 0 -1 0 0 -1 0 0 -1 0 0 -1 0 0 -1 0 0 -1 0 0 -1 0 0 -1 0 0 -1 0 0 -1 0 0 -1 0 0 -1 0 0 -1 0 0 -1 0 0 -1 0 0 0 1 0 0 1 0 0 1 0 0 1 0 0 -1 0 0 -1 0 0 -1 0 0 -1 0.9876882 0 0.1564351 0.9876882 0 0.1564351 0.9876882 0 0.1564351 0.9876882 0 0.1564351 0.8910071 0 0.4539894 0.8910071 0 0.4539894 0.8910071 0 0.4539894 0.8910071 0 0.4539894 0.7071068 0 0.7071068 0.7071068 0 0.7071068 0.7071068 0 0.7071068 0.7071068 0 0.7071068 0.4539894 0 0.8910071 0.4539894 0 0.8910071 0.4539894 0 0.8910071 0.4539894 0 0.8910071 0.1564351 0 0.9876882 0.1564351 0 0.9876882 0.1564351 0 0.9876882 0.1564351 0 0.9876882 0.9876882 0 -0.1564351 0.9876882 0 -0.1564351 0.9876882 0 -0.1564351 0.9876882 0 -0.1564351 0.8910071 0 -0.4539894 0.8910071 0 -0.4539894 0.8910071 0 -0.4539894 0.8910071 0 -0.4539894 0.7071068 0 -0.7071068 0.7071068 0 -0.7071068 0.7071068 0 -0.7071068 0.7071068 0 -0.7071068 0.4539894 0 -0.8910071 0.4539894 0 -0.8910071 0.4539894 0 -0.8910071 0.4539894 0 -0.8910071 0.1564351 0 -0.9876882 0.1564351 0 -0.9876882 0.1564351 0 -0.9876882 0.1564351 0 -0.9876882 1 0 0 1 0 0 1 0 0 1 0 0</float_array>
          <technique_common>
            <accessor count="144" source="#normals-array-array" stride="3">
              <param type="float" name="X"/>
              <param type="float" name="Y"/>
              <param type="float" name="Z"/>
            </accessor>
          </technique_common>
        </source>
        <vertices id="verts-array-vertices">
          <input semantic="POSITION" source="#verts-array"/>
        </vertices>
        <triangles count="92" material="material2">
          <input offset="0" semantic="VERTEX" source="#verts-array-vertices"/>
          <input offset="1" semantic="NORMAL" source="#normals-array"/>
          <p>0 0 1 1 2 2 2 2 1 1 3 3 4 4 5 5 6 6 7 7 5 5 4 4 8 8 9 9 5 5 8 8 5 5 7 7 10 10 11 11 12 12 13 13 14 14 15 15 16 16 10 10 12 12 17 17 14 14 13 13 18 18 16 16 12 12 19 19 14 14 17 17 20 20 14 14 19 19 21 21 18 18 12 12 22 22 21 21 12 12 23 23 12 12 8 8 23 23 7 7 14 14 23 23 8 8 7 7 23 23 14 14 20 20 23 23 22 22 12 12 24 24 25 25 22 22 24 24 22 22 23 23 26 26 24 24 27 27 26 26 25 25 24 24 28 28 29 29 30 30 28 28 31 31 29 29 32 32 33 33 34 34 32 32 35 35 33 33 36 36 37 37 38 38 36 36 39 39 37 37 40 40 41 41 42 42 40 40 43 43 41 41 44 44 45 45 46 46 44 44 47 47 45 45 48 48 49 49 50 50 51 51 49 49 48 48 52 52 53 53 54 54 55 55 53 53 52 52 56 56 57 57 58 58 59 59 57 57 56 56 60 60 61 61 62 62 63 63 61 61 60 60 64 64 65 65 66 66 67 67 65 65 64 64 68 68 69 69 70 70 68 68 71 71 69 69 72 72 73 73 68 68 68 68 73 73 71 71 74 74 75 75 76 76 77 77 78 78 79 79 75 75 80 80 76 76 77 77 81 81 78 78 80 80 82 82 76 76 77 77 83 83 81 81 77 77 84 84 83 83 82 82 85 85 76 76 85 85 86 86 76 76 76 76 87 87 73 73 71 71 87 87 77 77 73 73 87 87 71 71 77 77 87 87 84 84 86 86 87 87 76 76 88 88 89 89 86 86 86 86 89 89 87 87 89 89 90 90 91 91 88 88 90 90 89 89 92 92 93 93 94 94 94 94 93 93 95 95 96 96 97 97 98 98 96 96 98 98 99 99 100 100 101 101 102 102 103 103 101 101 100 100 104 104 105 105 106 106 107 107 105 105 104 104 108 108 109 109 110 110 111 111 109 109 108 108 112 112 113 113 114 114 115 115 113 113 112 112 116 116 117 117 118 118 119 119 117 117 116 116 120 120 121 121 122 122 120 120 123 123 121 121 124 124 125 125 126 126 124 124 127 127 125 125 128 128 129 129 130 130 128 128 131 131 129 129 132 132 133 133 134 134 132 132 135 135 133 133 136 136 137 137 138 138 136 136 139 139 137 137 140 140 141 141 142 142 140 140 142 142 143 143</p>
        </triangles>
      </mesh>
    </geometry>
  </library_geometries>
  <library_materials>
    <material id="b393e40feb494945a3c7b59ae57fcad3" name="pbrmaterial">
      <instance_effect url="#54b44937ee7d47a9a54bef6135126866"/>
    </material>
    <material id="4a17f06cd66d48b39efc41cbcf680bc5" name="pbrmaterial">
      <instance_effect url="#db81c4fdeb454870a8e12b668eb2caab"/>
    </material>
    <material id="59ee625453084e2b934880967f2ed04b" name="pbrmaterial">
      <instance_effect url="#b6c09a67d7284eb1878f096e0ced316f"/>
    </material>
  </library_materials>
  <library_visual_scenes>
    <visual_scene id="scene">
      <node id="node0" name="node0">
        <instance_geometry url="#36623581b3b842cca993e7cf5d568d42">
          <bind_material>
            <technique_common>
              <instance_material symbol="material0" target="#b393e40feb494945a3c7b59ae57fcad3"/>
            </technique_common>
          </bind_material>
        </instance_geometry>
      </node>
      <node id="node1" name="node1">
        <instance_geometry url="#2d3242262b324d5aba726c02b2e9b710">
          <bind_material>
            <technique_common>
              <instance_material symbol="material1" target="#4a17f06cd66d48b39efc41cbcf680bc5"/>
            </technique_common>
          </bind_material>
        </instance_geometry>
      </node>
      <node id="node2" name="node2">
        <instance_geometry url="#efad0e1721104b79afd739b45e748aa9">
          <bind_material>
            <technique_common>
              <instance_material symbol="material2" target="#59ee625453084e2b934880967f2ed04b"/>
            </technique_common>
          </bind_material>
        </instance_geometry>
      </node>
    </visual_scene>
  </library_visual_scenes>
  <scene>
    <instance_visual_scene url="#scene"/>
  </scene>
</COLLADA>
