<COLLADA xmlns="http://www.collada.org/2005/11/COLLADASchema" version="1.4.1">
  <asset>
    <created>2026-08-07T10:27:59.749443</created>
    <modified>2026-08-07T10:27:59.749447</modified>
    <up_axis>Y_UP</up_axis>
  </asset>
  <library_effects>
    <effect id="b4e2d367b452431ea0a81b424ab8e1e5" name="b4e2d367b452431ea0a81b424ab8e1e5">
      <profile_COMMON>
        <technique sid="common">
          <phong>
            <ambient>
              <color>0.0 0.0 0.0 1.0</color>
            </ambient>
            <diffuse>
              <color>0.0784313725490196 0.0784313725490196 0.09019607843137255 1.0</color>
            </diffuse>
            <specular>
              <color>1.0 1.0 1.0 1.0</color>
            </specular>
            <shininess>
              <float>0.06598803534436781</float>
            </shininess>
            <reflective>
              <color>0.0 0.0 0.0 1.0</color>
            </reflective>
            <reflectivity>
              <float>0.0</float>
            </reflectivity>
            <transparent>
              <color>0.0 0.0 0.0 1.0</color>
            </transparent>
            <transparency>
              <float>1.0</float>
            </transparency>
          </phong>
        </technique>
        <extra>
          <technique profile="GOOGLEEARTH">
            <double_sided>0</double_sided>
          </technique>
        </extra>
      </profile_COMMON>
    </effect>
    <effect id="86a312d7634e46b0895b55e004585551" name="86a312d7634e46b0895b55e004585551">
      <profile_COMMON>
        <technique sid="common">
          <phong>
            <ambient>
              <color>0.0 0.0 0.0 1.0</color>
            </ambient>
            <diffuse>
              <color>0.2196078431372549 0.2196078431372549 0.23921568627450981 1.0</color>
            </diffuse>
            <specular>
              <color>1.0 1.0 1.0 1.0</color>
            </specular>
            <shininess>
              <float>0.06598803534436781</float>
            </shininess>
            <reflective>
              <color>0.0 0.0 0.0 1.0</color>
            </reflective>
            <reflectivity>
              <float>0.0</float>
            </reflectivity>
            <transparent>
              <color>0.0 0.0 0.0 1.0</color>
            </transparent>
            <transparency>
              <float>1.0</float>
            </transparency>
          </phong>
        </technique>
        <extra>
          <technique profile="GOOGLEEARTH">
            <double_sided>0</double_sided>
          </technique>
        </extra>
      </profile_COMMON>
    </effect>
  </library_effects>
  <library_geometries>
    <geometry id="8acf5ff8577147ca844e89ed7a47eb7e" name="f77e4c98031a499383183c9964de5ac9">
      <mesh>
        <source id="verts-array">
          <float_array count="1122" id="verts-array-array">0.03366735 0.036 -0.007979309 0.0346 0.036 8.474556e-18 0.0346 0.02 8.474556e-18 0.03366735 0.02 -0.007979309 0.03091969 0.036 -0.01552845 0.03366735 0.02 -0.007979309 0.03091969 0.02 -0.01552845 0.03366735 0.036 -0.007979309 0.02650514 0.036 -0.02224045 0.03091969 0.02 -0.01552845 0.02650514 0.02 -0.02224045 0.03091969 0.036 -0.01552845 0.02066169 0.036 -0.02775346 0.02650514 0.02 -0.02224045 0.02066169 0.02 -0.02775346 0.02650514 0.036 -0.02224045 0.01370436 0.036 -0.03177028 0.02066169 0.02 -0.02775346 0.01370436 0.02 -0.03177028 0.02066169 0.036 -0.02775346 0.006008227 0.036 -0.03407435 0.01370436 0.02 -0.03177028 0.006008227 0.02 -0.03407435 0.01370436 0.036 -0.03177028 -0.002011811 0.036 -0.03454146 0.006008227 0.02 -0.03407435 -0.002011811 0.02 -0.03454146 -0.002011811 0.036 -0.03454146 -0.002011811 0.02 -0.03454146 -0.009923392 0.02 -0.03314644 0.006008227 0.036 -0.03407435 -0.009923392 0.036 -0.03314644 -0.0173 0.036 -0.02996448 -0.009923392 0.02 -0.03314644 -0.0173 0.02 -0.02996448 -0.0173 0.036 -0.02996448 -0.0173 0.02 -0.02996448 -0.02374396 0.02 -0.02516713 -0.009923392 0.036 -0.03314644 -0.02374396 0.036 -0.02516713 -0.02890788 0.036 -0.01901301 -0.02374396 0.02 -0.02516713 -0.02890788 0.02 -0.01901301 -0.02374396 0.036 -0.02516713 -0.03251336 0.036 -0.0118339 -0.02890788 0.036 -0.01901301 -0.02890788 0.02 -0.01901301 -0.03251336 0.02 -0.0118339 -0.03251336 0.036 -0.0118339 -0.03251336 0.02 -0.0118339 -0.03436605 0.02 -0.004016815 -0.03436605 0.036 -0.004016815 -0.03436605 0.036 0.004016815 -0.03436605 0.036 -0.004016815 -0.03436605 0.02 -0.004016815 -0.03436605 0.02 0.004016815 -0.03436605 0.036 0.004016815 -0.03436605 0.02 0.004016815 -0.03251336 0.02 0.0118339 -0.03251336 0.036 0.0118339 -0.02890788 0.036 0.01901301 -0.03251336 0.036 0.0118339 -0.03251336 0.02 0.0118339 -0.02890788 0.02 0.01901301 -0.02890788 0.036 0.01901301 -0.02890788 0.02 0.01901301 -0.02374396 0.02 0.02516713 -0.02374396 0.036 0.02516713 -0.02374396 0.036 0.02516713 -0.02374396 0.02 0.02516713 -0.0173 0.02 0.02996448 -0.0173 0.036 0.02996448 -0.009923392 0.036 0.03314644 -0.0173 0.036 0.02996448 -0.0173 0.02 0.02996448 -0.009923392 0.02 0.03314644 -0.009923392 0.036 0.03314644 -0.009923392 0.02 0.03314644 -0.002011811 0.02 0.03454146 -0.002011811 0.036 0.03454146 0.006008227 0.036 0.03407435 -0.002011811 0.036 0.03454146 -0.002011811 0.02 0.03454146 0.006008227 0.02 0.03407435 0.01370436 0.036 0.03177028 0.006008227 0.036 0.03407435 0.006008227 0.02 0.03407435 0.01370436 0.02 0.03177028 0.01370436 0.036 0.03177028 0.01370436 0.02 0.03177028 0.02066169 0.02 0.02775346 0.02066169 0.036 0.02775346 0.02650514 0.036 0.02224045 0.02066169 0.02 0.02775346 0.02650514 0.02 0.02224045 0.02650514 0.036 0.02224045 0.02650514 0.02 0.02224045 0.03091969 0.02 0.01552845 0.02066169 0.036 0.02775346 0.03091969 0.036 0.01552845 0.03366735 0.036 0.007979309 0.03091969 0.02 0.01552845 0.03366735 0.02 0.007979309 0.03366735 0.036 0.007979309 0.03366735 0.02 0.007979309 0.0346 0.02 8.474556e-18 0.03091969 0.036 0.01552845 0.0346 0.036 8.474556e-18 -0.03251336 0.036 0.0118339 -0.02890788 0.036 0.01901301 -0.02374396 0.036 0.02516713 -0.009923392 0.036 0.03314644 -0.0173 0.036 0.02996448 -0.03436605 0.036 0.004016815 0.01370436 0.036 0.03177028 -0.002011811 0.036 0.03454146 0.006008227 0.036 0.03407435 -0.02890788 0.036 -0.01901301 -0.03251336 0.036 -0.0118339 -0.03436605 0.036 -0.004016815 0.02066169 0.036 0.02775346 -0.0173 0.036 -0.02996448 -0.02374396 0.036 -0.02516713 0.03091969 0.036 0.01552845 0.02650514 0.036 0.02224045 -0.002011811 0.036 -0.03454146 -0.009923392 0.036 -0.03314644 0.0346 0.036 8.474556e-18 0.03366735 0.036 0.007979309 0.006008227 0.036 -0.03407435 0.01370436 0.036 -0.03177028 0.03091969 0.036 -0.01552845 0.03366735 0.036 -0.007979309 0.02650514 0.036 -0.02224045 0.02066169 0.036 -0.02775346 -0.02890788 0.02 0.01901301 -0.03251336 0.02 0.0118339 -0.02374396 0.02 0.02516713 -0.009923392 0.02 0.03314644 -0.0173 0.02 0.02996448 -0.03436605 0.02 0.004016815 -0.002011811 0.02 0.03454146 0.01370436 0.02 0.03177028 0.006008227 0.02 0.03407435 -0.03251336 0.02 -0.0118339 -0.02890788 0.02 -0.01901301 -0.03436605 0.02 -0.004016815 0.02066169 0.02 0.02775346 -0.02374396 0.02 -0.02516713 -0.0173 0.02 -0.02996448 0.03091969 0.02 0.01552845 0.02650514 0.02 0.02224045 -0.009923392 0.02 -0.03314644 -0.002011811 0.02 -0.03454146 0.0346 0.02 8.474556e-18 0.03366735 0.02 0.007979309 0.006008227 0.02 -0.03407435 0.01370436 0.02 -0.03177028 0.03091969 0.02 -0.01552845 0.03366735 0.02 -0.007979309 0.02066169 0.02 -0.02775346 0.02650514 0.02 -0.02224045 0.03366735 0.036 -0.007979309 0.033 0.0388 8.08267e-18 0.0346 0.036 8.474556e-18 0.03204108 0.0388 -0.007897417 0.033 0.0388 8.08267e-18 0.03366735 0.036 -0.007979309 0.03091969 0.036 -0.01552845 0.03204108 0.0388 -0.007897417 0.03366735 0.036 -0.007979309 0.02922005 0.0388 -0.01533587 0.03204108 0.0388 -0.007897417 0.03091969 0.036 -0.01552845 0.02650514 0.036 -0.02224045 0.02922005 0.0388 -0.01533587 0.03091969 0.036 -0.01552845 0.02470086 0.0388 -0.02188305 0.02922005 0.0388 -0.01533587 0.02650514 0.036 -0.02224045 0.02066169 0.036 -0.02775346 0.02470086 0.0388 -0.02188305 0.02650514 0.036 -0.02224045 0.01874614 0.0388 -0.02715847 0.02470086 0.0388 -0.02188305 0.02066169 0.036 -0.02775346 0.01370436 0.036 -0.03177028 0.01874614 0.0388 -0.02715847 0.02066169 0.036 -0.02775346 0.01170196 0.0388 -0.03085553 0.01874614 0.0388 -0.02715847 0.01370436 0.036 -0.03177028 0.006008227 0.036 -0.03407435 0.01170196 0.0388 -0.03085553 0.01370436 0.036 -0.03177028 0.00397771 0.0388 -0.03275939 0.01170196 0.0388 -0.03085553 0.006008227 0.036 -0.03407435 -0.002011811 0.036 -0.03454146 0.00397771 0.0388 -0.03275939 0.006008227 0.036 -0.03407435 -0.00397771 0.0388 -0.03275939 0.00397771 0.0388 -0.03275939 -0.002011811 0.036 -0.03454146 -0.009923392 0.036 -0.03314644 -0.00397771 0.0388 -0.03275939 -0.002011811 0.036 -0.03454146 -0.01170196 0.0388 -0.03085553 -0.00397771 0.0388 -0.03275939 -0.009923392 0.036 -0.03314644 -0.0173 0.036 -0.02996448 -0.01170196 0.0388 -0.03085553 -0.009923392 0.036 -0.03314644 -0.01874614 0.0388 -0.02715847 -0.01170196 0.0388 -0.03085553 -0.0173 0.036 -0.02996448 -0.02374396 0.036 -0.02516713 -0.01874614 0.0388 -0.02715847 -0.0173 0.036 -0.02996448 -0.02470086 0.0388 -0.02188305 -0.01874614 0.0388 -0.02715847 -0.02374396 0.036 -0.02516713 -0.02890788 0.036 -0.01901301 -0.02470086 0.0388 -0.02188305 -0.02374396 0.036 -0.02516713 -0.02922005 0.0388 -0.01533587 -0.02470086 0.0388 -0.02188305 -0.02890788 0.036 -0.01901301 -0.03251336 0.036 -0.0118339 -0.02922005 0.0388 -0.01533587 -0.02890788 0.036 -0.01901301 -0.03204108 0.0388 -0.007897417 -0.02922005 0.0388 -0.01533587 -0.03251336 0.036 -0.0118339 -0.03436605 0.036 -0.004016815 -0.03204108 0.0388 -0.007897417 -0.03251336 0.036 -0.0118339 -0.033 0.0388 -3.335122e-17 -0.03204108 0.0388 -0.007897417 -0.03436605 0.036 -0.004016815 -0.03436605 0.036 0.004016815 -0.033 0.0388 -3.335122e-17 -0.03436605 0.036 -0.004016815 -0.03204108 0.0388 0.007897417 -0.033 0.0388 -3.335122e-17 -0.03436605 0.036 0.004016815 -0.03251336 0.036 0.0118339 -0.03204108 0.0388 0.007897417 -0.03436605 0.036 0.004016815 -0.02922005 0.0388 0.01533587 -0.03204108 0.0388 0.007897417 -0.03251336 0.036 0.0118339 -0.02890788 0.036 0.01901301 -0.02922005 0.0388 0.01533587 -0.03251336 0.036 0.0118339 -0.02470086 0.0388 0.02188305 -0.02922005 0.0388 0.01533587 -0.02890788 0.036 0.01901301 -0.02470086 0.0388 0.02188305 -0.02890788 0.036 0.01901301 -0.02374396 0.036 0.02516713 -0.01874614 0.0388 0.02715847 -0.02470086 0.0388 0.02188305 -0.02374396 0.036 0.02516713 -0.01874614 0.0388 0.02715847 -0.02374396 0.036 0.02516713 -0.0173 0.036 0.02996448 -0.01170196 0.0388 0.03085553 -0.01874614 0.0388 0.02715847 -0.0173 0.036 0.02996448 -0.01170196 0.0388 0.03085553 -0.0173 0.036 0.02996448 -0.009923392 0.036 0.03314644 -0.00397771 0.0388 0.03275939 -0.01170196 0.0388 0.03085553 -0.009923392 0.036 0.03314644 -0.00397771 0.0388 0.03275939 -0.009923392 0.036 0.03314644 -0.002011811 0.036 0.03454146 0.00397771 0.0388 0.03275939 -0.00397771 0.0388 0.03275939 -0.002011811 0.036 0.03454146 0.00397771 0.0388 0.03275939 -0.002011811 0.036 0.03454146 0.006008227 0.036 0.03407435 0.01170196 0.0388 0.03085553 0.00397771 0.0388 0.03275939 0.006008227 0.036 0.03407435 0.01170196 0.0388 0.03085553 0.006008227 0.036 0.03407435 0.01370436 0.036 0.03177028 0.01874614 0.0388 0.02715847 0.01170196 0.0388 0.03085553 0.01370436 0.036 0.03177028 0.01874614 0.0388 0.02715847 0.01370436 0.036 0.03177028 0.02066169 0.036 0.02775346 0.02470086 0.0388 0.02188305 0.02066169 0.036 0.02775346 0.02650514 0.036 0.02224045 0.02470086 0.0388 0.02188305 0.01874614 0.0388 0.02715847 0.02066169 0.036 0.02775346 0.02922005 0.0388 0.01533587 0.02650514 0.036 0.02224045 0.03091969 0.036 0.01552845 0.02922005 0.0388 0.01533587 0.02470086 0.0388 0.02188305 0.02650514 0.036 0.02224045 0.03204108 0.0388 0.007897417 0.03091969 0.036 0.01552845 0.03366735 0.036 0.007979309 0.03204108 0.0388 0.007897417 0.02922005 0.0388 0.01533587 0.03091969 0.036 0.01552845 0.033 0.0388 8.08267e-18 0.03366735 0.036 0.007979309 0.0346 0.036 8.474556e-18 0.033 0.0388 8.08267e-18 0.03204108 0.0388 0.007897417 0.03366735 0.036 0.007979309 -0.02922005 0.0388 0.01533587 -0.02470086 0.0388 0.02188305 -0.01874614 0.0388 0.02715847 -0.00397771 0.0388 0.03275939 -0.01170196 0.0388 0.03085553 -0.03204108 0.0388 -0.007897417 -0.033 0.0388 -3.335122e-17 -0.03204108 0.0388 0.007897417 0.01170196 0.0388 0.03085553 0.00397771 0.0388 0.03275939 -0.02922005 0.0388 -0.01533587 0.02470086 0.0388 0.02188305 0.01874614 0.0388 0.02715847 -0.01170196 0.0388 -0.03085553 -0.01874614 0.0388 -0.02715847 -0.02470086 0.0388 -0.02188305 -0.00397771 0.0388 -0.03275939 0.033 0.0388 8.08267e-18 0.02922005 0.0388 0.01533587 0.03204108 0.0388 0.007897417 0.03204108 0.0388 -0.007897417 0.01170196 0.0388 -0.03085553 0.00397771 0.0388 -0.03275939 0.02470086 0.0388 -0.02188305 0.02922005 0.0388 -0.01533587 0.01874614 0.0388 -0.02715847 -0.02890788 0.036 0.01901301 -0.03251336 0.036 0.0118339 -0.02374396 0.036 0.02516713 -0.009923392 0.036 0.03314644 -0.0173 0.036 0.02996448 -0.03436605 0.036 0.004016815 -0.002011811 0.036 0.03454146 0.01370436 0.036 0.03177028 0.006008227 0.036 0.03407435 -0.03251336 0.036 -0.0118339 -0.02890788 0.036 -0.01901301 -0.03436605 0.036 -0.004016815 0.02066169 0.036 0.02775346 -0.02374396 0.036 -0.02516713 -0.0173 0.036 -0.02996448 0.03091969 0.036 0.01552845 0.02650514 0.036 0.02224045 -0.009923392 0.036 -0.03314644 -0.002011811 0.036 -0.03454146 0.0346 0.036 8.474556e-18 0.03366735 0.036 0.007979309 0.006008227 0.036 -0.03407435 0.01370436 0.036 -0.03177028 0.03091969 0.036 -0.01552845 0.03366735 0.036 -0.007979309 0.02066169 0.036 -0.02775346 0.02650514 0.036 -0.02224045</float_array>
          <technique_common>
            <accessor count="374" source="#verts-array-array" stride="3">
              <param type="float" name="X"/>
              <param type="float" name="Y"/>
              <param type="float" name="Z"/>
            </accessor>
          </technique_common>
        </source>
        <source id="normals-array">
          <float_array count="1122" id="normals-array-array">0.9932383 0 -0.1160935 0.9932383 0 -0.1160935 0.9932383 0 -0.1160935 0.9932383 0 -0.1160935 0.9396928 0 -0.3420197 0.9396928 0 -0.3420197 0.9396928 0 -0.3420197 0.9396928 0 -0.3420197 0.835488 0 -0.5495087 0.835488 0 -0.5495087 0.835488 0 -0.5495087 0.835488 0 -0.5495087 0.6862414 0 -0.7273738 0.6862414 0 -0.7273738 0.6862414 0 -0.7273738 0.6862414 0 -0.7273738 0.5000006 0 -0.8660251 0.5000006 0 -0.8660251 0.5000006 0 -0.8660251 0.5000006 0 -0.8660251 0.2868031 0 -0.9579896 0.2868031 0 -0.9579896 0.2868031 0 -0.9579896 0.2868031 0 -0.9579896 0.05814438 0 -0.9983082 0.05814438 0 -0.9983082 0.05814438 0 -0.9983082 -0.1736476 0 -0.9848079 -0.1736476 0 -0.9848079 -0.1736476 0 -0.9848079 0.05814438 0 -0.9983082 -0.1736476 0 -0.9848079 -0.39608 0 -0.918216 -0.39608 0 -0.918216 -0.39608 0 -0.918216 -0.5971587 0 -0.8021231 -0.5971587 0 -0.8021231 -0.5971587 0 -0.8021231 -0.39608 0 -0.918216 -0.5971587 0 -0.8021231 -0.7660444 0 -0.6427877 -0.7660444 0 -0.6427877 -0.7660444 0 -0.6427877 -0.7660444 0 -0.6427877 -0.8936328 0 -0.4487988 -0.8936328 0 -0.4487988 -0.8936328 0 -0.4487988 -0.8936328 0 -0.4487988 -0.9730447 0 -0.2306164 -0.9730447 0 -0.2306164 -0.9730447 0 -0.2306164 -0.9730447 0 -0.2306164 -1 0 0 -1 0 0 -1 0 0 -1 0 0 -0.9730447 0 0.2306164 -0.9730447 0 0.2306164 -0.9730447 0 0.2306164 -0.9730447 0 0.2306164 -0.8936328 0 0.4487988 -0.8936328 0 0.4487988 -0.8936328 0 0.4487988 -0.8936328 0 0.4487988 -0.7660444 0 0.6427877 -0.7660444 0 0.6427877 -0.7660444 0 0.6427877 -0.7660444 0 0.6427877 -0.5971587 0 0.8021231 -0.5971587 0 0.8021231 -0.5971587 0 0.8021231 -0.5971587 0 0.8021231 -0.39608 0 0.918216 -0.39608 0 0.918216 -0.39608 0 0.918216 -0.39608 0 0.918216 -0.1736476 0 0.9848079 -0.1736476 0 0.9848079 -0.1736476 0 0.9848079 -0.1736476 0 0.9848079 0.05814438 0 0.9983082 0.05814438 0 0.9983082 0.05814438 0 0.9983082 0.05814438 0 0.9983082 0.2868031 0 0.9579896 0.2868031 0 0.9579896 0.2868031 0 0.9579896 0.2868031 0 0.9579896 0.5000006 0 0.8660251 0.5000006 0 0.8660251 0.5000006 0 0.8660251 0.5000006 0 0.8660251 0.6862414 0 0.7273738 0.6862414 0 0.7273738 0.6862414 0 0.7273738 0.835488 0 0.5495087 0.835488 0 0.5495087 0.835488 0 0.5495087 0.6862414 0 0.7273738 0.835488 0 0.5495087 0.9396928 0 0.3420197 0.9396928 0 0.3420197 0.9396928 0 0.3420197 0.9932383 0 0.1160935 0.9932383 0 0.1160935 0.9932383 0 0.1160935 0.9396928 0 0.3420197 0.9932383 0 0.1160935 0 1 0 0 1 0 0 1 0 0 1 0 0 1 0 0 1 0 0 1 0 0 1 0 0 1 0 0 1 0 0 1 0 0 1 0 0 1 0 0 1 0 0 1 0 0 1 0 0 1 0 0 1 0 0 1 0 0 1 0 0 1 0 0 1 0 0 1 0 0 1 0 0 1 0 0 1 0 0 1 0 0 -1 0 0 -1 0 0 -1 0 0 -1 0 0 -1 0 0 -1 0 0 -1 0 0 -1 0 0 -1 0 0 -1 0 0 -1 0 0 -1 0 0 -1 0 0 -1 0 0 -1 0 0 -1 0 0 -1 0 0 -1 0 0 -1 0 0 -1 0 0 -1 0 0 -1 0 0 -1 0 0 -1 0 0 -1 0 0 -1 0 0 -1 0 0.8638065 0.4936035 -0.100965 0.8638065 0.4936035 -0.100965 0.8638065 0.4936035 -0.100965 0.8586869 0.5017828 -0.1042634 0.8586869 0.5017828 -0.1042634 0.8586869 0.5017828 -0.1042634 0.8213591 0.4857965 -0.2989498 0.8213591 0.4857965 -0.2989498 0.8213591 0.4857965 -0.2989498 0.804611 0.5093974 -0.3051484 0.804611 0.5093974 -0.3051484 0.804611 0.5093974 -0.3051484 0.7336277 0.4785085 -0.4825142 0.7336277 0.4785085 -0.4825142 0.7336277 0.4785085 -0.4825142 0.7048219 0.5162757 -0.4865033 0.7048219 0.5162757 -0.4865033 0.7048219 0.5162757 -0.4865033 0.6050758 0.471765 -0.6413432 0.6050758 0.471765 -0.6413432 0.6050758 0.471765 -0.6413432 0.5654269 0.5224445 -0.6382352 0.5654269 0.5224445 -0.6382352 0.5654269 0.5224445 -0.6382352 0.442501 0.4655894 -0.7664329 0.442501 0.4655894 -0.7664329 0.442501 0.4655894 -0.7664329 0.3946824 0.5279318 -0.7520065 0.3946824 0.5279318 -0.7520065 0.3946824 0.5279318 -0.7520065 0.2546567 0.460008 -0.8506131 0.2546567 0.460008 -0.8506131 0.2546567 0.460008 -0.8506131 0.2025262 0.5327528 -0.8216797 0.2025262 0.5327528 -0.8216797 0.2025262 0.5327528 -0.8216797 0.05177613 0.455032 -0.8889686 0.05177613 0.455032 -0.8889686 0.05177613 0.455032 -0.8889686 0 0.5369293 -0.8436272 0 0.5369293 -0.8436272 0 0.5369293 -0.8436272 -0.1550123 0.4506846 -0.8791215 -0.1550123 0.4506846 -0.8791215 -0.1550123 0.4506846 -0.8791215 -0.2013501 0.5404809 -0.8169079 -0.2013501 0.5404809 -0.8169079 -0.2013501 0.5404809 -0.8169079 -0.3543106 0.446982 -0.8213837 -0.3543106 0.446982 -0.8213837 -0.3543106 0.446982 -0.8213837 -0.3901172 0.5434162 -0.7433084 -0.3901172 0.5434162 -0.7433084 -0.3901172 0.5434162 -0.7433084 -0.5350906 0.4439309 -0.7187513 -0.5350906 0.4439309 -0.7187513 -0.5350906 0.4439309 -0.7187513 -0.5556619 0.5457508 -0.6272128 -0.5556619 0.5457508 -0.6272128 -0.5556619 0.5457508 -0.6272128 -0.6873236 0.4415486 -0.5767331 -0.6873236 0.4415486 -0.5767331 -0.6873236 0.4415486 -0.5767331 -0.6886806 0.5474945 -0.4753617 -0.6886806 0.5474945 -0.4753617 -0.6886806 0.5474945 -0.4753617 -0.8025495 0.4398418 -0.4030551 -0.8025495 0.4398418 -0.4030551 -0.8025495 0.4398418 -0.4030551 -0.7817206 0.548653 -0.2964672 -0.7817206 0.548653 -0.2964672 -0.7817206 0.548653 -0.2964672 -0.8743556 0.4388158 -0.2072266 -0.8743556 0.4388158 -0.2072266 -0.8743556 0.4388158 -0.2072266 -0.8295768 0.5492322 -0.1007288 -0.8295768 0.5492322 -0.1007288 -0.8295768 0.5492322 -0.1007288 -0.8987439 0.438474 0 -0.8987439 0.438474 0 -0.8987439 0.438474 0 -0.8295768 0.5492322 0.1007288 -0.8295768 0.5492322 0.1007288 -0.8295768 0.5492322 0.1007288 -0.8743556 0.4388158 0.2072266 -0.8743556 0.4388158 0.2072266 -0.8743556 0.4388158 0.2072266 -0.7817206 0.548653 0.2964672 -0.7817206 0.548653 0.2964672 -0.7817206 0.548653 0.2964672 -0.8025495 0.4398418 0.4030551 -0.8025495 0.4398418 0.4030551 -0.8025495 0.4398418 0.4030551 -0.6886806 0.5474945 0.4753617 -0.6886806 0.5474945 0.4753617 -0.6886806 0.5474945 0.4753617 -0.6873236 0.4415486 0.5767331 -0.6873236 0.4415486 0.5767331 -0.6873236 0.4415486 0.5767331 -0.5556619 0.5457508 0.6272128 -0.5556619 0.5457508 0.6272128 -0.5556619 0.5457508 0.6272128 -0.5350906 0.4439309 0.7187513 -0.5350906 0.4439309 0.7187513 -0.5350906 0.4439309 0.7187513 -0.3901172 0.5434162 0.7433084 -0.3901172 0.5434162 0.7433084 -0.3901172 0.5434162 0.7433084 -0.3543106 0.446982 0.8213837 -0.3543106 0.446982 0.8213837 -0.3543106 0.446982 0.8213837 -0.2013501 0.5404809 0.8169079 -0.2013501 0.5404809 0.8169079 -0.2013501 0.5404809 0.8169079 -0.1550123 0.4506846 0.8791215 -0.1550123 0.4506846 0.8791215 -0.1550123 0.4506846 0.8791215 0 0.5369293 0.8436272 0 0.5369293 0.8436272 0 0.5369293 0.8436272 0.05177613 0.455032 0.8889686 0.05177613 0.455032 0.8889686 0.05177613 0.455032 0.8889686 0.2025262 0.5327528 0.8216797 0.2025262 0.5327528 0.8216797 0.2025262 0.5327528 0.8216797 0.2546567 0.460008 0.8506131 0.2546567 0.460008 0.8506131 0.2546567 0.460008 0.8506131 0.3946824 0.5279318 0.7520065 0.3946824 0.5279318 0.7520065 0.3946824 0.5279318 0.7520065 0.442501 0.4655894 0.7664329 0.442501 0.4655894 0.7664329 0.442501 0.4655894 0.7664329 0.6050758 0.471765 0.6413432 0.6050758 0.471765 0.6413432 0.6050758 0.471765 0.6413432 0.5654269 0.5224445 0.6382352 0.5654269 0.5224445 0.6382352 0.5654269 0.5224445 0.6382352 0.7336277 0.4785085 0.4825142 0.7336277 0.4785085 0.4825142 0.7336277 0.4785085 0.4825142 0.7048219 0.5162757 0.4865033 0.7048219 0.5162757 0.4865033 0.7048219 0.5162757 0.4865033 0.8213591 0.4857965 0.2989498 0.8213591 0.4857965 0.2989498 0.8213591 0.4857965 0.2989498 0.804611 0.5093974 0.3051484 0.804611 0.5093974 0.3051484 0.804611 0.5093974 0.3051484 0.8638065 0.4936035 0.100965 0.8638065 0.4936035 0.100965 0.8638065 0.4936035 0.100965 0.8586869 0.5017828 0.1042634 0.8586869 0.5017828 0.1042634 0.8586869 0.5017828 0.1042634 0 1 0 0 1 0 0 1 0 0 1 0 0 1 0 0 1 0 0 1 0 0 1 0 0 1 0 0 1 0 0 1 0 0 1 0 0 1 0 0 1 0 0 1 0 0 1 0 0 1 0 0 1 0 0 1 0 0 1 0 0 1 0 0 1 0 0 1 0 0 1 0 0 1 0 0 1 0 0 -1 0 0 -1 0 0 -1 0 0 -1 0 0 -1 0 0 -1 0 0 -1 0 0 -1 0 0 -1 0 0 -1 0 0 -1 0 0 -1 0 0 -1 0 0 -1 0 0 -1 0 0 -1 0 0 -1 0 0 -1 0 0 -1 0 0 -1 0 0 -1 0 0 -1 0 0 -1 0 0 -1 0 0 -1 0 0 -1 0 0 -1 0</float_array>
          <technique_common>
            <accessor count="374" source="#normals-array-array" stride="3">
              <param type="float" name="X"/>
              <param type="float" name="Y"/>
              <param type="float" name="Z"/>
            </accessor>
          </technique_common>
        </source>
        <vertices id="verts-array-vertices">
          <input semantic="POSITION" source="#verts-array"/>
        </vertices>
        <triangles count="206" material="material0">
          <input offset="0" semantic="VERTEX" source="#verts-array-vertices"/>
          <input offset="1" semantic="NORMAL" source="#normals-array"/>
          <p>0 0 1 1 2 2 0 0 2 2 3 3 4 4 5 5 6 6 4 4 7 7 5 5 8 8 9 9 10 10 8 8 11 11 9 9 12 12 13 13 14 14 12 12 15 15 13 13 16 16 17 17 18 18 16 16 19 19 17 17 20 20 21 21 22 22 20 20 23 23 21 21 24 24 25 25 26 26 27 27 28 28 29 29 24 24 30 30 25 25 31 31 27 27 29 29 32 32 33 33 34 34 35 35 36 36 37 37 32 32 38 38 33 33 39 39 35 35 37 37 40 40 41 41 42 42 40 40 43 43 41 41 44 44 45 45 46 46 44 44 46 46 47 47 48 48 49 49 50 50 51 51 48 48 50 50 52 52 53 53 54 54 52 52 54 54 55 55 56 56 57 57 58 58 59 59 56 56 58 58 60 60 61 61 62 62 60 60 62 62 63 63 64 64 65 65 66 66 67 67 64 64 66 66 68 68 69 69 70 70 71 71 68 68 70 70 72 72 73 73 74 74 72 72 74 74 75 75 76 76 77 77 78 78 79 79 76 76 78 78 80 80 81 81 82 82 80 80 82 82 83 83 84 84 85 85 86 86 84 84 86 86 87 87 88 88 89 89 90 90 91 91 88 88 90 90 92 92 93 93 94 94 95 95 96 96 97 97 92 92 98 98 93 93 99 99 95 95 97 97 100 100 101 101 102 102 103 103 104 104 105 105 100 100 106 106 101 101 107 107 103 103 105 105 108 108 109 109 110 110 111 111 110 110 112 112 113 113 108 108 110 110 114 114 115 115 116 116 117 117 118 118 119 119 117 117 119 119 113 113 117 117 113 113 110 110 120 120 115 115 114 114 121 121 122 122 117 117 123 123 120 120 124 124 125 125 126 126 121 121 127 127 123 123 128 128 127 127 120 120 123 123 129 129 121 121 117 117 129 129 125 125 121 121 130 130 111 111 115 115 130 130 110 110 111 111 130 130 117 117 110 110 130 130 129 129 117 117 131 131 127 127 132 132 133 133 134 134 130 130 133 133 115 115 120 120 133 133 130 130 115 115 133 133 120 120 127 127 133 133 127 127 131 131 135 135 136 136 137 137 137 137 138 138 139 139 136 136 140 140 137 137 141 141 142 142 143 143 144 144 145 145 146 146 146 146 145 145 140 140 140 140 145 145 137 137 141 141 147 147 142 142 148 148 149 149 145 145 147 147 150 150 151 151 152 152 153 153 149 149 150 150 154 154 155 155 147 147 154 154 150 150 149 149 156 156 145 145 153 153 156 156 149 149 138 138 157 157 141 141 137 137 157 157 138 138 145 145 157 157 137 137 156 156 157 157 145 145 154 154 158 158 159 159 160 160 161 161 157 157 141 141 161 161 147 147 157 157 161 161 141 141 147 147 161 161 154 154 154 154 161 161 158 158 162 162 163 163 164 164 165 165 166 166 167 167 168 168 169 169 170 170 171 171 172 172 173 173 174 174 175 175 176 176 177 177 178 178 179 179 180 180 181 181 182 182 183 183 184 184 185 185 186 186 187 187 188 188 189 189 190 190 191 191 192 192 193 193 194 194 195 195 196 196 197 197 198 198 199 199 200 200 201 201 202 202 203 203 204 204 205 205 206 206 207 207 208 208 209 209 210 210 211 211 212 212 213 213 214 214 215 215 216 216 217 217 218 218 219 219 220 220 221 221 222 222 223 223 224 224 225 225 226 226 227 227 228 228 229 229 230 230 231 231 232 232 233 233 234 234 235 235 236 236 237 237 238 238 239 239 240 240 241 241 242 242 243 243 244 244 245 245 246 246 247 247 248 248 249 249 250 250 251 251 252 252 253 253 254 254 255 255 256 256 257 257 258 258 259 259 260 260 261 261 262 262 263 263 264 264 265 265 266 266 267 267 268 268 269 269 270 270 271 271 272 272 273 273 274 274 275 275 276 276 277 277 278 278 279 279 280 280 281 281 282 282 283 283 284 284 285 285 286 286 287 287 288 288 289 289 290 290 291 291 292 292 293 293 294 294 295 295 296 296 297 297 298 298 299 299 300 300 301 301 302 302 303 303 304 304 305 305 306 306 307 307 308 308 309 309 310 310 311 311 312 312 313 313 314 314 315 315 316 316 317 317 318 318 319 319 320 320 321 321 322 322 323 323 324 324 323 323 325 325 324 324 321 321 323 323 326 326 327 327 328 328 326 326 328 328 321 321 329 329 324 324 330 330 329 329 321 321 324 324 331 331 326 326 321 321 332 332 329 329 333 333 334 334 335 335 336 336 334 334 336 336 331 331 337 337 321 321 329 329 337 337 331 331 321 321 337 337 334 334 331 331 338 338 332 332 339 339 338 338 339 339 340 340 341 341 329 329 332 332 341 341 332 332 338 338 342 342 343 343 337 337 342 342 337 337 329 329 342 342 329 329 341 341 344 344 341 341 345 345 344 344 346 346 342 342 344 344 342 342 341 341 347 347 348 348 349 349 349 349 350 350 351 351 348 348 352 352 349 349 353 353 354 354 355 355 356 356 357 357 358 358 358 358 357 357 352 352 352 352 357 357 349 349 353 353 359 359 354 354 360 360 361 361 357 357 359 359 362 362 363 363 364 364 365 365 361 361 362 362 366 366 367 367 359 359 366 366 362 362 361 361 368 368 357 357 365 365 368 368 361 361 350 350 369 369 353 353 349 349 369 369 350 350 357 357 369 369 349 349 368 368 369 369 357 357 366 366 370 370 371 371 372 372 373 373 369 369 353 353 373 373 359 359 369 369 373 373 353 353 359 359 373 373 366 366 366 366 373 373 370 370</p>
        </triangles>
      </mesh>
    </geometry>
    <geometry id="efe8dc48289a474a986304ea371437ba" name="8f9863f5ef79441cb31c79d14e9038ab">
      <mesh>
        <source id="verts-array">
          <float_array count="2016" id="verts-array-array">0.0378847 0.02 -0.0006300532 0.0378847 0 -0.0006300532 0.03574752 0.02 -0.0123083 0.03402115 0 -0.02174178 0.03402115 0.01455025 -0.02174178 -0.03382544 0 0.02241797 -0.03402115 0 0.02174178 -0.03349838 0 0.02304131 -0.0330532 0 0.0235866 -0.02174178 0 0.03402115 -0.0235866 0 0.0330532 -0.02304131 0 0.03349838 -0.02241797 0 0.03382544 -0.0378847 0 0.0006300532 -0.0006300532 0 0.0378847 -0.03793551 0 0.0002110408 -0.03793551 0 -0.0002110408 0.0002110408 0 0.03793551 -0.0002110408 0 0.03793551 -0.0378847 0 -0.0006300532 0.0006300532 0 0.0378847 0.02174178 0 0.03402115 0.02304131 0 0.03349838 0.02241797 0 0.03382544 -0.03349838 0 -0.02304131 -0.0330532 0 -0.0235866 -0.03382544 0 -0.02241797 -0.03402115 0 -0.02174178 0.0235866 0 0.0330532 0.0330532 0 0.0235866 0.03349838 0 0.02304131 0.03402115 0 0.02174178 0.03382544 0 0.02241797 -0.02241797 0 -0.03382544 -0.02174178 0 -0.03402115 -0.02304131 0 -0.03349838 -0.0235866 0 -0.0330532 -0.0006300532 0 -0.0378847 0.0378847 0 0.0006300532 -0.0002110408 0 -0.03793551 0.0002110408 0 -0.03793551 0.03793551 0 -0.0002110408 0.03793551 0 0.0002110408 0.0006300532 0 -0.0378847 0.0378847 0 -0.0006300532 0.02174178 0 -0.03402115 0.03402115 0 -0.02174178 0.02241797 0 -0.03382544 0.02304131 0 -0.03349838 0.0235866 0 -0.0330532 0.0330532 0 -0.0235866 0.03382544 0 -0.02241797 0.03349838 0 -0.02304131 0.0378847 0 -0.0006300532 0.0378847 0.02 -0.0006300532 0.03793551 0 -0.0002110408 0.03793551 0 -0.0002110408 0.03793551 0.02 -0.0002110408 0.03793551 0 0.0002110408 0.03793551 0.02 -0.0002110408 0.03793551 0.02 0.0002110408 0.03793551 0 0.0002110408 0.0378847 0.02 0.0006300532 0.0378847 0 0.0006300532 0.03793551 0.02 0.0002110408 0.03402115 0.01455025 -0.02174178 0.03402115 0 -0.02174178 0.03382544 0 -0.02241797 0.03373047 0.0150908 -0.02263292 0.03382544 0 -0.02241797 0.03349838 0 -0.02304131 0.03373047 0.0150908 -0.02263292 0.03402115 0.01455025 -0.02174178 0.03382544 0 -0.02241797 0.03343195 0.01541133 -0.02313825 0.03349838 0 -0.02304131 0.0330532 0 -0.0235866 0.03343195 0.01541133 -0.02313825 0.03373047 0.0150908 -0.02263292 0.03349838 0 -0.02304131 0.0330532 0.01570765 -0.0235866 0.03343195 0.01541133 -0.02313825 0.0330532 0 -0.0235866 -0.03492281 0.02 0.01510801 -0.03416099 0.02 0.01657973 -0.03327071 0.02 0.01771224 -0.01510801 0.02 0.03492281 -0.01771224 0.02 0.03327071 -0.01657973 0.02 0.03416099 -0.03574752 0.02 0.0123083 -0.0123083 0.02 0.03574752 -0.0378847 0.02 0.0006300532 -0.0006300532 0.02 0.0378847 -0.03793551 0.02 -0.0002110408 -0.03793551 0.02 0.0002110408 0.0002110408 0.02 0.03793551 -0.0002110408 0.02 0.03793551 -0.0378847 0.02 -0.0006300532 0.0006300532 0.02 0.0378847 -0.03327071 0.02 -0.01771224 -0.03492281 0.02 -0.01510801 -0.03574752 0.02 -0.0123083 -0.03416099 0.02 -0.01657973 0.01771224 0.02 0.03327071 0.0123083 0.02 0.03574752 0.01510801 0.02 0.03492281 0.01657973 0.02 0.03416099 -0.01771224 0.02 -0.03327071 0.03492281 0.02 0.01510801 0.03327071 0.02 0.01771224 0.03416099 0.02 0.01657973 -0.01510801 0.02 -0.03492281 -0.01657973 0.02 -0.03416099 0.03574752 0.02 0.0123083 -0.0123083 0.02 -0.03574752 -0.0006300532 0.02 -0.0378847 0.0378847 0.02 0.0006300532 0.0002110408 0.02 -0.03793551 -0.0002110408 0.02 -0.03793551 0.03793551 0.02 -0.0002110408 0.03793551 0.02 0.0002110408 0.0006300532 0.02 -0.0378847 0.0378847 0.02 -0.0006300532 0.03327071 0.02 -0.01771224 0.03574752 0.02 -0.0123083 0.03492281 0.02 -0.01510801 0.03416099 0.02 -0.01657973 0.01771224 0.02 -0.03327071 0.01630956 0.02 -0.03432548 0.01444652 0.02 -0.03517937 0.0123083 0.02 -0.03574752 0.03492281 0.02 -0.01510801 0.03402115 0.01455025 -0.02174178 0.03373047 0.0150908 -0.02263292 0.03492281 0.02 -0.01510801 0.03373047 0.0150908 -0.02263292 0.03343195 0.01541133 -0.02313825 0.03492281 0.02 -0.01510801 0.03574752 0.02 -0.0123083 0.03402115 0.01455025 -0.02174178 0.03416099 0.02 -0.01657973 0.03343195 0.01541133 -0.02313825 0.0330532 0.01570765 -0.0235866 0.03416099 0.02 -0.01657973 0.0330532 0.01570765 -0.0235866 0.0328264 0.01583483 -0.0238134 0.03416099 0.02 -0.01657973 0.0328264 0.01583483 -0.0238134 0.03257459 0.01592636 -0.02406522 0.03416099 0.02 -0.01657973 0.03492281 0.02 -0.01510801 0.03343195 0.01541133 -0.02313825 0.03327071 0.02 -0.01771224 0.03257459 0.01592636 -0.02406522 0.03229963 0.01598156 -0.02434017 0.03327071 0.02 -0.01771224 0.03229963 0.01598156 -0.02434017 0.03200359 0.016 -0.02463622 0.03327071 0.02 -0.01771224 0.03416099 0.02 -0.01657973 0.03257459 0.01592636 -0.02406522 0.03402115 0.01455025 0.02174178 0.03402115 0 0.02174178 0.03574752 0.02 0.0123083 0.0378847 0 0.0006300532 0.0378847 0.02 0.0006300532 0.0330532 0.01570765 -0.0235866 0.03257459 0.01592636 -0.02406522 0.0328264 0.01583483 -0.0238134 0.0330532 0.01570765 -0.0235866 0.03229963 0.01598156 -0.02434017 0.03257459 0.01592636 -0.02406522 0.0330532 0.01570765 -0.0235866 0.03200359 0.016 -0.02463622 0.03229963 0.01598156 -0.02434017 0.02406522 0.01592636 -0.03257459 0.0235866 0.01570765 -0.0330532 0.0238134 0.01583483 -0.0328264 0.02434017 0.01598156 -0.03229963 0.0235866 0.01570765 -0.0330532 0.02406522 0.01592636 -0.03257459 0.02463622 0.016 -0.03200359 0.0235866 0.01570765 -0.0330532 0.02434017 0.01598156 -0.03229963 0.03200359 0.016 -0.02463622 0.0330532 0 -0.0235866 0.02463622 0.016 -0.03200359 0.0235866 0 -0.0330532 0.03402115 0 0.02174178 0.03402115 0.01455025 0.02174178 0.03382544 0 0.02241797 0.03382544 0 0.02241797 0.03373047 0.0150908 0.02263292 0.03349838 0 0.02304131 0.03402115 0.01455025 0.02174178 0.03373047 0.0150908 0.02263292 0.03382544 0 0.02241797 0.03349838 0 0.02304131 0.03343195 0.01541133 0.02313825 0.0330532 0 0.0235866 0.03373047 0.0150908 0.02263292 0.03343195 0.01541133 0.02313825 0.03349838 0 0.02304131 0.03343195 0.01541133 0.02313825 0.0330532 0.01570765 0.0235866 0.0330532 0 0.0235866 0.02313825 0.01541133 -0.03343195 0.0235866 0.01570765 -0.0330532 0.0235866 0 -0.0330532 0.02313825 0.01541133 -0.03343195 0.0235866 0 -0.0330532 0.02304131 0 -0.03349838 0.02263292 0.0150908 -0.03373047 0.02304131 0 -0.03349838 0.02241797 0 -0.03382544 0.02263292 0.0150908 -0.03373047 0.02313825 0.01541133 -0.03343195 0.02304131 0 -0.03349838 0.02174178 0.01455025 -0.03402115 0.02241797 0 -0.03382544 0.02174178 0 -0.03402115 0.02174178 0.01455025 -0.03402115 0.02263292 0.0150908 -0.03373047 0.02241797 0 -0.03382544 0.0235866 0.01570765 0.0330532 0.02406522 0.01592636 0.03257459 0.0238134 0.01583483 0.0328264 0.0235866 0.01570765 0.0330532 0.02434017 0.01598156 0.03229963 0.02406522 0.01592636 0.03257459 0.0235866 0.01570765 0.0330532 0.02463622 0.016 0.03200359 0.02434017 0.01598156 0.03229963 0.03257459 0.01592636 0.02406522 0.0330532 0.01570765 0.0235866 0.0328264 0.01583483 0.0238134 0.03229963 0.01598156 0.02434017 0.0330532 0.01570765 0.0235866 0.03257459 0.01592636 0.02406522 0.03200359 0.016 0.02463622 0.0330532 0.01570765 0.0235866 0.03229963 0.01598156 0.02434017 0.0235866 0 0.0330532 0.02463622 0.016 0.03200359 0.0330532 0 0.0235866 0.03200359 0.016 0.02463622 0.02174178 0.01455025 -0.03402115 0.02174178 0 -0.03402115 0.0123083 0.02 -0.03574752 0.0006300532 0 -0.0378847 0.0006300532 0.02 -0.0378847 0.02174178 0.01455025 0.03402115 0.02174178 0 0.03402115 0.02241797 0 0.03382544 0.02263292 0.0150908 0.03373047 0.02241797 0 0.03382544 0.02304131 0 0.03349838 0.02263292 0.0150908 0.03373047 0.02174178 0.01455025 0.03402115 0.02241797 0 0.03382544 0.02313825 0.01541133 0.03343195 0.02304131 0 0.03349838 0.0235866 0 0.0330532 0.02313825 0.01541133 0.03343195 0.02263292 0.0150908 0.03373047 0.02304131 0 0.03349838 0.0235866 0.01570765 0.0330532 0.02313825 0.01541133 0.03343195 0.0235866 0 0.0330532 0.0006300532 0.02 -0.0378847 0.0006300532 0 -0.0378847 0.0002110408 0 -0.03793551 0.0002110408 0.02 -0.03793551 0.0002110408 0 -0.03793551 -0.0002110408 0 -0.03793551 0.0002110408 0.02 -0.03793551 -0.0002110408 0.02 -0.03793551 -0.0006300532 0.02 -0.0378847 -0.0002110408 0 -0.03793551 -0.0006300532 0 -0.0378847 -0.0002110408 0.02 -0.03793551 0.0006300532 0.02 0.0378847 0.0006300532 0 0.0378847 0.0123083 0.02 0.03574752 0.02174178 0 0.03402115 0.02174178 0.01455025 0.03402115 -0.0006300532 0.02 -0.0378847 -0.0006300532 0 -0.0378847 -0.0123083 0.02 -0.03574752 -0.02174178 0 -0.03402115 -0.02174178 0.01455025 -0.03402115 -0.0006300532 0.02 0.0378847 -0.0006300532 0 0.0378847 -0.0002110408 0 0.03793551 -0.0002110408 0.02 0.03793551 -0.0002110408 0 0.03793551 0.0002110408 0 0.03793551 -0.0002110408 0.02 0.03793551 0.0002110408 0.02 0.03793551 0.0006300532 0.02 0.0378847 0.0002110408 0 0.03793551 0.0006300532 0 0.0378847 0.0002110408 0.02 0.03793551 -0.02174178 0.01455025 -0.03402115 -0.02174178 0 -0.03402115 -0.02241797 0 -0.03382544 -0.02263292 0.0150908 -0.03373047 -0.02241797 0 -0.03382544 -0.02304131 0 -0.03349838 -0.02263292 0.0150908 -0.03373047 -0.02174178 0.01455025 -0.03402115 -0.02241797 0 -0.03382544 -0.02313825 0.01541133 -0.03343195 -0.02304131 0 -0.03349838 -0.0235866 0 -0.0330532 -0.02313825 0.01541133 -0.03343195 -0.02263292 0.0150908 -0.03373047 -0.02304131 0 -0.03349838 -0.0235866 0.01570765 -0.0330532 -0.02313825 0.01541133 -0.03343195 -0.0235866 0 -0.0330532 -0.02174178 0.01455025 0.03402115 -0.02174178 0 0.03402115 -0.0123083 0.02 0.03574752 -0.0006300532 0 0.0378847 -0.0006300532 0.02 0.0378847 -0.0235866 0.01570765 -0.0330532 -0.02406522 0.01592636 -0.03257459 -0.0238134 0.01583483 -0.0328264 -0.0235866 0.01570765 -0.0330532 -0.02434017 0.01598156 -0.03229963 -0.02406522 0.01592636 -0.03257459 -0.0235866 0.01570765 -0.0330532 -0.02463622 0.016 -0.03200359 -0.02434017 0.01598156 -0.03229963 -0.03257459 0.01592636 -0.02406522 -0.0330532 0.01570765 -0.0235866 -0.0328264 0.01583483 -0.0238134 -0.03229963 0.01598156 -0.02434017 -0.0330532 0.01570765 -0.0235866 -0.03257459 0.01592636 -0.02406522 -0.03200359 0.016 -0.02463622 -0.0330532 0.01570765 -0.0235866 -0.03229963 0.01598156 -0.02434017 -0.0235866 0 -0.0330532 -0.02463622 0.016 -0.03200359 -0.0330532 0 -0.0235866 -0.03200359 0.016 -0.02463622 -0.02313825 0.01541133 0.03343195 -0.0235866 0 0.0330532 -0.02304131 0 0.03349838 -0.02313825 0.01541133 0.03343195 -0.0235866 0.01570765 0.0330532 -0.0235866 0 0.0330532 -0.02263292 0.0150908 0.03373047 -0.02304131 0 0.03349838 -0.02241797 0 0.03382544 -0.02263292 0.0150908 0.03373047 -0.02313825 0.01541133 0.03343195 -0.02304131 0 0.03349838 -0.02174178 0.01455025 0.03402115 -0.02241797 0 0.03382544 -0.02174178 0 0.03402115 -0.02174178 0.01455025 0.03402115 -0.02263292 0.0150908 0.03373047 -0.02241797 0 0.03382544 -0.03343195 0.01541133 -0.02313825 -0.0330532 0 -0.0235866 -0.03349838 0 -0.02304131 -0.03343195 0.01541133 -0.02313825 -0.0330532 0.01570765 -0.0235866 -0.0330532 0 -0.0235866 -0.03373047 0.0150908 -0.02263292 -0.03349838 0 -0.02304131 -0.03382544 0 -0.02241797 -0.03373047 0.0150908 -0.02263292 -0.03343195 0.01541133 -0.02313825 -0.03349838 0 -0.02304131 -0.03402115 0.01455025 -0.02174178 -0.03382544 0 -0.02241797 -0.03402115 0 -0.02174178 -0.03402115 0.01455025 -0.02174178 -0.03373047 0.0150908 -0.02263292 -0.03382544 0 -0.02241797 -0.0330532 0.01570765 0.0235866 -0.03257459 0.01592636 0.02406522 -0.0328264 0.01583483 0.0238134 -0.0330532 0.01570765 0.0235866 -0.03229963 0.01598156 0.02434017 -0.03257459 0.01592636 0.02406522 -0.0330532 0.01570765 0.0235866 -0.03200359 0.016 0.02463622 -0.03229963 0.01598156 0.02434017 -0.02406522 0.01592636 0.03257459 -0.0235866 0.01570765 0.0330532 -0.0238134 0.01583483 0.0328264 -0.02434017 0.01598156 0.03229963 -0.0235866 0.01570765 0.0330532 -0.02406522 0.01592636 0.03257459 -0.02463622 0.016 0.03200359 -0.0235866 0.01570765 0.0330532 -0.02434017 0.01598156 0.03229963 -0.03200359 0.016 0.02463622 -0.0330532 0 0.0235866 -0.02463622 0.016 0.03200359 -0.0235866 0 0.0330532 -0.03402115 0.01455025 -0.02174178 -0.03402115 0 -0.02174178 -0.03574752 0.02 -0.0123083 -0.0378847 0 -0.0006300532 -0.0378847 0.02 -0.0006300532 -0.03402115 0.01455025 0.02174178 -0.03402115 0 0.02174178 -0.03382544 0 0.02241797 -0.03373047 0.0150908 0.02263292 -0.03382544 0 0.02241797 -0.03349838 0 0.02304131 -0.03373047 0.0150908 0.02263292 -0.03402115 0.01455025 0.02174178 -0.03382544 0 0.02241797 -0.03343195 0.01541133 0.02313825 -0.03349838 0 0.02304131 -0.0330532 0 0.0235866 -0.03343195 0.01541133 0.02313825 -0.03373047 0.0150908 0.02263292 -0.03349838 0 0.02304131 -0.0330532 0.01570765 0.0235866 -0.03343195 0.01541133 0.02313825 -0.0330532 0 0.0235866 -0.0378847 0.02 -0.0006300532 -0.0378847 0 -0.0006300532 -0.03793551 0 -0.0002110408 -0.03793551 0.02 -0.0002110408 -0.03793551 0 -0.0002110408 -0.03793551 0 0.0002110408 -0.03793551 0.02 -0.0002110408 -0.03793551 0.02 0.0002110408 -0.03793551 0 0.0002110408 -0.0378847 0 0.0006300532 -0.03793551 0.02 0.0002110408 -0.0378847 0.02 0.0006300532 -0.0378847 0.02 0.0006300532 -0.0378847 0 0.0006300532 -0.03574752 0.02 0.0123083 -0.03402115 0 0.02174178 -0.03402115 0.01455025 0.02174178 0.02463622 0.016 -0.03200359 0.03327071 0.02 -0.01771224 0.03200359 0.016 -0.02463622 0.01771224 0.02 -0.03327071 0.03402115 0.01455025 0.02174178 0.03492281 0.02 0.01510801 0.03373047 0.0150908 0.02263292 0.03373047 0.0150908 0.02263292 0.03492281 0.02 0.01510801 0.03343195 0.01541133 0.02313825 0.03574752 0.02 0.0123083 0.03492281 0.02 0.01510801 0.03402115 0.01455025 0.02174178 0.03343195 0.01541133 0.02313825 0.03416099 0.02 0.01657973 0.0330532 0.01570765 0.0235866 0.0330532 0.01570765 0.0235866 0.03416099 0.02 0.01657973 0.0328264 0.01583483 0.0238134 0.0328264 0.01583483 0.0238134 0.03416099 0.02 0.01657973 0.03257459 0.01592636 0.02406522 0.03492281 0.02 0.01510801 0.03416099 0.02 0.01657973 0.03343195 0.01541133 0.02313825 0.03257459 0.01592636 0.02406522 0.03327071 0.02 0.01771224 0.03229963 0.01598156 0.02434017 0.03229963 0.01598156 0.02434017 0.03327071 0.02 0.01771224 0.03200359 0.016 0.02463622 0.03416099 0.02 0.01657973 0.03327071 0.02 0.01771224 0.03257459 0.01592636 0.02406522 0.01771224 0.02 -0.03327071 0.02406522 0.01592636 -0.03257459 0.0238134 0.01583483 -0.0328264 0.01771224 0.02 -0.03327071 0.02434017 0.01598156 -0.03229963 0.02406522 0.01592636 -0.03257459 0.01771224 0.02 -0.03327071 0.02463622 0.016 -0.03200359 0.02434017 0.01598156 -0.03229963 0.01630956 0.02 -0.03432548 0.0238134 0.01583483 -0.0328264 0.0235866 0.01570765 -0.0330532 0.01630956 0.02 -0.03432548 0.0235866 0.01570765 -0.0330532 0.02313825 0.01541133 -0.03343195 0.01630956 0.02 -0.03432548 0.01771224 0.02 -0.03327071 0.0238134 0.01583483 -0.0328264 0.01444652 0.02 -0.03517937 0.02263292 0.0150908 -0.03373047 0.02174178 0.01455025 -0.03402115 0.01444652 0.02 -0.03517937 0.02313825 0.01541133 -0.03343195 0.02263292 0.0150908 -0.03373047 0.01444652 0.02 -0.03517937 0.01630956 0.02 -0.03432548 0.02313825 0.01541133 -0.03343195 0.0123083 0.02 -0.03574752 0.01444652 0.02 -0.03517937 0.02174178 0.01455025 -0.03402115 0.03327071 0.02 0.01771224 0.02463622 0.016 0.03200359 0.03200359 0.016 0.02463622 0.01771224 0.02 0.03327071 0.01510801 0.02 0.03492281 0.02174178 0.01455025 0.03402115 0.02263292 0.0150908 0.03373047 0.01510801 0.02 0.03492281 0.02263292 0.0150908 0.03373047 0.02313825 0.01541133 0.03343195 0.01510801 0.02 0.03492281 0.0123083 0.02 0.03574752 0.02174178 0.01455025 0.03402115 0.01657973 0.02 0.03416099 0.02313825 0.01541133 0.03343195 0.0235866 0.01570765 0.0330532 0.01657973 0.02 0.03416099 0.0235866 0.01570765 0.0330532 0.0238134 0.01583483 0.0328264 0.01657973 0.02 0.03416099 0.0238134 0.01583483 0.0328264 0.02406522 0.01592636 0.03257459 0.01657973 0.02 0.03416099 0.01510801 0.02 0.03492281 0.02313825 0.01541133 0.03343195 0.01771224 0.02 0.03327071 0.02406522 0.01592636 0.03257459 0.02434017 0.01598156 0.03229963 0.01771224 0.02 0.03327071 0.02434017 0.01598156 0.03229963 0.02463622 0.016 0.03200359 0.01771224 0.02 0.03327071 0.01657973 0.02 0.03416099 0.02406522 0.01592636 0.03257459 -0.01510801 0.02 -0.03492281 -0.02174178 0.01455025 -0.03402115 -0.02263292 0.0150908 -0.03373047 -0.01510801 0.02 -0.03492281 -0.02263292 0.0150908 -0.03373047 -0.02313825 0.01541133 -0.03343195 -0.01510801 0.02 -0.03492281 -0.0123083 0.02 -0.03574752 -0.02174178 0.01455025 -0.03402115 -0.01657973 0.02 -0.03416099 -0.02313825 0.01541133 -0.03343195 -0.0235866 0.01570765 -0.0330532 -0.01657973 0.02 -0.03416099 -0.0235866 0.01570765 -0.0330532 -0.0238134 0.01583483 -0.0328264 -0.01657973 0.02 -0.03416099 -0.0238134 0.01583483 -0.0328264 -0.02406522 0.01592636 -0.03257459 -0.01657973 0.02 -0.03416099 -0.01510801 0.02 -0.03492281 -0.02313825 0.01541133 -0.03343195 -0.01771224 0.02 -0.03327071 -0.02406522 0.01592636 -0.03257459 -0.02434017 0.01598156 -0.03229963 -0.01771224 0.02 -0.03327071 -0.02434017 0.01598156 -0.03229963 -0.02463622 0.016 -0.03200359 -0.01771224 0.02 -0.03327071 -0.01657973 0.02 -0.03416099 -0.02406522 0.01592636 -0.03257459 -0.03327071 0.02 -0.01771224 -0.02463622 0.016 -0.03200359 -0.03200359 0.016 -0.02463622 -0.01771224 0.02 -0.03327071 -0.02174178 0.01455025 0.03402115 -0.01510801 0.02 0.03492281 -0.02263292 0.0150908 0.03373047 -0.02263292 0.0150908 0.03373047 -0.01510801 0.02 0.03492281 -0.02313825 0.01541133 0.03343195 -0.0123083 0.02 0.03574752 -0.01510801 0.02 0.03492281 -0.02174178 0.01455025 0.03402115 -0.02313825 0.01541133 0.03343195 -0.01657973 0.02 0.03416099 -0.0235866 0.01570765 0.0330532 -0.0235866 0.01570765 0.0330532 -0.01657973 0.02 0.03416099 -0.0238134 0.01583483 0.0328264 -0.0238134 0.01583483 0.0328264 -0.01657973 0.02 0.03416099 -0.02406522 0.01592636 0.03257459 -0.01510801 0.02 0.03492281 -0.01657973 0.02 0.03416099 -0.02313825 0.01541133 0.03343195 -0.02406522 0.01592636 0.03257459 -0.01771224 0.02 0.03327071 -0.02434017 0.01598156 0.03229963 -0.02434017 0.01598156 0.03229963 -0.01771224 0.02 0.03327071 -0.02463622 0.016 0.03200359 -0.01657973 0.02 0.03416099 -0.01771224 0.02 0.03327071 -0.02406522 0.01592636 0.03257459 -0.03402115 0.01455025 -0.02174178 -0.03492281 0.02 -0.01510801 -0.03373047 0.0150908 -0.02263292 -0.03373047 0.0150908 -0.02263292 -0.03492281 0.02 -0.01510801 -0.03343195 0.01541133 -0.02313825 -0.03574752 0.02 -0.0123083 -0.03492281 0.02 -0.01510801 -0.03402115 0.01455025 -0.02174178 -0.03343195 0.01541133 -0.02313825 -0.03416099 0.02 -0.01657973 -0.0330532 0.01570765 -0.0235866 -0.0330532 0.01570765 -0.0235866 -0.03416099 0.02 -0.01657973 -0.0328264 0.01583483 -0.0238134 -0.0328264 0.01583483 -0.0238134 -0.03416099 0.02 -0.01657973 -0.03257459 0.01592636 -0.02406522 -0.03492281 0.02 -0.01510801 -0.03416099 0.02 -0.01657973 -0.03343195 0.01541133 -0.02313825 -0.03257459 0.01592636 -0.02406522 -0.03327071 0.02 -0.01771224 -0.03229963 0.01598156 -0.02434017 -0.03229963 0.01598156 -0.02434017 -0.03327071 0.02 -0.01771224 -0.03200359 0.016 -0.02463622 -0.03416099 0.02 -0.01657973 -0.03327071 0.02 -0.01771224 -0.03257459 0.01592636 -0.02406522 -0.02463622 0.016 0.03200359 -0.03327071 0.02 0.01771224 -0.03200359 0.016 0.02463622 -0.01771224 0.02 0.03327071 -0.03492281 0.02 0.01510801 -0.03402115 0.01455025 0.02174178 -0.03373047 0.0150908 0.02263292 -0.03492281 0.02 0.01510801 -0.03373047 0.0150908 0.02263292 -0.03343195 0.01541133 0.02313825 -0.03492281 0.02 0.01510801 -0.03574752 0.02 0.0123083 -0.03402115 0.01455025 0.02174178 -0.03416099 0.02 0.01657973 -0.03343195 0.01541133 0.02313825 -0.0330532 0.01570765 0.0235866 -0.03416099 0.02 0.01657973 -0.0330532 0.01570765 0.0235866 -0.0328264 0.01583483 0.0238134 -0.03416099 0.02 0.01657973 -0.0328264 0.01583483 0.0238134 -0.03257459 0.01592636 0.02406522 -0.03416099 0.02 0.01657973 -0.03492281 0.02 0.01510801 -0.03343195 0.01541133 0.02313825 -0.03327071 0.02 0.01771224 -0.03257459 0.01592636 0.02406522 -0.03229963 0.01598156 0.02434017 -0.03327071 0.02 0.01771224 -0.03229963 0.01598156 0.02434017 -0.03200359 0.016 0.02463622 -0.03327071 0.02 0.01771224 -0.03416099 0.02 0.01657973 -0.03257459 0.01592636 0.02406522</float_array>
          <technique_common>
            <accessor count="672" source="#verts-array-array" stride="3">
              <param type="float" name="X"/>
              <param type="float" name="Y"/>
              <param type="float" name="Z"/>
            </accessor>
          </technique_common>
        </source>
        <source id="normals-array">
          <float_array count="2016" id="normals-array-array">0.9836637 0 -0.1800156 0.9836638 1.090453e-07 -0.1800155 0.9836638 6.196184e-08 -0.1800154 0.9836638 1.183779e-07 -0.1800153 0.9836639 0 -0.180015 0 -1 0 0 -1 0 0 -1 0 0 -1 0 0 -1 0 0 -1 0 0 -1 0 0 -1 0 0 -1 0 0 -1 0 0 -1 0 0 -1 0 0 -1 0 0 -1 0 0 -1 0 0 -1 0 0 -1 0 0 -1 0 0 -1 0 0 -1 0 0 -1 0 0 -1 0 0 -1 0 0 -1 0 0 -1 0 0 -1 0 0 -1 0 0 -1 0 0 -1 0 0 -1 0 0 -1 0 0 -1 0 0 -1 0 0 -1 0 0 -1 0 0 -1 0 0 -1 0 0 -1 0 0 -1 0 0 -1 0 0 -1 0 0 -1 0 0 -1 0 0 -1 0 0 -1 0 0 -1 0 0 -1 0 0 -1 0 0.9927282 0 -0.1203777 0.9927282 0 -0.1203777 0.9927282 0 -0.1203777 1 0 0 1 0 0 1 0 0 0.9927282 0 -0.1203777 1 0 0 0.9927282 0 0.1203777 0.9927282 0 0.1203777 0.9927282 0 0.1203777 0.9927282 0 0.1203777 0.9605747 0 -0.278022 0.9605747 0 -0.278022 0.9605747 0 -0.278022 0.8855115 -0.0010452 -0.4646162 0.8855115 -0.0010452 -0.4646162 0.8855115 -0.0010452 -0.4646162 0.950982 0.00157992 -0.3092423 0.950982 0.00157992 -0.3092423 0.950982 0.00157992 -0.3092423 0.7746294 -0.0006390013 -0.6324151 0.7746294 -0.0006390013 -0.6324151 0.7746294 -0.0006390013 -0.6324151 0.8611329 0.0005140669 -0.5083796 0.8611329 0.0005140669 -0.5083796 0.8611329 0.0005140669 -0.5083796 0.7639092 0 -0.6453237 0.7639092 0 -0.6453237 0.7639092 0 -0.6453237 0 1 0 0 1 0 0 1 0 0 1 0 0 1 0 0 1 0 0 1 0 0 1 0 0 1 0 0 1 0 0 1 0 0 1 0 0 1 0 0 1 0 0 1 0 0 1 0 0 1 0 0 1 0 0 1 0 0 1 0 0 1 0 0 1 0 0 1 0 0 1 0 0 1 0 0 1 0 0 1 0 0 1 0 0 1 0 0 1 0 0 1 0 0 1 0 0 1 0 0 1 0 0 1 0 0 1 0 0 1 0 0 1 0 0 1 0 0 1 0 0 1 0 0 1 0 0 1 0 0 1 0 0 1 0 0 1 0 0 1 0 0 1 0 0.963161 0.1283252 -0.2363335 0.963161 0.1283252 -0.2363335 0.963161 0.1283252 -0.2363335 0.8924719 0.2998422 -0.3370292 0.8924719 0.2998422 -0.3370292 0.8924719 0.2998422 -0.3370292 0.9432002 0.1821507 -0.277839 0.9432002 0.1821507 -0.277839 0.9432002 0.1821507 -0.277839 0.8086448 0.4360164 -0.3949472 0.8086448 0.4360164 -0.3949472 0.8086448 0.4360164 -0.3949472 0.730883 0.524415 -0.4368053 0.730883 0.524415 -0.4368053 0.730883 0.524415 -0.4368053 0.6708292 0.5824078 -0.459118 0.6708292 0.5824078 -0.459118 0.6708292 0.5824078 -0.459118 0.7892191 0.4585158 -0.4085296 0.7892191 0.4585158 -0.4085296 0.7892191 0.4585158 -0.4085296 0.6042367 0.6390277 -0.4759639 0.6042367 0.6390277 -0.4759639 0.6042367 0.6390277 -0.4759639 0.5363057 0.6846089 -0.4936464 0.5363057 0.6846089 -0.4936464 0.5363057 0.6846089 -0.4936464 0.6050961 0.6384297 -0.4756746 0.6050961 0.6384297 -0.4756746 0.6050961 0.6384297 -0.4756746 0.9836639 0 0.180015 0.9836638 1.183779e-07 0.1800153 0.9836638 6.196184e-08 0.1800154 0.9836638 1.090453e-07 0.1800155 0.9836637 0 0.1800156 0.7071109 3.660625e-06 -0.7071026 0.7071386 0.0001031205 -0.707075 0.7071386 0.0001031205 -0.707075 0.7070747 -0.000176631 -0.7071389 0.7070747 -0.000176631 -0.7071389 0.7070747 -0.000176631 -0.7071389 0.7071202 7.385435e-05 -0.7070934 0.7071202 7.385435e-05 -0.7070934 0.7071202 7.385435e-05 -0.7070934 0.707075 0.0001031205 -0.7071386 0.7071026 3.660625e-06 -0.7071109 0.707075 0.0001031205 -0.7071386 0.7071389 -0.000176631 -0.7070747 0.7071389 -0.000176631 -0.7070747 0.7071389 -0.000176631 -0.7070747 0.7070934 7.385435e-05 -0.7071202 0.7070934 7.385435e-05 -0.7071202 0.7070934 7.385435e-05 -0.7071202 0.7071081 -2.322939e-07 -0.7071054 0.707107 -3.873505e-07 -0.7071066 0.7071054 -2.322939e-07 -0.7071081 0.7071066 -3.873505e-07 -0.707107 0.9605747 0 0.278022 0.9605747 0 0.278022 0.9605747 0 0.278022 0.8855115 -0.0010452 0.4646162 0.8855115 -0.0010452 0.4646162 0.8855115 -0.0010452 0.4646162 0.950982 0.00157992 0.3092423 0.950982 0.00157992 0.3092423 0.950982 0.00157992 0.3092423 0.7746294 -0.0006390013 0.6324151 0.7746294 -0.0006390013 0.6324151 0.7746294 -0.0006390013 0.6324151 0.8611329 0.0005140669 0.5083796 0.8611329 0.0005140669 0.5083796 0.8611329 0.0005140669 0.5083796 0.7639092 0 0.6453237 0.7639092 0 0.6453237 0.7639092 0 0.6453237 0.6453237 0 -0.7639092 0.6453237 0 -0.7639092 0.6453237 0 -0.7639092 0.6324151 -0.0006390013 -0.7746294 0.6324151 -0.0006390013 -0.7746294 0.6324151 -0.0006390013 -0.7746294 0.4646162 -0.0010452 -0.8855115 0.4646162 -0.0010452 -0.8855115 0.4646162 -0.0010452 -0.8855115 0.5083796 0.0005140669 -0.8611329 0.5083796 0.0005140669 -0.8611329 0.5083796 0.0005140669 -0.8611329 0.278022 0 -0.9605747 0.278022 0 -0.9605747 0.278022 0 -0.9605747 0.3092423 0.00157992 -0.950982 0.3092423 0.00157992 -0.950982 0.3092423 0.00157992 -0.950982 0.7071026 3.660625e-06 0.7071109 0.707075 0.0001031205 0.7071386 0.707075 0.0001031205 0.7071386 0.7071389 -0.000176631 0.7070747 0.7071389 -0.000176631 0.7070747 0.7071389 -0.000176631 0.7070747 0.7070934 7.385435e-05 0.7071202 0.7070934 7.385435e-05 0.7071202 0.7070934 7.385435e-05 0.7071202 0.7071386 0.0001031205 0.707075 0.7071109 3.660625e-06 0.7071026 0.7071386 0.0001031205 0.707075 0.7070747 -0.000176631 0.7071389 0.7070747 -0.000176631 0.7071389 0.7070747 -0.000176631 0.7071389 0.7071202 7.385435e-05 0.7070934 0.7071202 7.385435e-05 0.7070934 0.7071202 7.385435e-05 0.7070934 0.7071066 -3.873505e-07 0.707107 0.7071054 -2.322939e-07 0.7071081 0.707107 -3.873505e-07 0.7071066 0.7071081 -2.322939e-07 0.7071054 0.180015 0 -0.9836639 0.1800153 1.183779e-07 -0.9836638 0.1800154 6.196184e-08 -0.9836638 0.1800155 1.090453e-07 -0.9836638 0.1800156 0 -0.9836637 0.278022 0 0.9605747 0.278022 0 0.9605747 0.278022 0 0.9605747 0.4646162 -0.0010452 0.8855115 0.4646162 -0.0010452 0.8855115 0.4646162 -0.0010452 0.8855115 0.3092423 0.00157992 0.950982 0.3092423 0.00157992 0.950982 0.3092423 0.00157992 0.950982 0.6324151 -0.0006390013 0.7746294 0.6324151 -0.0006390013 0.7746294 0.6324151 -0.0006390013 0.7746294 0.5083796 0.0005140669 0.8611329 0.5083796 0.0005140669 0.8611329 0.5083796 0.0005140669 0.8611329 0.6453237 0 0.7639092 0.6453237 0 0.7639092 0.6453237 0 0.7639092 0.1203777 0 -0.9927282 0.1203777 0 -0.9927282 0.1203777 0 -0.9927282 0 0 -1 0 0 -1 0 0 -1 0.1203777 0 -0.9927282 0 0 -1 -0.1203777 0 -0.9927282 -0.1203777 0 -0.9927282 -0.1203777 0 -0.9927282 -0.1203777 0 -0.9927282 0.1800156 0 0.9836637 0.1800155 1.090453e-07 0.9836638 0.1800154 6.196184e-08 0.9836638 0.1800153 1.183779e-07 0.9836638 0.180015 0 0.9836639 -0.1800156 0 -0.9836637 -0.1800155 1.090453e-07 -0.9836638 -0.1800154 6.196184e-08 -0.9836638 -0.1800153 1.183779e-07 -0.9836638 -0.180015 0 -0.9836639 -0.1203777 0 0.9927282 -0.1203777 0 0.9927282 -0.1203777 0 0.9927282 0 0 1 0 0 1 0 0 1 -0.1203777 0 0.9927282 0 0 1 0.1203777 0 0.9927282 0.1203777 0 0.9927282 0.1203777 0 0.9927282 0.1203777 0 0.9927282 -0.278022 0 -0.9605747 -0.278022 0 -0.9605747 -0.278022 0 -0.9605747 -0.4646162 -0.0010452 -0.8855115 -0.4646162 -0.0010452 -0.8855115 -0.4646162 -0.0010452 -0.8855115 -0.3092423 0.00157992 -0.950982 -0.3092423 0.00157992 -0.950982 -0.3092423 0.00157992 -0.950982 -0.6324151 -0.0006390013 -0.7746294 -0.6324151 -0.0006390013 -0.7746294 -0.6324151 -0.0006390013 -0.7746294 -0.5083796 0.0005140669 -0.8611329 -0.5083796 0.0005140669 -0.8611329 -0.5083796 0.0005140669 -0.8611329 -0.6453237 0 -0.7639092 -0.6453237 0 -0.7639092 -0.6453237 0 -0.7639092 -0.180015 0 0.9836639 -0.1800153 1.183779e-07 0.9836638 -0.1800154 6.196184e-08 0.9836638 -0.1800155 1.090453e-07 0.9836638 -0.1800156 0 0.9836637 -0.7071026 3.660625e-06 -0.7071109 -0.707075 0.0001031205 -0.7071386 -0.707075 0.0001031205 -0.7071386 -0.7071389 -0.000176631 -0.7070747 -0.7071389 -0.000176631 -0.7070747 -0.7071389 -0.000176631 -0.7070747 -0.7070934 7.385435e-05 -0.7071202 -0.7070934 7.385435e-05 -0.7071202 -0.7070934 7.385435e-05 -0.7071202 -0.7071386 0.0001031205 -0.707075 -0.7071109 3.660625e-06 -0.7071026 -0.7071386 0.0001031205 -0.707075 -0.7070747 -0.000176631 -0.7071389 -0.7070747 -0.000176631 -0.7071389 -0.7070747 -0.000176631 -0.7071389 -0.7071202 7.385435e-05 -0.7070934 -0.7071202 7.385435e-05 -0.7070934 -0.7071202 7.385435e-05 -0.7070934 -0.7071066 -3.873505e-07 -0.707107 -0.7071054 -2.322939e-07 -0.7071081 -0.707107 -3.873505e-07 -0.7071066 -0.7071081 -2.322939e-07 -0.7071054 -0.6324151 -0.0006390013 0.7746294 -0.6324151 -0.0006390013 0.7746294 -0.6324151 -0.0006390013 0.7746294 -0.6453237 0 0.7639092 -0.6453237 0 0.7639092 -0.6453237 0 0.7639092 -0.4646162 -0.0010452 0.8855115 -0.4646162 -0.0010452 0.8855115 -0.4646162 -0.0010452 0.8855115 -0.5083796 0.0005140669 0.8611329 -0.5083796 0.0005140669 0.8611329 -0.5083796 0.0005140669 0.8611329 -0.278022 0 0.9605747 -0.278022 0 0.9605747 -0.278022 0 0.9605747 -0.3092423 0.00157992 0.950982 -0.3092423 0.00157992 0.950982 -0.3092423 0.00157992 0.950982 -0.7746294 -0.0006390013 -0.6324151 -0.7746294 -0.0006390013 -0.6324151 -0.7746294 -0.0006390013 -0.6324151 -0.7639092 0 -0.6453237 -0.7639092 0 -0.6453237 -0.7639092 0 -0.6453237 -0.8855115 -0.0010452 -0.4646162 -0.8855115 -0.0010452 -0.4646162 -0.8855115 -0.0010452 -0.4646162 -0.8611329 0.0005140669 -0.5083796 -0.8611329 0.0005140669 -0.5083796 -0.8611329 0.0005140669 -0.5083796 -0.9605747 0 -0.278022 -0.9605747 0 -0.278022 -0.9605747 0 -0.278022 -0.950982 0.00157992 -0.3092423 -0.950982 0.00157992 -0.3092423 -0.950982 0.00157992 -0.3092423 -0.7071109 3.660625e-06 0.7071026 -0.7071386 0.0001031205 0.707075 -0.7071386 0.0001031205 0.707075 -0.7070747 -0.000176631 0.7071389 -0.7070747 -0.000176631 0.7071389 -0.7070747 -0.000176631 0.7071389 -0.7071202 7.385435e-05 0.7070934 -0.7071202 7.385435e-05 0.7070934 -0.7071202 7.385435e-05 0.7070934 -0.707075 0.0001031205 0.7071386 -0.7071026 3.660625e-06 0.7071109 -0.707075 0.0001031205 0.7071386 -0.7071389 -0.000176631 0.7070747 -0.7071389 -0.000176631 0.7070747 -0.7071389 -0.000176631 0.7070747 -0.7070934 7.385435e-05 0.7071202 -0.7070934 7.385435e-05 0.7071202 -0.7070934 7.385435e-05 0.7071202 -0.7071081 -2.322939e-07 0.7071054 -0.707107 -3.873505e-07 0.7071066 -0.7071054 -2.322939e-07 0.7071081 -0.7071066 -3.873505e-07 0.707107 -0.9836639 0 -0.180015 -0.9836638 1.183779e-07 -0.1800153 -0.9836638 6.196184e-08 -0.1800154 -0.9836638 1.090453e-07 -0.1800155 -0.9836637 0 -0.1800156 -0.9605747 0 0.278022 -0.9605747 0 0.278022 -0.9605747 0 0.278022 -0.8855115 -0.0010452 0.4646162 -0.8855115 -0.0010452 0.4646162 -0.8855115 -0.0010452 0.4646162 -0.950982 0.00157992 0.3092423 -0.950982 0.00157992 0.3092423 -0.950982 0.00157992 0.3092423 -0.7746294 -0.0006390013 0.6324151 -0.7746294 -0.0006390013 0.6324151 -0.7746294 -0.0006390013 0.6324151 -0.8611329 0.0005140669 0.5083796 -0.8611329 0.0005140669 0.5083796 -0.8611329 0.0005140669 0.5083796 -0.7639092 0 0.6453237 -0.7639092 0 0.6453237 -0.7639092 0 0.6453237 -0.9927282 0 -0.1203777 -0.9927282 0 -0.1203777 -0.9927282 0 -0.1203777 -1 0 0 -1 0 0 -1 0 0 -0.9927282 0 -0.1203777 -0.9927282 0 0.1203777 -0.9927282 0 0.1203777 -0.9927282 0 0.1203777 -1 0 0 -0.9927282 0 0.1203777 -0.9836637 0 0.1800156 -0.9836638 1.090453e-07 0.1800155 -0.9836638 6.196184e-08 0.1800154 -0.9836638 1.183779e-07 0.1800153 -0.9836639 0 0.180015 0.4999996 0.7071073 -0.4999996 0.4999996 0.7071073 -0.4999996 0.4999996 0.7071073 -0.4999996 0.4999996 0.7071073 -0.4999996 0.963161 0.1283252 0.2363335 0.963161 0.1283252 0.2363335 0.963161 0.1283252 0.2363335 0.8924719 0.2998422 0.3370292 0.8924719 0.2998422 0.3370292 0.8924719 0.2998422 0.3370292 0.9432002 0.1821507 0.277839 0.9432002 0.1821507 0.277839 0.9432002 0.1821507 0.277839 0.8086448 0.4360164 0.3949472 0.8086448 0.4360164 0.3949472 0.8086448 0.4360164 0.3949472 0.730883 0.524415 0.4368053 0.730883 0.524415 0.4368053 0.730883 0.524415 0.4368053 0.6708292 0.5824078 0.459118 0.6708292 0.5824078 0.459118 0.6708292 0.5824078 0.459118 0.7892191 0.4585158 0.4085296 0.7892191 0.4585158 0.4085296 0.7892191 0.4585158 0.4085296 0.6042367 0.6390277 0.4759639 0.6042367 0.6390277 0.4759639 0.6042367 0.6390277 0.4759639 0.5363057 0.6846089 0.4936464 0.5363057 0.6846089 0.4936464 0.5363057 0.6846089 0.4936464 0.6050961 0.6384297 0.4756746 0.6050961 0.6384297 0.4756746 0.6050961 0.6384297 0.4756746 0.4524102 0.5914972 -0.667425 0.4524102 0.5914972 -0.667425 0.4524102 0.5914972 -0.667425 0.4759639 0.6390277 -0.6042367 0.4759639 0.6390277 -0.6042367 0.4759639 0.6390277 -0.6042367 0.4936464 0.6846089 -0.5363057 0.4936464 0.6846089 -0.5363057 0.4936464 0.6846089 -0.5363057 0.4369856 0.5241896 -0.730937 0.4369856 0.5241896 -0.730937 0.4369856 0.5241896 -0.730937 0.3970562 0.4333423 -0.8090493 0.3970562 0.4333423 -0.8090493 0.3970562 0.4333423 -0.8090493 0.4704295 0.6223537 -0.6255972 0.4704295 0.6223537 -0.6255972 0.4704295 0.6223537 -0.6255972 0.2418622 0.1191091 -0.9629723 0.2418622 0.1191091 -0.9629723 0.2418622 0.1191091 -0.9629723 0.3374252 0.2992604 -0.8925175 0.3374252 0.2992604 -0.8925175 0.3374252 0.2992604 -0.8925175 0.3809421 0.4050581 -0.8311504 0.3809421 0.4050581 -0.8311504 0.3809421 0.4050581 -0.8311504 0.2543779 0.1370594 -0.9573435 0.2543779 0.1370594 -0.9573435 0.2543779 0.1370594 -0.9573435 0.4999996 0.7071073 0.4999996 0.4999996 0.7071073 0.4999996 0.4999996 0.7071073 0.4999996 0.4999996 0.7071073 0.4999996 0.2363335 0.1283252 0.963161 0.2363335 0.1283252 0.963161 0.2363335 0.1283252 0.963161 0.3370292 0.2998422 0.8924719 0.3370292 0.2998422 0.8924719 0.3370292 0.2998422 0.8924719 0.277839 0.1821507 0.9432002 0.277839 0.1821507 0.9432002 0.277839 0.1821507 0.9432002 0.3949472 0.4360164 0.8086448 0.3949472 0.4360164 0.8086448 0.3949472 0.4360164 0.8086448 0.4368053 0.524415 0.730883 0.4368053 0.524415 0.730883 0.4368053 0.524415 0.730883 0.459118 0.5824078 0.6708292 0.459118 0.5824078 0.6708292 0.459118 0.5824078 0.6708292 0.4085296 0.4585158 0.7892191 0.4085296 0.4585158 0.7892191 0.4085296 0.4585158 0.7892191 0.4759639 0.6390277 0.6042367 0.4759639 0.6390277 0.6042367 0.4759639 0.6390277 0.6042367 0.4936464 0.6846089 0.5363057 0.4936464 0.6846089 0.5363057 0.4936464 0.6846089 0.5363057 0.4756746 0.6384297 0.6050961 0.4756746 0.6384297 0.6050961 0.4756746 0.6384297 0.6050961 -0.2363335 0.1283252 -0.963161 -0.2363335 0.1283252 -0.963161 -0.2363335 0.1283252 -0.963161 -0.3370292 0.2998422 -0.8924719 -0.3370292 0.2998422 -0.8924719 -0.3370292 0.2998422 -0.8924719 -0.277839 0.1821507 -0.9432002 -0.277839 0.1821507 -0.9432002 -0.277839 0.1821507 -0.9432002 -0.3949472 0.4360164 -0.8086448 -0.3949472 0.4360164 -0.8086448 -0.3949472 0.4360164 -0.8086448 -0.4368053 0.524415 -0.730883 -0.4368053 0.524415 -0.730883 -0.4368053 0.524415 -0.730883 -0.459118 0.5824078 -0.6708292 -0.459118 0.5824078 -0.6708292 -0.459118 0.5824078 -0.6708292 -0.4085296 0.4585158 -0.7892191 -0.4085296 0.4585158 -0.7892191 -0.4085296 0.4585158 -0.7892191 -0.4759639 0.6390277 -0.6042367 -0.4759639 0.6390277 -0.6042367 -0.4759639 0.6390277 -0.6042367 -0.4936464 0.6846089 -0.5363057 -0.4936464 0.6846089 -0.5363057 -0.4936464 0.6846089 -0.5363057 -0.4756746 0.6384297 -0.6050961 -0.4756746 0.6384297 -0.6050961 -0.4756746 0.6384297 -0.6050961 -0.4999996 0.7071073 -0.4999996 -0.4999996 0.7071073 -0.4999996 -0.4999996 0.7071073 -0.4999996 -0.4999996 0.7071073 -0.4999996 -0.2363335 0.1283252 0.963161 -0.2363335 0.1283252 0.963161 -0.2363335 0.1283252 0.963161 -0.3370292 0.2998422 0.8924719 -0.3370292 0.2998422 0.8924719 -0.3370292 0.2998422 0.8924719 -0.277839 0.1821507 0.9432002 -0.277839 0.1821507 0.9432002 -0.277839 0.1821507 0.9432002 -0.3949472 0.4360164 0.8086448 -0.3949472 0.4360164 0.8086448 -0.3949472 0.4360164 0.8086448 -0.4368053 0.524415 0.730883 -0.4368053 0.524415 0.730883 -0.4368053 0.524415 0.730883 -0.459118 0.5824078 0.6708292 -0.459118 0.5824078 0.6708292 -0.459118 0.5824078 0.6708292 -0.4085296 0.4585158 0.7892191 -0.4085296 0.4585158 0.7892191 -0.4085296 0.4585158 0.7892191 -0.4759639 0.6390277 0.6042367 -0.4759639 0.6390277 0.6042367 -0.4759639 0.6390277 0.6042367 -0.4936464 0.6846089 0.5363057 -0.4936464 0.6846089 0.5363057 -0.4936464 0.6846089 0.5363057 -0.4756746 0.6384297 0.6050961 -0.4756746 0.6384297 0.6050961 -0.4756746 0.6384297 0.6050961 -0.963161 0.1283252 -0.2363335 -0.963161 0.1283252 -0.2363335 -0.963161 0.1283252 -0.2363335 -0.8924719 0.2998422 -0.3370292 -0.8924719 0.2998422 -0.3370292 -0.8924719 0.2998422 -0.3370292 -0.9432002 0.1821507 -0.277839 -0.9432002 0.1821507 -0.277839 -0.9432002 0.1821507 -0.277839 -0.8086448 0.4360164 -0.3949472 -0.8086448 0.4360164 -0.3949472 -0.8086448 0.4360164 -0.3949472 -0.730883 0.524415 -0.4368053 -0.730883 0.524415 -0.4368053 -0.730883 0.524415 -0.4368053 -0.6708292 0.5824078 -0.459118 -0.6708292 0.5824078 -0.459118 -0.6708292 0.5824078 -0.459118 -0.7892191 0.4585158 -0.4085296 -0.7892191 0.4585158 -0.4085296 -0.7892191 0.4585158 -0.4085296 -0.6042367 0.6390277 -0.4759639 -0.6042367 0.6390277 -0.4759639 -0.6042367 0.6390277 -0.4759639 -0.5363057 0.6846089 -0.4936464 -0.5363057 0.6846089 -0.4936464 -0.5363057 0.6846089 -0.4936464 -0.6050961 0.6384297 -0.4756746 -0.6050961 0.6384297 -0.4756746 -0.6050961 0.6384297 -0.4756746 -0.4999996 0.7071073 0.4999996 -0.4999996 0.7071073 0.4999996 -0.4999996 0.7071073 0.4999996 -0.4999996 0.7071073 0.4999996 -0.963161 0.1283252 0.2363335 -0.963161 0.1283252 0.2363335 -0.963161 0.1283252 0.2363335 -0.8924719 0.2998422 0.3370292 -0.8924719 0.2998422 0.3370292 -0.8924719 0.2998422 0.3370292 -0.9432002 0.1821507 0.277839 -0.9432002 0.1821507 0.277839 -0.9432002 0.1821507 0.277839 -0.8086448 0.4360164 0.3949472 -0.8086448 0.4360164 0.3949472 -0.8086448 0.4360164 0.3949472 -0.730883 0.524415 0.4368053 -0.730883 0.524415 0.4368053 -0.730883 0.524415 0.4368053 -0.6708292 0.5824078 0.459118 -0.6708292 0.5824078 0.459118 -0.6708292 0.5824078 0.459118 -0.7892191 0.4585158 0.4085296 -0.7892191 0.4585158 0.4085296 -0.7892191 0.4585158 0.4085296 -0.6042367 0.6390277 0.4759639 -0.6042367 0.6390277 0.4759639 -0.6042367 0.6390277 0.4759639 -0.5363057 0.6846089 0.4936464 -0.5363057 0.6846089 0.4936464 -0.5363057 0.6846089 0.4936464 -0.6050961 0.6384297 0.4756746 -0.6050961 0.6384297 0.4756746 -0.6050961 0.6384297 0.4756746</float_array>
          <technique_common>
            <accessor count="672" source="#normals-array-array" stride="3">
              <param type="float" name="X"/>
              <param type="float" name="Y"/>
              <param type="float" name="Z"/>
            </accessor>
          </technique_common>
        </source>
        <vertices id="verts-array-vertices">
          <input semantic="POSITION" source="#verts-array"/>
        </vertices>
        <triangles count="316" material="material1">
          <input offset="0" semantic="VERTEX" source="#verts-array-vertices"/>
          <input offset="1" semantic="NORMAL" source="#normals-array"/>
          <p>0 0 1 1 2 2 2 2 3 3 4 4 1 1 3 3 2 2 5 5 6 6 7 7 7 7 6 6 8 8 8 8 9 9 10 10 10 10 9 9 11 11 11 11 9 9 12 12 6 6 9 9 8 8 6 6 13 13 9 9 13 13 14 14 9 9 15 15 16 16 13 13 14 14 17 17 18 18 16 16 19 19 13 13 13 13 19 19 14 14 14 14 20 20 17 17 19 19 20 20 14 14 21 21 22 22 23 23 24 24 25 25 26 26 26 26 25 25 27 27 21 21 28 28 22 22 21 21 29 29 28 28 30 30 31 31 32 32 29 29 31 31 30 30 21 21 31 31 29 29 33 33 34 34 35 35 35 35 34 34 36 36 36 36 34 34 25 25 27 27 34 34 19 19 25 25 34 34 27 27 34 34 37 37 19 19 19 19 37 37 20 20 37 37 38 38 20 20 20 20 38 38 21 21 21 21 38 38 31 31 39 39 40 40 37 37 38 38 41 41 42 42 40 40 43 43 37 37 43 43 44 44 37 37 37 37 44 44 38 38 38 38 44 44 41 41 45 45 46 46 43 43 43 43 46 46 44 44 47 47 48 48 45 45 48 48 49 49 45 45 46 46 50 50 51 51 51 51 50 50 52 52 45 45 50 50 46 46 49 49 50 50 45 45 53 53 54 54 55 55 56 56 57 57 58 58 54 54 59 59 55 55 57 57 60 60 58 58 61 61 62 62 63 63 64 64 62 62 61 61 65 65 66 66 67 67 68 68 69 69 70 70 71 71 72 72 73 73 74 74 75 75 76 76 77 77 78 78 79 79 80 80 81 81 82 82 83 83 84 84 85 85 86 86 87 87 88 88 89 89 83 83 85 85 90 90 87 87 86 86 91 91 89 89 85 85 92 92 87 87 90 90 93 93 94 94 91 91 95 95 92 92 96 96 97 97 91 91 85 85 97 97 93 93 91 91 98 98 92 92 95 95 99 99 100 100 101 101 99 99 102 102 100 100 99 99 101 101 97 97 99 99 97 97 85 85 103 103 85 85 87 87 103 103 98 98 104 104 103 103 104 104 105 105 103 103 105 105 106 106 103 103 87 87 92 92 103 103 92 92 98 98 107 107 99 99 85 85 108 108 109 109 110 110 111 111 112 112 107 107 113 113 109 109 108 108 114 114 111 111 107 107 115 115 114 114 107 107 116 116 109 109 113 113 117 117 118 118 115 115 119 119 116 116 120 120 121 121 117 117 115 115 122 122 109 109 116 116 122 122 116 116 119 119 123 123 122 122 124 124 123 123 124 124 125 125 123 123 125 125 126 126 123 123 109 109 122 122 123 123 103 103 109 109 123 123 85 85 103 103 127 127 107 107 85 85 127 127 128 128 129 129 127 127 129 129 130 130 127 127 130 130 121 121 127 127 115 115 107 107 127 127 121 121 115 115 127 127 85 85 123 123 131 131 132 132 133 133 134 134 135 135 136 136 137 137 138 138 139 139 140 140 141 141 142 142 143 143 144 144 145 145 146 146 147 147 148 148 149 149 150 150 151 151 152 152 153 153 154 154 155 155 156 156 157 157 158 158 159 159 160 160 161 161 162 162 163 163 163 163 164 164 165 165 162 162 164 164 163 163 166 166 167 167 168 168 169 169 170 170 171 171 172 172 173 173 174 174 175 175 176 176 177 177 178 178 179 179 180 180 181 181 182 182 183 183 184 184 185 185 186 186 166 166 185 185 184 184 185 185 187 187 186 186 186 186 187 187 176 176 188 188 189 189 190 190 191 191 192 192 193 193 194 194 195 195 196 196 197 197 198 198 199 199 200 200 201 201 202 202 203 203 204 204 205 205 206 206 207 207 208 208 209 209 210 210 211 211 212 212 213 213 214 214 215 215 216 216 217 217 218 218 219 219 220 220 221 221 222 222 223 223 224 224 225 225 226 226 227 227 228 228 229 229 230 230 231 231 232 232 233 233 234 234 235 235 236 236 237 237 238 238 239 239 240 240 241 241 224 224 242 242 243 243 243 243 244 244 245 245 242 242 244 244 243 243 245 245 244 244 234 234 246 246 247 247 248 248 248 248 249 249 250 250 247 247 249 249 248 248 251 251 252 252 253 253 254 254 255 255 256 256 257 257 258 258 259 259 260 260 261 261 262 262 263 263 264 264 265 265 266 266 267 267 268 268 269 269 270 270 271 271 272 272 273 273 274 274 275 275 269 269 271 271 276 276 272 272 274 274 277 277 278 278 279 279 277 277 280 280 278 278 281 281 282 282 283 283 283 283 284 284 285 285 282 282 284 284 283 283 286 286 287 287 288 288 288 288 289 289 290 290 287 287 289 289 288 288 291 291 292 292 293 293 294 294 295 295 296 296 297 297 291 291 293 293 298 298 294 294 296 296 299 299 300 300 301 301 299 299 302 302 300 300 303 303 304 304 305 305 306 306 307 307 308 308 309 309 310 310 311 311 312 312 313 313 314 314 315 315 316 316 317 317 318 318 319 319 320 320 321 321 322 322 323 323 323 323 324 324 325 325 322 322 324 324 323 323 326 326 327 327 328 328 329 329 330 330 331 331 332 332 333 333 334 334 335 335 336 336 337 337 338 338 339 339 340 340 341 341 342 342 343 343 326 326 344 344 345 345 345 345 346 346 347 347 344 344 346 346 345 345 347 347 346 346 336 336 348 348 349 349 350 350 351 351 352 352 353 353 354 354 355 355 356 356 357 357 358 358 359 359 360 360 361 361 362 362 363 363 364 364 365 365 366 366 367 367 368 368 369 369 370 370 371 371 372 372 373 373 374 374 375 375 376 376 377 377 378 378 379 379 380 380 381 381 382 382 383 383 384 384 385 385 386 386 387 387 388 388 389 389 390 390 391 391 392 392 393 393 394 394 395 395 396 396 397 397 398 398 399 399 400 400 401 401 402 402 403 403 404 404 384 384 403 403 402 402 403 403 405 405 404 404 404 404 405 405 394 394 406 406 407 407 408 408 408 408 409 409 410 410 407 407 409 409 408 408 411 411 412 412 413 413 414 414 415 415 416 416 417 417 418 418 419 419 420 420 421 421 422 422 423 423 424 424 425 425 426 426 427 427 428 428 429 429 430 430 431 431 432 432 433 433 434 434 435 435 429 429 431 431 436 436 437 437 438 438 439 439 432 432 434 434 440 440 436 436 438 438 441 441 442 442 443 443 443 443 444 444 445 445 442 442 444 444 443 443 446 446 447 447 448 448 449 449 447 447 446 446 450 450 451 451 452 452 453 453 454 454 455 455 456 456 457 457 458 458 459 459 460 460 461 461 462 462 463 463 464 464 465 465 466 466 467 467 468 468 469 469 470 470 471 471 472 472 473 473 474 474 475 475 476 476 477 477 478 478 479 479 480 480 481 481 482 482 483 483 484 484 485 485 486 486 487 487 488 488 489 489 490 490 491 491 492 492 493 493 494 494 495 495 496 496 497 497 498 498 499 499 500 500 501 501 502 502 503 503 504 504 505 505 506 506 507 507 508 508 509 509 510 510 511 511 512 512 510 510 513 513 511 511 514 514 515 515 516 516 517 517 518 518 519 519 520 520 521 521 522 522 523 523 524 524 525 525 526 526 527 527 528 528 529 529 530 530 531 531 532 532 533 533 534 534 535 535 536 536 537 537 538 538 539 539 540 540 541 541 542 542 543 543 544 544 545 545 546 546 547 547 548 548 549 549 550 550 551 551 552 552 553 553 554 554 555 555 556 556 557 557 558 558 559 559 560 560 561 561 562 562 563 563 564 564 565 565 566 566 567 567 568 568 569 569 570 570 571 571 572 572 573 573 574 574 575 575 576 576 574 574 577 577 575 575 578 578 579 579 580 580 581 581 582 582 583 583 584 584 585 585 586 586 587 587 588 588 589 589 590 590 591 591 592 592 593 593 594 594 595 595 596 596 597 597 598 598 599 599 600 600 601 601 602 602 603 603 604 604 605 605 606 606 607 607 608 608 609 609 610 610 611 611 612 612 613 613 614 614 615 615 616 616 617 617 618 618 619 619 620 620 621 621 622 622 623 623 624 624 625 625 626 626 627 627 628 628 629 629 630 630 631 631 632 632 633 633 634 634 635 635 636 636 637 637 638 638 639 639 640 640 641 641 639 639 638 638 642 642 643 643 644 644 645 645 646 646 647 647 648 648 649 649 650 650 651 651 652 652 653 653 654 654 655 655 656 656 657 657 658 658 659 659 660 660 661 661 662 662 663 663 664 664 665 665 666 666 667 667 668 668 669 669 670 670 671 671</p>
        </triangles>
      </mesh>
    </geometry>
  </library_geometries>
  <library_materials>
    <material id="a66c1af37abd45a580f87d74e9cb3dbf" name="pbrmaterial">
      <instance_effect url="#b4e2d367b452431ea0a81b424ab8e1e5"/>
    </material>
    <material id="72eff08281724ab08d4c211ffd166f39" name="pbrmaterial">
      <instance_effect url="#86a312d7634e46b0895b55e004585551"/>
    </material>
  </library_materials>
  <library_visual_scenes>
    <visual_scene id="scene">
      <node id="node0" name="node0">
        <instance_geometry url="#8acf5ff8577147ca844e89ed7a47eb7e">
          <bind_material>
            <technique_common>
              <instance_material symbol="material0" target="#a66c1af37abd45a580f87d74e9cb3dbf"/>
            </technique_common>
          </bind_material>
        </instance_geometry>
      </node>
      <node id="node1" name="node1">
        <instance_geometry url="#efe8dc48289a474a986304ea371437ba">
          <bind_material>
            <technique_common>
              <instance_material symbol="material1" target="#72eff08281724ab08d4c211ffd166f39"/>
            </technique_common>
          </bind_material>
        </instance_geometry>
      </node>
    </visual_scene>
  </library_visual_scenes>
  <scene>
    <instance_visual_scene url="#scene"/>
  </scene>
</COLLADA>
