<COLLADA xmlns="http://www.collada.org/2005/11/COLLADASchema" version="1.4.1">
  <asset>
    <created>2026-08-07T10:27:59.802842</created>
    <modified>2026-08-07T10:27:59.802845</modified>
    <up_axis>Y_UP</up_axis>
  </asset>
  <library_effects>
    <effect id="463ba95eb252405ab91e7b15d2f62c87" name="463ba95eb252405ab91e7b15d2f62c87">
      <profile_COMMON>
        <technique sid="common">
          <phong>
            <ambient>
              <color>0.0 0.0 0.0 1.0</color>
            </ambient>
            <diffuse>
              <color>0.0784313725490196 0.0784313725490196 0.09019607843137255 1.0</color>
            </diffuse>
            <specular>
              <color>1.0 1.0 1.0 1.0</color>
            </specular>
            <shininess>
              <float>0.06598803534436781</float>
            </shininess>
            <reflective>
              <color>0.0 0.0 0.0 1.0</color>
            </reflective>
            <reflectivity>
              <float>0.0</float>
            </reflectivity>
            <transparent>
              <color>0.0 0.0 0.0 1.0</color>
            </transparent>
            <transparency>
              <float>1.0</float>
            </transparency>
          </phong>
        </technique>
        <extra>
          <technique profile="GOOGLEEARTH">
            <double_sided>0</double_sided>
          </technique>
        </extra>
      </profile_COMMON>
    </effect>
    <effect id="634f6115434b4456a57b6327907a193b" name="634f6115434b4456a57b6327907a193b">
      <profile_COMMON>
        <technique sid="common">
          <phong>
            <ambient>
              <color>0.0 0.0 0.0 1.0</color>
            </ambient>
            <diffuse>
              <color>0.2196078431372549 0.2196078431372549 0.23921568627450981 1.0</color>
            </diffuse>
            <specular>
              <color>1.0 1.0 1.0 1.0</color>
            </specular>
            <shininess>
              <float>0.06598803534436781</float>
            </shininess>
            <reflective>
              <color>0.0 0.0 0.0 1.0</color>
            </reflective>
            <reflectivity>
              <float>0.0</float>
            </reflectivity>
            <transparent>
              <color>0.0 0.0 0.0 1.0</color>
            </transparent>
            <transparency>
              <float>1.0</float>
            </transparency>
          </phong>
        </technique>
        <extra>
          <technique profile="GOOGLEEARTH">
            <double_sided>0</double_sided>
          </technique>
        </extra>
      </profile_COMMON>
    </effect>
  </library_effects>
  <library_geometries>
    <geometry id="dc37900efabd4776a53628fcba47c5db" name="dd620c23e8294aed904d0daf40b3bd10">
      <mesh>
        <source id="verts-array">
          <float_array count="1362" id="verts-array-array">-0.0278 0.0187 -0.0178 -0.0278 0.0187 0.0178 -0.0278 0.0237 -0.0178 -0.0278 0.0237 0.0178 -0.0178 0.0237 0.0278 -0.0278 0.0237 0.0178 -0.02731057 0.0237 0.02089017 -0.02589017 0.0237 0.02367785 -0.02367785 0.0237 0.02589017 -0.02089017 0.0237 0.02731057 -0.0278 0.0237 -0.0178 -0.02589017 0.0237 -0.02367785 -0.02731057 0.0237 -0.02089017 0.02367785 0.0237 0.02589017 0.0178 0.0237 0.0278 0.02089017 0.0237 0.02731057 0.02731057 0.0237 0.02089017 0.02589017 0.0237 0.02367785 0.0278 0.0237 0.0178 -0.0178 0.0237 -0.0278 -0.02367785 0.0237 -0.02589017 -0.02089017 0.0237 -0.02731057 0.0278 0.0237 -0.0178 0.0178 0.0237 -0.0278 0.02589017 0.0237 -0.02367785 0.02731057 0.0237 -0.02089017 0.02367785 0.0237 -0.02589017 0.02089017 0.0237 -0.02731057 -0.02731057 0.0237 0.02089017 -0.0278 0.0187 0.0178 -0.02731057 0.0187 0.02089017 -0.0278 0.0237 0.0178 -0.02589017 0.0237 0.02367785 -0.02731057 0.0187 0.02089017 -0.02589017 0.0187 0.02367785 -0.02731057 0.0237 0.02089017 -0.02367785 0.0237 0.02589017 -0.02589017 0.0187 0.02367785 -0.02367785 0.0187 0.02589017 -0.02589017 0.0237 0.02367785 -0.02089017 0.0237 0.02731057 -0.02367785 0.0187 0.02589017 -0.02089017 0.0187 0.02731057 -0.02089017 0.0237 0.02731057 -0.02089017 0.0187 0.02731057 -0.0178 0.0187 0.0278 -0.02367785 0.0237 0.02589017 -0.0178 0.0237 0.0278 -0.0278 0.0187 -0.0178 -0.02731057 0.0237 -0.02089017 -0.02731057 0.0187 -0.02089017 -0.0278 0.0237 -0.0178 -0.02731057 0.0187 -0.02089017 -0.02589017 0.0237 -0.02367785 -0.02589017 0.0187 -0.02367785 -0.02731057 0.0237 -0.02089017 -0.02589017 0.0187 -0.02367785 -0.02367785 0.0237 -0.02589017 -0.02367785 0.0187 -0.02589017 -0.02589017 0.0237 -0.02367785 -0.02367785 0.0187 -0.02589017 -0.02089017 0.0237 -0.02731057 -0.02089017 0.0187 -0.02731057 -0.02089017 0.0187 -0.02731057 -0.02089017 0.0237 -0.02731057 -0.0178 0.0187 -0.0278 -0.02367785 0.0237 -0.02589017 -0.0178 0.0237 -0.0278 -0.0278 0.0187 0.0178 -0.0178 0.0187 0.0278 -0.02731057 0.0187 0.02089017 -0.02589017 0.0187 0.02367785 -0.02367785 0.0187 0.02589017 -0.02089017 0.0187 0.02731057 -0.0278 0.0187 -0.0178 -0.02731057 0.0187 -0.02089017 -0.02589017 0.0187 -0.02367785 0.0178 0.0187 0.0278 0.02367785 0.0187 0.02589017 0.02089017 0.0187 0.02731057 0.02731057 0.0187 0.02089017 0.02589017 0.0187 0.02367785 0.0278 0.0187 0.0178 -0.02367785 0.0187 -0.02589017 -0.0178 0.0187 -0.0278 -0.02089017 0.0187 -0.02731057 0.0278 0.0187 -0.0178 0.0178 0.0187 -0.0278 0.02589017 0.0187 -0.02367785 0.02731057 0.0187 -0.02089017 0.02089017 0.0187 -0.02731057 0.02367785 0.0187 -0.02589017 -0.0178 0.0187 0.0278 0.0178 0.0187 0.0278 -0.0178 0.0237 0.0278 0.0178 0.0237 0.0278 0.0178 0.0187 -0.0278 -0.0178 0.0187 -0.0278 -0.0178 0.0237 -0.0278 0.0178 0.0237 -0.0278 0.0278 0.0187 0.0178 0.02731057 0.0237 0.02089017 0.02731057 0.0187 0.02089017 0.0278 0.0237 0.0178 0.02731057 0.0187 0.02089017 0.02589017 0.0237 0.02367785 0.02589017 0.0187 0.02367785 0.02731057 0.0237 0.02089017 0.02589017 0.0187 0.02367785 0.02367785 0.0237 0.02589017 0.02367785 0.0187 0.02589017 0.02589017 0.0237 0.02367785 0.02367785 0.0187 0.02589017 0.02089017 0.0237 0.02731057 0.02089017 0.0187 0.02731057 0.02089017 0.0187 0.02731057 0.02089017 0.0237 0.02731057 0.0178 0.0187 0.0278 0.02367785 0.0237 0.02589017 0.0178 0.0237 0.0278 0.02731057 0.0237 -0.02089017 0.0278 0.0187 -0.0178 0.02731057 0.0187 -0.02089017 0.0278 0.0237 -0.0178 0.02589017 0.0237 -0.02367785 0.02731057 0.0187 -0.02089017 0.02589017 0.0187 -0.02367785 0.02731057 0.0237 -0.02089017 0.02367785 0.0237 -0.02589017 0.02589017 0.0187 -0.02367785 0.02367785 0.0187 -0.02589017 0.02589017 0.0237 -0.02367785 0.02089017 0.0237 -0.02731057 0.02367785 0.0187 -0.02589017 0.02089017 0.0187 -0.02731057 0.02089017 0.0237 -0.02731057 0.02089017 0.0187 -0.02731057 0.0178 0.0187 -0.0278 0.02367785 0.0237 -0.02589017 0.0178 0.0237 -0.0278 0.0278 0.0187 0.0178 0.0278 0.0187 -0.0178 0.0278 0.0237 -0.0178 0.0278 0.0237 0.0178 0.02465068 0.0385 -0.006906797 0.0256 0.0385 6.270192e-18 0.0256 0.0237 6.270192e-18 0.02465068 0.0237 -0.006906797 0.02187314 0.0385 -0.01330135 0.02465068 0.0237 -0.006906797 0.02187314 0.0237 -0.01330135 0.02465068 0.0385 -0.006906797 0.01747336 0.0385 -0.0187094 0.02187314 0.0237 -0.01330135 0.01747336 0.0237 -0.0187094 0.02187314 0.0385 -0.01330135 0.01177767 0.0385 -0.02272986 0.01747336 0.0237 -0.0187094 0.01177767 0.0237 -0.02272986 0.01747336 0.0385 -0.0187094 0.005208474 0.0385 -0.02506455 0.01177767 0.0237 -0.02272986 0.005208474 0.0237 -0.02506455 0.005208474 0.0385 -0.02506455 0.005208474 0.0237 -0.02506455 -0.001747006 0.0237 -0.02554032 0.01177767 0.0385 -0.02272986 -0.001747006 0.0385 -0.02554032 -0.008572918 0.0385 -0.02412188 -0.001747006 0.0237 -0.02554032 -0.008572918 0.0237 -0.02412188 -0.001747006 0.0385 -0.02554032 -0.01476302 0.0385 -0.02091443 -0.008572918 0.0237 -0.02412188 -0.01476302 0.0237 -0.02091443 -0.008572918 0.0385 -0.02412188 -0.01985821 0.0385 -0.01615585 -0.01476302 0.0237 -0.02091443 -0.01985821 0.0237 -0.01615585 -0.01476302 0.0385 -0.02091443 -0.02348061 0.0385 -0.01019907 -0.01985821 0.0237 -0.01615585 -0.02348061 0.0237 -0.01019907 -0.01985821 0.0385 -0.01615585 -0.02536156 0.0385 -0.003485866 -0.02348061 0.0237 -0.01019907 -0.02536156 0.0237 -0.003485866 -0.02348061 0.0385 -0.01019907 -0.02536156 0.0385 0.003485866 -0.02536156 0.0237 -0.003485866 -0.02536156 0.0237 0.003485866 -0.02536156 0.0385 -0.003485866 -0.02348061 0.0385 0.01019907 -0.02536156 0.0385 0.003485866 -0.02536156 0.0237 0.003485866 -0.02348061 0.0237 0.01019907 -0.01985821 0.0385 0.01615585 -0.02348061 0.0385 0.01019907 -0.02348061 0.0237 0.01019907 -0.01985821 0.0237 0.01615585 -0.01476302 0.0385 0.02091443 -0.01985821 0.0385 0.01615585 -0.01985821 0.0237 0.01615585 -0.01476302 0.0237 0.02091443 -0.008572918 0.0385 0.02412188 -0.01476302 0.0385 0.02091443 -0.01476302 0.0237 0.02091443 -0.008572918 0.0237 0.02412188 -0.008572918 0.0385 0.02412188 -0.008572918 0.0237 0.02412188 -0.001747006 0.0237 0.02554032 -0.001747006 0.0385 0.02554032 0.005208474 0.0385 0.02506455 -0.001747006 0.0385 0.02554032 -0.001747006 0.0237 0.02554032 0.005208474 0.0237 0.02506455 0.01177767 0.0385 0.02272986 0.005208474 0.0385 0.02506455 0.005208474 0.0237 0.02506455 0.01177767 0.0237 0.02272986 0.01747336 0.0385 0.0187094 0.01177767 0.0385 0.02272986 0.01177767 0.0237 0.02272986 0.01747336 0.0237 0.0187094 0.02187314 0.0385 0.01330135 0.01747336 0.0385 0.0187094 0.01747336 0.0237 0.0187094 0.02187314 0.0237 0.01330135 0.02465068 0.0385 0.006906797 0.02187314 0.0385 0.01330135 0.02187314 0.0237 0.01330135 0.02465068 0.0237 0.006906797 0.0256 0.0385 6.270192e-18 0.02465068 0.0385 0.006906797 0.02465068 0.0237 0.006906797 0.0256 0.0237 6.270192e-18 -0.02348061 0.0385 0.01019907 -0.01985821 0.0385 0.01615585 -0.01476302 0.0385 0.02091443 -0.008572918 0.0385 0.02412188 -0.02536156 0.0385 -0.003485866 -0.02536156 0.0385 0.003485866 0.005208474 0.0385 0.02506455 -0.001747006 0.0385 0.02554032 -0.01985821 0.0385 -0.01615585 -0.02348061 0.0385 -0.01019907 0.01747336 0.0385 0.0187094 0.01177767 0.0385 0.02272986 -0.008572918 0.0385 -0.02412188 -0.01476302 0.0385 -0.02091443 0.02465068 0.0385 0.006906797 0.02187314 0.0385 0.01330135 -0.001747006 0.0385 -0.02554032 0.02465068 0.0385 -0.006906797 0.0256 0.0385 6.270192e-18 0.01177767 0.0385 -0.02272986 0.005208474 0.0385 -0.02506455 0.01747336 0.0385 -0.0187094 0.02187314 0.0385 -0.01330135 -0.01985821 0.0237 0.01615585 -0.02348061 0.0237 0.01019907 -0.01476302 0.0237 0.02091443 -0.008572918 0.0237 0.02412188 -0.02536156 0.0237 0.003485866 -0.02536156 0.0237 -0.003485866 0.005208474 0.0237 0.02506455 -0.001747006 0.0237 0.02554032 -0.02348061 0.0237 -0.01019907 -0.01985821 0.0237 -0.01615585 0.01747336 0.0237 0.0187094 0.01177767 0.0237 0.02272986 -0.01476302 0.0237 -0.02091443 -0.008572918 0.0237 -0.02412188 0.02465068 0.0237 0.006906797 0.02187314 0.0237 0.01330135 -0.001747006 0.0237 -0.02554032 0.02465068 0.0237 -0.006906797 0.0256 0.0237 6.270192e-18 0.005208474 0.0237 -0.02506455 0.01177767 0.0237 -0.02272986 0.01747336 0.0237 -0.0187094 0.02187314 0.0237 -0.01330135 0.0195 0.0413 4.776122e-18 0.0256 0.0385 6.270192e-18 0.02465068 0.0385 -0.006906797 0.0185456 0.0413 -0.006025831 0.02465068 0.0385 -0.006906797 0.02187314 0.0385 -0.01330135 0.0185456 0.0413 -0.006025831 0.0195 0.0413 4.776122e-18 0.02465068 0.0385 -0.006906797 0.01577583 0.0413 -0.01146181 0.02187314 0.0385 -0.01330135 0.01747336 0.0385 -0.0187094 0.01577583 0.0413 -0.01146181 0.0185456 0.0413 -0.006025831 0.02187314 0.0385 -0.01330135 0.01146181 0.0413 -0.01577583 0.01747336 0.0385 -0.0187094 0.01177767 0.0385 -0.02272986 0.01146181 0.0413 -0.01577583 0.01577583 0.0413 -0.01146181 0.01747336 0.0385 -0.0187094 0.006025831 0.0413 -0.0185456 0.01177767 0.0385 -0.02272986 0.005208474 0.0385 -0.02506455 0.006025831 0.0413 -0.0185456 0.01146181 0.0413 -0.01577583 0.01177767 0.0385 -0.02272986 1.194031e-18 0.0413 -0.0195 0.005208474 0.0385 -0.02506455 -0.001747006 0.0385 -0.02554032 1.194031e-18 0.0413 -0.0195 0.006025831 0.0413 -0.0185456 0.005208474 0.0385 -0.02506455 -0.006025831 0.0413 -0.0185456 -0.001747006 0.0385 -0.02554032 -0.008572918 0.0385 -0.02412188 -0.006025831 0.0413 -0.0185456 1.194031e-18 0.0413 -0.0195 -0.001747006 0.0385 -0.02554032 -0.01146181 0.0413 -0.01577583 -0.008572918 0.0385 -0.02412188 -0.01476302 0.0385 -0.02091443 -0.01146181 0.0413 -0.01577583 -0.01476302 0.0385 -0.02091443 -0.01985821 0.0385 -0.01615585 -0.01146181 0.0413 -0.01577583 -0.006025831 0.0413 -0.0185456 -0.008572918 0.0385 -0.02412188 -0.01577583 0.0413 -0.01146181 -0.01985821 0.0385 -0.01615585 -0.02348061 0.0385 -0.01019907 -0.01577583 0.0413 -0.01146181 -0.01146181 0.0413 -0.01577583 -0.01985821 0.0385 -0.01615585 -0.0185456 0.0413 -0.006025831 -0.02348061 0.0385 -0.01019907 -0.02536156 0.0385 -0.003485866 -0.0185456 0.0413 -0.006025831 -0.01577583 0.0413 -0.01146181 -0.02348061 0.0385 -0.01019907 -0.0195 0.0413 -2.388061e-18 -0.02536156 0.0385 -0.003485866 -0.02536156 0.0385 0.003485866 -0.0195 0.0413 -2.388061e-18 -0.0185456 0.0413 -0.006025831 -0.02536156 0.0385 -0.003485866 -0.0185456 0.0413 0.006025831 -0.02536156 0.0385 0.003485866 -0.02348061 0.0385 0.01019907 -0.0185456 0.0413 0.006025831 -0.0195 0.0413 -2.388061e-18 -0.02536156 0.0385 0.003485866 -0.01577583 0.0413 0.01146181 -0.02348061 0.0385 0.01019907 -0.01985821 0.0385 0.01615585 -0.01577583 0.0413 0.01146181 -0.0185456 0.0413 0.006025831 -0.02348061 0.0385 0.01019907 -0.01146181 0.0413 0.01577583 -0.01985821 0.0385 0.01615585 -0.01476302 0.0385 0.02091443 -0.01146181 0.0413 0.01577583 -0.01476302 0.0385 0.02091443 -0.008572918 0.0385 0.02412188 -0.01146181 0.0413 0.01577583 -0.01577583 0.0413 0.01146181 -0.01985821 0.0385 0.01615585 -0.006025831 0.0413 0.0185456 -0.01146181 0.0413 0.01577583 -0.008572918 0.0385 0.02412188 -0.006025831 0.0413 0.0185456 -0.008572918 0.0385 0.02412188 -0.001747006 0.0385 0.02554032 -3.582092e-18 0.0413 0.0195 -0.006025831 0.0413 0.0185456 -0.001747006 0.0385 0.02554032 -3.582092e-18 0.0413 0.0195 -0.001747006 0.0385 0.02554032 0.005208474 0.0385 0.02506455 0.006025831 0.0413 0.0185456 -3.582092e-18 0.0413 0.0195 0.005208474 0.0385 0.02506455 0.006025831 0.0413 0.0185456 0.005208474 0.0385 0.02506455 0.01177767 0.0385 0.02272986 0.01146181 0.0413 0.01577583 0.006025831 0.0413 0.0185456 0.01177767 0.0385 0.02272986 0.01146181 0.0413 0.01577583 0.01177767 0.0385 0.02272986 0.01747336 0.0385 0.0187094 0.01577583 0.0413 0.01146181 0.01146181 0.0413 0.01577583 0.01747336 0.0385 0.0187094 0.01577583 0.0413 0.01146181 0.01747336 0.0385 0.0187094 0.02187314 0.0385 0.01330135 0.0185456 0.0413 0.006025831 0.01577583 0.0413 0.01146181 0.02187314 0.0385 0.01330135 0.0185456 0.0413 0.006025831 0.02187314 0.0385 0.01330135 0.02465068 0.0385 0.006906797 0.0195 0.0413 4.776122e-18 0.0185456 0.0413 0.006025831 0.02465068 0.0385 0.006906797 0.0195 0.0413 4.776122e-18 0.02465068 0.0385 0.006906797 0.0256 0.0385 6.270192e-18 -0.006025831 0.0413 0.0185456 -0.01577583 0.0413 0.01146181 -0.01146181 0.0413 0.01577583 -0.0185456 0.0413 -0.006025831 -0.0195 0.0413 -2.388061e-18 -0.0185456 0.0413 0.006025831 0.01146181 0.0413 0.01577583 -3.582092e-18 0.0413 0.0195 0.006025831 0.0413 0.0185456 -0.01146181 0.0413 -0.01577583 -0.01577583 0.0413 -0.01146181 0.0185456 0.0413 0.006025831 0.01577583 0.0413 0.01146181 0.0195 0.0413 4.776122e-18 1.194031e-18 0.0413 -0.0195 -0.006025831 0.0413 -0.0185456 0.006025831 0.0413 -0.0185456 0.01146181 0.0413 -0.01577583 0.01577583 0.0413 -0.01146181 0.0185456 0.0413 -0.006025831 -0.01985821 0.0385 0.01615585 -0.02348061 0.0385 0.01019907 -0.01476302 0.0385 0.02091443 -0.008572918 0.0385 0.02412188 -0.02536156 0.0385 0.003485866 -0.02536156 0.0385 -0.003485866 0.005208474 0.0385 0.02506455 -0.001747006 0.0385 0.02554032 -0.02348061 0.0385 -0.01019907 -0.01985821 0.0385 -0.01615585 0.01747336 0.0385 0.0187094 0.01177767 0.0385 0.02272986 -0.01476302 0.0385 -0.02091443 -0.008572918 0.0385 -0.02412188 0.02465068 0.0385 0.006906797 0.02187314 0.0385 0.01330135 -0.001747006 0.0385 -0.02554032 0.02465068 0.0385 -0.006906797 0.0256 0.0385 6.270192e-18 0.005208474 0.0385 -0.02506455 0.01177767 0.0385 -0.02272986 0.01747336 0.0385 -0.0187094 0.02187314 0.0385 -0.01330135</float_array>
          <technique_common>
            <accessor count="454" source="#verts-array-array" stride="3">
              <param type="float" name="X"/>
              <param type="float" name="Y"/>
              <param type="float" name="Z"/>
            </accessor>
          </technique_common>
        </source>
        <source id="normals-array">
          <float_array count="1362" id="normals-array-array">-1 0 0 -1 0 0 -1 0 0 -1 0 0 0 1 0 0 1 0 0 1 0 0 1 0 0 1 0 0 1 0 0 1 0 0 1 0 0 1 0 0 1 0 0 1 0 0 1 0 0 1 0 0 1 0 0 1 0 0 1 0 0 1 0 0 1 0 0 1 0 0 1 0 0 1 0 0 1 0 0 1 0 0 1 0 -0.9876887 0 0.1564325 -0.9876887 0 0.1564325 -0.9876887 0 0.1564325 -0.9876887 0 0.1564325 -0.8910056 0 0.4539924 -0.8910056 0 0.4539924 -0.8910056 0 0.4539924 -0.8910056 0 0.4539924 -0.7071068 0 0.7071068 -0.7071068 0 0.7071068 -0.7071068 0 0.7071068 -0.7071068 0 0.7071068 -0.4539924 0 0.8910056 -0.4539924 0 0.8910056 -0.4539924 0 0.8910056 -0.1564325 0 0.9876887 -0.1564325 0 0.9876887 -0.1564325 0 0.9876887 -0.4539924 0 0.8910056 -0.1564325 0 0.9876887 -0.9876887 0 -0.1564325 -0.9876887 0 -0.1564325 -0.9876887 0 -0.1564325 -0.9876887 0 -0.1564325 -0.8910056 0 -0.4539924 -0.8910056 0 -0.4539924 -0.8910056 0 -0.4539924 -0.8910056 0 -0.4539924 -0.7071068 0 -0.7071068 -0.7071068 0 -0.7071068 -0.7071068 0 -0.7071068 -0.7071068 0 -0.7071068 -0.4539924 0 -0.8910056 -0.4539924 0 -0.8910056 -0.4539924 0 -0.8910056 -0.1564325 0 -0.9876887 -0.1564325 0 -0.9876887 -0.1564325 0 -0.9876887 -0.4539924 0 -0.8910056 -0.1564325 0 -0.9876887 0 -1 0 0 -1 0 0 -1 0 0 -1 0 0 -1 0 0 -1 0 0 -1 0 0 -1 0 0 -1 0 0 -1 0 0 -1 0 0 -1 0 0 -1 0 0 -1 0 0 -1 0 0 -1 0 0 -1 0 0 -1 0 0 -1 0 0 -1 0 0 -1 0 0 -1 0 0 -1 0 0 -1 0 0 0 1 0 0 1 0 0 1 0 0 1 0 0 -1 0 0 -1 0 0 -1 0 0 -1 0.9876887 0 0.1564325 0.9876887 0 0.1564325 0.9876887 0 0.1564325 0.9876887 0 0.1564325 0.8910056 0 0.4539924 0.8910056 0 0.4539924 0.8910056 0 0.4539924 0.8910056 0 0.4539924 0.7071068 0 0.7071068 0.7071068 0 0.7071068 0.7071068 0 0.7071068 0.7071068 0 0.7071068 0.4539924 0 0.8910056 0.4539924 0 0.8910056 0.4539924 0 0.8910056 0.1564325 0 0.9876887 0.1564325 0 0.9876887 0.1564325 0 0.9876887 0.4539924 0 0.8910056 0.1564325 0 0.9876887 0.9876887 0 -0.1564325 0.9876887 0 -0.1564325 0.9876887 0 -0.1564325 0.9876887 0 -0.1564325 0.8910056 0 -0.4539924 0.8910056 0 -0.4539924 0.8910056 0 -0.4539924 0.8910056 0 -0.4539924 0.7071068 0 -0.7071068 0.7071068 0 -0.7071068 0.7071068 0 -0.7071068 0.7071068 0 -0.7071068 0.4539924 0 -0.8910056 0.4539924 0 -0.8910056 0.4539924 0 -0.8910056 0.1564325 0 -0.9876887 0.1564325 0 -0.9876887 0.1564325 0 -0.9876887 0.4539924 0 -0.8910056 0.1564325 0 -0.9876887 1 0 0 1 0 0 1 0 0 1 0 0 0.9906859 0 -0.1361669 0.9906859 0 -0.1361669 0.9906859 0 -0.1361669 0.9906859 0 -0.1361669 0.9172117 0 -0.3984002 0.9172117 0 -0.3984002 0.9172117 0 -0.3984002 0.9172117 0 -0.3984002 0.775711 0 -0.6310884 0.775711 0 -0.6310884 0.775711 0 -0.6310884 0.775711 0 -0.6310884 0.5766806 0 -0.8169697 0.5766806 0 -0.8169697 0.5766806 0 -0.8169697 0.5766806 0 -0.8169697 0.3348792 0 -0.9422611 0.3348792 0 -0.9422611 0.3348792 0 -0.9422611 0.0682427 0 -0.9976687 0.0682427 0 -0.9976687 0.0682427 0 -0.9976687 0.3348792 0 -0.9422611 0.0682427 0 -0.9976687 -0.2034558 0 -0.9790841 -0.2034558 0 -0.9790841 -0.2034558 0 -0.9790841 -0.2034558 0 -0.9790841 -0.4600649 0 -0.8878853 -0.4600649 0 -0.8878853 -0.4600649 0 -0.8878853 -0.4600649 0 -0.8878853 -0.6825535 0 -0.7308356 -0.6825535 0 -0.7308356 -0.6825535 0 -0.7308356 -0.6825535 0 -0.7308356 -0.8544192 0 -0.5195843 -0.8544192 0 -0.5195843 -0.8544192 0 -0.5195843 -0.8544192 0 -0.5195843 -0.9629174 0 -0.2697965 -0.9629174 0 -0.2697965 -0.9629174 0 -0.2697965 -0.9629174 0 -0.2697965 -1 0 0 -1 0 0 -1 0 0 -1 0 0 -0.9629174 0 0.2697965 -0.9629174 0 0.2697965 -0.9629174 0 0.2697965 -0.9629174 0 0.2697965 -0.8544192 0 0.5195843 -0.8544192 0 0.5195843 -0.8544192 0 0.5195843 -0.8544192 0 0.5195843 -0.6825535 0 0.7308356 -0.6825535 0 0.7308356 -0.6825535 0 0.7308356 -0.6825535 0 0.7308356 -0.4600649 0 0.8878853 -0.4600649 0 0.8878853 -0.4600649 0 0.8878853 -0.4600649 0 0.8878853 -0.2034558 0 0.9790841 -0.2034558 0 0.9790841 -0.2034558 0 0.9790841 -0.2034558 0 0.9790841 0.0682427 0 0.9976687 0.0682427 0 0.9976687 0.0682427 0 0.9976687 0.0682427 0 0.9976687 0.3348792 0 0.9422611 0.3348792 0 0.9422611 0.3348792 0 0.9422611 0.3348792 0 0.9422611 0.5766806 0 0.8169697 0.5766806 0 0.8169697 0.5766806 0 0.8169697 0.5766806 0 0.8169697 0.775711 0 0.6310884 0.775711 0 0.6310884 0.775711 0 0.6310884 0.775711 0 0.6310884 0.9172117 0 0.3984002 0.9172117 0 0.3984002 0.9172117 0 0.3984002 0.9172117 0 0.3984002 0.9906859 0 0.1361669 0.9906859 0 0.1361669 0.9906859 0 0.1361669 0.9906859 0 0.1361669 0 1 0 0 1 0 0 1 0 0 1 0 0 1 0 0 1 0 0 1 0 0 1 0 0 1 0 0 1 0 0 1 0 0 1 0 0 1 0 0 1 0 0 1 0 0 1 0 0 1 0 0 1 0 0 1 0 0 1 0 0 1 0 0 1 0 0 1 0 0 -1 0 0 -1 0 0 -1 0 0 -1 0 0 -1 0 0 -1 0 0 -1 0 0 -1 0 0 -1 0 0 -1 0 0 -1 0 0 -1 0 0 -1 0 0 -1 0 0 -1 0 0 -1 0 0 -1 0 0 -1 0 0 -1 0 0 -1 0 0 -1 0 0 -1 0 0 -1 0 0.4164835 0.9073393 -0.05724446 0.4164835 0.9073393 -0.05724446 0.4164835 0.9073393 -0.05724446 0.3905122 0.9048361 -0.1696229 0.3905122 0.9048361 -0.1696229 0.3905122 0.9048361 -0.1696229 0.4082835 0.9105618 -0.06466595 0.4082835 0.9105618 -0.06466595 0.4082835 0.9105618 -0.06466595 0.3330117 0.9031626 -0.2709254 0.3330117 0.9031626 -0.2709254 0.3330117 0.9031626 -0.2709254 0.3634186 0.9130381 -0.1851711 0.3634186 0.9130381 -0.1851711 0.3634186 0.9130381 -0.1851711 0.2485066 0.9023873 -0.3520534 0.2485066 0.9023873 -0.3520534 0.2485066 0.9023873 -0.3520534 0.2862285 0.9144105 -0.2862285 0.2862285 0.9144105 -0.2862285 0.2862285 0.9144105 -0.2862285 0.1441989 0.902543 -0.4057373 0.1441989 0.902543 -0.4057373 0.1441989 0.902543 -0.4057373 0.1834225 0.9147489 -0.3599869 0.1834225 0.9147489 -0.3599869 0.1834225 0.9147489 -0.3599869 0.02923029 0.9036231 -0.4273299 0.02923029 0.9036231 -0.4273299 0.02923029 0.9036231 -0.4273299 0.06344315 0.9140701 -0.4005631 0.06344315 0.9140701 -0.4005631 0.06344315 0.9140701 -0.4005631 -0.08629981 0.9055827 -0.4152979 -0.08629981 0.9055827 -0.4152979 -0.08629981 0.9055827 -0.4152979 -0.06404959 0.9123403 -0.404392 -0.06404959 0.9123403 -0.404392 -0.06404959 0.9123403 -0.404392 -0.1924123 0.9083418 -0.371339 -0.1924123 0.9083418 -0.371339 -0.1924123 0.9083418 -0.371339 -0.2882976 0.9064184 -0.308691 -0.2882976 0.9064184 -0.308691 -0.2882976 0.9064184 -0.308691 -0.1887546 0.9094708 -0.3704517 -0.1887546 0.9094708 -0.3704517 -0.1887546 0.9094708 -0.3704517 -0.364963 0.904182 -0.2219391 -0.364963 0.904182 -0.2219391 -0.364963 0.904182 -0.2219391 -0.2908071 0.9115166 -0.2908071 -0.2908071 0.9115166 -0.2908071 -0.2908071 0.9115166 -0.2908071 -0.414109 0.9028019 -0.1160278 -0.414109 0.9028019 -0.1160278 -0.414109 0.9028019 -0.1160278 -0.3622686 0.9136136 -0.1845851 -0.3622686 0.9136136 -0.1845851 -0.3622686 0.9136136 -0.1845851 -0.431035 0.9023352 0 -0.431035 0.9023352 0 -0.431035 0.9023352 0 -0.3993004 0.9146363 -0.06324316 -0.3993004 0.9146363 -0.06324316 -0.3993004 0.9146363 -0.06324316 -0.414109 0.9028019 0.1160278 -0.414109 0.9028019 0.1160278 -0.414109 0.9028019 0.1160278 -0.3993004 0.9146363 0.06324316 -0.3993004 0.9146363 0.06324316 -0.3993004 0.9146363 0.06324316 -0.364963 0.904182 0.2219391 -0.364963 0.904182 0.2219391 -0.364963 0.904182 0.2219391 -0.3622686 0.9136136 0.1845851 -0.3622686 0.9136136 0.1845851 -0.3622686 0.9136136 0.1845851 -0.2882976 0.9064184 0.308691 -0.2882976 0.9064184 0.308691 -0.2882976 0.9064184 0.308691 -0.1924123 0.9083418 0.371339 -0.1924123 0.9083418 0.371339 -0.1924123 0.9083418 0.371339 -0.2908071 0.9115166 0.2908071 -0.2908071 0.9115166 0.2908071 -0.2908071 0.9115166 0.2908071 -0.1887546 0.9094708 0.3704517 -0.1887546 0.9094708 0.3704517 -0.1887546 0.9094708 0.3704517 -0.08629981 0.9055827 0.4152979 -0.08629981 0.9055827 0.4152979 -0.08629981 0.9055827 0.4152979 -0.06404959 0.9123403 0.404392 -0.06404959 0.9123403 0.404392 -0.06404959 0.9123403 0.404392 0.02923029 0.9036231 0.4273299 0.02923029 0.9036231 0.4273299 0.02923029 0.9036231 0.4273299 0.06344315 0.9140701 0.4005631 0.06344315 0.9140701 0.4005631 0.06344315 0.9140701 0.4005631 0.1441989 0.902543 0.4057373 0.1441989 0.902543 0.4057373 0.1441989 0.902543 0.4057373 0.1834225 0.9147489 0.3599869 0.1834225 0.9147489 0.3599869 0.1834225 0.9147489 0.3599869 0.2485066 0.9023873 0.3520534 0.2485066 0.9023873 0.3520534 0.2485066 0.9023873 0.3520534 0.2862285 0.9144105 0.2862285 0.2862285 0.9144105 0.2862285 0.2862285 0.9144105 0.2862285 0.3330117 0.9031626 0.2709254 0.3330117 0.9031626 0.2709254 0.3330117 0.9031626 0.2709254 0.3634186 0.9130381 0.1851711 0.3634186 0.9130381 0.1851711 0.3634186 0.9130381 0.1851711 0.3905122 0.9048361 0.1696229 0.3905122 0.9048361 0.1696229 0.3905122 0.9048361 0.1696229 0.4082835 0.9105618 0.06466595 0.4082835 0.9105618 0.06466595 0.4082835 0.9105618 0.06466595 0.4164835 0.9073393 0.05724446 0.4164835 0.9073393 0.05724446 0.4164835 0.9073393 0.05724446 0 1 0 0 1 0 0 1 0 0 1 0 0 1 0 0 1 0 0 1 0 0 1 0 0 1 0 0 1 0 0 1 0 0 1 0 0 1 0 0 1 0 0 1 0 0 1 0 0 1 0 0 1 0 0 1 0 0 1 0 0 -1 0 0 -1 0 0 -1 0 0 -1 0 0 -1 0 0 -1 0 0 -1 0 0 -1 0 0 -1 0 0 -1 0 0 -1 0 0 -1 0 0 -1 0 0 -1 0 0 -1 0 0 -1 0 0 -1 0 0 -1 0 0 -1 0 0 -1 0 0 -1 0 0 -1 0 0 -1 0</float_array>
          <technique_common>
            <accessor count="454" source="#normals-array-array" stride="3">
              <param type="float" name="X"/>
              <param type="float" name="Y"/>
              <param type="float" name="Z"/>
            </accessor>
          </technique_common>
        </source>
        <vertices id="verts-array-vertices">
          <input semantic="POSITION" source="#verts-array"/>
        </vertices>
        <triangles count="262" material="material0">
          <input offset="0" semantic="VERTEX" source="#verts-array-vertices"/>
          <input offset="1" semantic="NORMAL" source="#normals-array"/>
          <p>0 0 1 1 2 2 1 1 3 3 2 2 4 4 5 5 6 6 4 4 6 6 7 7 4 4 7 7 8 8 4 4 8 8 9 9 10 10 5 5 4 4 11 11 12 12 10 10 13 13 14 14 15 15 16 16 13 13 17 17 18 18 14 14 13 13 18 18 13 13 16 16 19 19 20 20 11 11 19 19 21 21 20 20 19 19 11 11 10 10 22 22 4 4 14 14 22 22 23 23 19 19 22 22 10 10 4 4 22 22 14 14 18 18 22 22 19 19 10 10 24 24 22 22 25 25 26 26 27 27 23 23 26 26 23 23 22 22 26 26 22 22 24 24 28 28 29 29 30 30 28 28 31 31 29 29 32 32 33 33 34 34 32 32 35 35 33 33 36 36 37 37 38 38 36 36 39 39 37 37 40 40 41 41 42 42 43 43 44 44 45 45 40 40 46 46 41 41 47 47 43 43 45 45 48 48 49 49 50 50 51 51 49 49 48 48 52 52 53 53 54 54 55 55 53 53 52 52 56 56 57 57 58 58 59 59 57 57 56 56 60 60 61 61 62 62 63 63 64 64 65 65 66 66 61 61 60 60 64 64 67 67 65 65 68 68 69 69 70 70 70 70 69 69 71 71 71 71 69 69 72 72 72 72 69 69 73 73 68 68 74 74 69 69 75 75 76 76 74 74 77 77 78 78 79 79 78 78 80 80 81 81 77 77 82 82 78 78 78 78 82 82 80 80 83 83 84 84 76 76 85 85 84 84 83 83 76 76 84 84 74 74 69 69 86 86 77 77 87 87 86 86 84 84 74 74 86 86 69 69 77 77 86 86 82 82 84 84 86 86 74 74 86 86 88 88 89 89 90 90 91 91 87 87 87 87 91 91 86 86 86 86 91 91 88 88 92 92 93 93 94 94 93 93 95 95 94 94 96 96 97 97 98 98 99 99 96 96 98 98 100 100 101 101 102 102 103 103 101 101 100 100 104 104 105 105 106 106 107 107 105 105 104 104 108 108 109 109 110 110 111 111 109 109 108 108 112 112 113 113 114 114 115 115 116 116 117 117 118 118 113 113 112 112 116 116 119 119 117 117 120 120 121 121 122 122 120 120 123 123 121 121 124 124 125 125 126 126 124 124 127 127 125 125 128 128 129 129 130 130 128 128 131 131 129 129 132 132 133 133 134 134 135 135 136 136 137 137 132 132 138 138 133 133 139 139 135 135 137 137 140 140 141 141 142 142 143 143 140 140 142 142 144 144 145 145 146 146 144 144 146 146 147 147 148 148 149 149 150 150 148 148 151 151 149 149 152 152 153 153 154 154 152 152 155 155 153 153 156 156 157 157 158 158 156 156 159 159 157 157 160 160 161 161 162 162 163 163 164 164 165 165 160 160 166 166 161 161 167 167 163 163 165 165 168 168 169 169 170 170 168 168 171 171 169 169 172 172 173 173 174 174 172 172 175 175 173 173 176 176 177 177 178 178 176 176 179 179 177 177 180 180 181 181 182 182 180 180 183 183 181 181 184 184 185 185 186 186 184 184 187 187 185 185 188 188 189 189 190 190 188 188 191 191 189 189 192 192 193 193 194 194 192 192 194 194 195 195 196 196 197 197 198 198 196 196 198 198 199 199 200 200 201 201 202 202 200 200 202 202 203 203 204 204 205 205 206 206 204 204 206 206 207 207 208 208 209 209 210 210 211 211 208 208 210 210 212 212 213 213 214 214 212 212 214 214 215 215 216 216 217 217 218 218 216 216 218 218 219 219 220 220 221 221 222 222 220 220 222 222 223 223 224 224 225 225 226 226 224 224 226 226 227 227 228 228 229 229 230 230 228 228 230 230 231 231 232 232 233 233 234 234 232 232 234 234 235 235 236 236 237 237 238 238 239 239 236 236 238 238 240 240 241 241 236 236 242 242 239 239 243 243 244 244 245 245 240 240 246 246 242 242 247 247 248 248 249 249 244 244 248 248 244 244 240 240 250 250 246 246 251 251 250 250 239 239 242 242 250 250 242 242 246 246 252 252 240 240 236 236 252 252 236 236 239 239 252 252 248 248 240 240 253 253 250 250 254 254 253 253 239 239 250 250 255 255 256 256 252 252 255 255 252 252 239 239 255 255 239 239 253 253 257 257 253 253 258 258 257 257 255 255 253 253 259 259 260 260 261 261 260 260 262 262 261 261 263 263 264 264 260 260 262 262 265 265 266 266 267 267 268 268 264 264 265 265 269 269 270 270 271 271 272 272 268 268 268 268 272 272 264 264 269 269 273 273 274 274 262 262 273 273 265 265 265 265 273 273 269 269 264 264 275 275 260 260 260 260 275 275 262 262 272 272 275 275 264 264 273 273 276 276 277 277 262 262 276 276 273 273 278 278 279 279 275 275 275 275 279 279 262 262 262 262 279 279 276 276 276 276 280 280 281 281 279 279 280 280 276 276 282 282 283 283 284 284 285 285 286 286 287 287 288 288 289 289 290 290 291 291 292 292 293 293 294 294 295 295 296 296 297 297 298 298 299 299 300 300 301 301 302 302 303 303 304 304 305 305 306 306 307 307 308 308 309 309 310 310 311 311 312 312 313 313 314 314 315 315 316 316 317 317 318 318 319 319 320 320 321 321 322 322 323 323 324 324 325 325 326 326 327 327 328 328 329 329 330 330 331 331 332 332 333 333 334 334 335 335 336 336 337 337 338 338 339 339 340 340 341 341 342 342 343 343 344 344 345 345 346 346 347 347 348 348 349 349 350 350 351 351 352 352 353 353 354 354 355 355 356 356 357 357 358 358 359 359 360 360 361 361 362 362 363 363 364 364 365 365 366 366 367 367 368 368 369 369 370 370 371 371 372 372 373 373 374 374 375 375 376 376 377 377 378 378 379 379 380 380 381 381 382 382 383 383 384 384 385 385 386 386 387 387 388 388 389 389 390 390 391 391 392 392 393 393 394 394 395 395 396 396 397 397 398 398 399 399 400 400 401 401 402 402 403 403 404 404 405 405 406 406 407 407 408 408 409 409 410 410 411 411 412 412 413 413 414 414 415 415 416 416 414 414 416 416 412 412 414 414 412 412 411 411 417 417 418 418 419 419 420 420 421 421 414 414 420 420 414 414 411 411 422 422 417 417 423 423 424 424 417 417 422 422 425 425 426 426 420 420 427 427 425 425 420 420 428 428 427 427 420 420 429 429 424 424 430 430 429 429 411 411 418 418 429 429 418 418 417 417 429 429 420 420 411 411 429 429 417 417 424 424 429 429 428 428 420 420 431 431 432 432 433 433 432 432 434 434 433 433 435 435 436 436 432 432 434 434 437 437 438 438 439 439 440 440 436 436 437 437 441 441 442 442 443 443 444 444 440 440 440 440 444 444 436 436 441 441 445 445 446 446 434 434 445 445 437 437 437 437 445 445 441 441 436 436 447 447 432 432 432 432 447 447 434 434 444 444 447 447 436 436 445 445 448 448 449 449 434 434 448 448 445 445 450 450 451 451 447 447 447 447 451 451 434 434 434 434 451 451 448 448 448 448 452 452 453 453 451 451 452 452 448 448</p>
        </triangles>
      </mesh>
    </geometry>
    <geometry id="49f53aeacee24dc5876426b413d4041c" name="7448f2f29cd84c049a0dfaecc607fd2e">
      <mesh>
        <source id="verts-array">
          <float_array count="432" id="verts-array-array">-0.0278 0 0.0178 -0.0278 0.0187 0.0178 -0.0278 0 -0.0178 -0.0278 0.0187 -0.0178 -0.0178 0.0187 0.0278 -0.0278 0.0187 0.0178 -0.02731057 0.0187 0.02089017 -0.02589017 0.0187 0.02367785 -0.02367785 0.0187 0.02589017 -0.02089017 0.0187 0.02731057 -0.0278 0.0187 -0.0178 -0.02589017 0.0187 -0.02367785 -0.02731057 0.0187 -0.02089017 0.02367785 0.0187 0.02589017 0.0178 0.0187 0.0278 0.02089017 0.0187 0.02731057 0.02731057 0.0187 0.02089017 0.02589017 0.0187 0.02367785 0.0278 0.0187 0.0178 -0.0178 0.0187 -0.0278 -0.02367785 0.0187 -0.02589017 -0.02089017 0.0187 -0.02731057 0.0278 0.0187 -0.0178 0.0178 0.0187 -0.0278 0.02589017 0.0187 -0.02367785 0.02731057 0.0187 -0.02089017 0.02367785 0.0187 -0.02589017 0.02089017 0.0187 -0.02731057 -0.02731057 0.0187 0.02089017 -0.0278 0 0.0178 -0.02731057 0 0.02089017 -0.0278 0.0187 0.0178 -0.02589017 0.0187 0.02367785 -0.02731057 0 0.02089017 -0.02589017 0 0.02367785 -0.02731057 0.0187 0.02089017 -0.02367785 0.0187 0.02589017 -0.02589017 0 0.02367785 -0.02367785 0 0.02589017 -0.02589017 0.0187 0.02367785 -0.02089017 0.0187 0.02731057 -0.02367785 0 0.02589017 -0.02089017 0 0.02731057 -0.02367785 0.0187 0.02589017 -0.0178 0.0187 0.0278 -0.02089017 0 0.02731057 -0.0178 0 0.0278 -0.02089017 0.0187 0.02731057 -0.0278 0 -0.0178 -0.02731057 0.0187 -0.02089017 -0.02731057 0 -0.02089017 -0.0278 0.0187 -0.0178 -0.02731057 0 -0.02089017 -0.02589017 0.0187 -0.02367785 -0.02589017 0 -0.02367785 -0.02731057 0.0187 -0.02089017 -0.02589017 0 -0.02367785 -0.02367785 0.0187 -0.02589017 -0.02367785 0 -0.02589017 -0.02589017 0.0187 -0.02367785 -0.02367785 0 -0.02589017 -0.02089017 0.0187 -0.02731057 -0.02089017 0 -0.02731057 -0.02367785 0.0187 -0.02589017 -0.02089017 0 -0.02731057 -0.0178 0.0187 -0.0278 -0.0178 0 -0.0278 -0.02089017 0.0187 -0.02731057 -0.0278 0 0.0178 -0.0178 0 0.0278 -0.02731057 0 0.02089017 -0.02589017 0 0.02367785 -0.02367785 0 0.02589017 -0.02089017 0 0.02731057 -0.0278 0 -0.0178 -0.02731057 0 -0.02089017 -0.02589017 0 -0.02367785 0.0178 0 0.0278 0.02367785 0 0.02589017 0.02089017 0 0.02731057 0.02731057 0 0.02089017 0.02589017 0 0.02367785 0.0278 0 0.0178 -0.02367785 0 -0.02589017 -0.0178 0 -0.0278 -0.02089017 0 -0.02731057 0.0278 0 -0.0178 0.0178 0 -0.0278 0.02589017 0 -0.02367785 0.02731057 0 -0.02089017 0.02089017 0 -0.02731057 0.02367785 0 -0.02589017 -0.0178 0 0.0278 0.0178 0 0.0278 -0.0178 0.0187 0.0278 0.0178 0.0187 0.0278 0.0178 0 -0.0278 -0.0178 0 -0.0278 -0.0178 0.0187 -0.0278 0.0178 0.0187 -0.0278 0.0278 0 0.0178 0.02731057 0.0187 0.02089017 0.02731057 0 0.02089017 0.0278 0.0187 0.0178 0.02731057 0 0.02089017 0.02589017 0.0187 0.02367785 0.02589017 0 0.02367785 0.02731057 0.0187 0.02089017 0.02589017 0 0.02367785 0.02367785 0.0187 0.02589017 0.02367785 0 0.02589017 0.02589017 0.0187 0.02367785 0.02367785 0 0.02589017 0.02089017 0.0187 0.02731057 0.02089017 0 0.02731057 0.02367785 0.0187 0.02589017 0.02089017 0 0.02731057 0.0178 0.0187 0.0278 0.0178 0 0.0278 0.02089017 0.0187 0.02731057 0.02731057 0.0187 -0.02089017 0.0278 0 -0.0178 0.02731057 0 -0.02089017 0.0278 0.0187 -0.0178 0.02589017 0.0187 -0.02367785 0.02731057 0 -0.02089017 0.02589017 0 -0.02367785 0.02731057 0.0187 -0.02089017 0.02367785 0.0187 -0.02589017 0.02589017 0 -0.02367785 0.02367785 0 -0.02589017 0.02589017 0.0187 -0.02367785 0.02089017 0.0187 -0.02731057 0.02367785 0 -0.02589017 0.02089017 0 -0.02731057 0.02367785 0.0187 -0.02589017 0.0178 0.0187 -0.0278 0.02089017 0 -0.02731057 0.0178 0 -0.0278 0.02089017 0.0187 -0.02731057 0.0278 0.0187 0.0178 0.0278 0 0.0178 0.0278 0 -0.0178 0.0278 0.0187 -0.0178</float_array>
          <technique_common>
            <accessor count="144" source="#verts-array-array" stride="3">
              <param type="float" name="X"/>
              <param type="float" name="Y"/>
              <param type="float" name="Z"/>
            </accessor>
          </technique_common>
        </source>
        <source id="normals-array">
          <float_array count="432" id="normals-array-array">-1 0 0 -1 0 0 -1 0 0 -1 0 0 0 1 0 0 1 0 0 1 0 0 1 0 0 1 0 0 1 0 0 1 0 0 1 0 0 1 0 0 1 0 0 1 0 0 1 0 0 1 0 0 1 0 0 1 0 0 1 0 0 1 0 0 1 0 0 1 0 0 1 0 0 1 0 0 1 0 0 1 0 0 1 0 -0.9876887 0 0.1564325 -0.9876887 0 0.1564325 -0.9876887 0 0.1564325 -0.9876887 0 0.1564325 -0.8910056 0 0.4539924 -0.8910056 0 0.4539924 -0.8910056 0 0.4539924 -0.8910056 0 0.4539924 -0.7071068 0 0.7071068 -0.7071068 0 0.7071068 -0.7071068 0 0.7071068 -0.7071068 0 0.7071068 -0.4539924 0 0.8910056 -0.4539924 0 0.8910056 -0.4539924 0 0.8910056 -0.4539924 0 0.8910056 -0.1564325 0 0.9876887 -0.1564325 0 0.9876887 -0.1564325 0 0.9876887 -0.1564325 0 0.9876887 -0.9876887 0 -0.1564325 -0.9876887 0 -0.1564325 -0.9876887 0 -0.1564325 -0.9876887 0 -0.1564325 -0.8910056 0 -0.4539924 -0.8910056 0 -0.4539924 -0.8910056 0 -0.4539924 -0.8910056 0 -0.4539924 -0.7071068 0 -0.7071068 -0.7071068 0 -0.7071068 -0.7071068 0 -0.7071068 -0.7071068 0 -0.7071068 -0.4539924 0 -0.8910056 -0.4539924 0 -0.8910056 -0.4539924 0 -0.8910056 -0.4539924 0 -0.8910056 -0.1564325 0 -0.9876887 -0.1564325 0 -0.9876887 -0.1564325 0 -0.9876887 -0.1564325 0 -0.9876887 0 -1 0 0 -1 0 0 -1 0 0 -1 0 0 -1 0 0 -1 0 0 -1 0 0 -1 0 0 -1 0 0 -1 0 0 -1 0 0 -1 0 0 -1 0 0 -1 0 0 -1 0 0 -1 0 0 -1 0 0 -1 0 0 -1 0 0 -1 0 0 -1 0 0 -1 0 0 -1 0 0 -1 0 0 0 1 0 0 1 0 0 1 0 0 1 0 0 -1 0 0 -1 0 0 -1 0 0 -1 0.9876887 0 0.1564325 0.9876887 0 0.1564325 0.9876887 0 0.1564325 0.9876887 0 0.1564325 0.8910056 0 0.4539924 0.8910056 0 0.4539924 0.8910056 0 0.4539924 0.8910056 0 0.4539924 0.7071068 0 0.7071068 0.7071068 0 0.7071068 0.7071068 0 0.7071068 0.7071068 0 0.7071068 0.4539924 0 0.8910056 0.4539924 0 0.8910056 0.4539924 0 0.8910056 0.4539924 0 0.8910056 0.1564325 0 0.9876887 0.1564325 0 0.9876887 0.1564325 0 0.9876887 0.1564325 0 0.9876887 0.9876887 0 -0.1564325 0.9876887 0 -0.1564325 0.9876887 0 -0.1564325 0.9876887 0 -0.1564325 0.8910056 0 -0.4539924 0.8910056 0 -0.4539924 0.8910056 0 -0.4539924 0.8910056 0 -0.4539924 0.7071068 0 -0.7071068 0.7071068 0 -0.7071068 0.7071068 0 -0.7071068 0.7071068 0 -0.7071068 0.4539924 0 -0.8910056 0.4539924 0 -0.8910056 0.4539924 0 -0.8910056 0.4539924 0 -0.8910056 0.1564325 0 -0.9876887 0.1564325 0 -0.9876887 0.1564325 0 -0.9876887 0.1564325 0 -0.9876887 1 0 0 1 0 0 1 0 0 1 0 0</float_array>
          <technique_common>
            <accessor count="144" source="#normals-array-array" stride="3">
              <param type="float" name="X"/>
              <param type="float" name="Y"/>
              <param type="float" name="Z"/>
            </accessor>
          </technique_common>
        </source>
        <vertices id="verts-array-vertices">
          <input semantic="POSITION" source="#verts-array"/>
        </vertices>
        <triangles count="92" material="material1">
          <input offset="0" semantic="VERTEX" source="#verts-array-vertices"/>
          <input offset="1" semantic="NORMAL" source="#normals-array"/>
          <p>0 0 1 1 2 2 2 2 1 1 3 3 4 4 5 5 6 6 4 4 6 6 7 7 4 4 7 7 8 8 4 4 8 8 9 9 10 10 5 5 4 4 11 11 12 12 10 10 13 13 14 14 15 15 16 16 13 13 17 17 18 18 14 14 13 13 18 18 13 13 16 16 19 19 20 20 11 11 19 19 21 21 20 20 19 19 11 11 10 10 22 22 4 4 14 14 22 22 23 23 19 19 22 22 10 10 4 4 22 22 14 14 18 18 22 22 19 19 10 10 24 24 22 22 25 25 26 26 27 27 23 23 26 26 23 23 22 22 26 26 22 22 24 24 28 28 29 29 30 30 28 28 31 31 29 29 32 32 33 33 34 34 32 32 35 35 33 33 36 36 37 37 38 38 36 36 39 39 37 37 40 40 41 41 42 42 40 40 43 43 41 41 44 44 45 45 46 46 44 44 47 47 45 45 48 48 49 49 50 50 51 51 49 49 48 48 52 52 53 53 54 54 55 55 53 53 52 52 56 56 57 57 58 58 59 59 57 57 56 56 60 60 61 61 62 62 63 63 61 61 60 60 64 64 65 65 66 66 67 67 65 65 64 64 68 68 69 69 70 70 70 70 69 69 71 71 71 71 69 69 72 72 72 72 69 69 73 73 68 68 74 74 69 69 75 75 76 76 74 74 77 77 78 78 79 79 78 78 80 80 81 81 77 77 82 82 78 78 78 78 82 82 80 80 83 83 84 84 76 76 85 85 84 84 83 83 76 76 84 84 74 74 69 69 86 86 77 77 87 87 86 86 84 84 74 74 86 86 69 69 77 77 86 86 82 82 84 84 86 86 74 74 86 86 88 88 89 89 90 90 91 91 87 87 87 87 91 91 86 86 86 86 91 91 88 88 92 92 93 93 94 94 93 93 95 95 94 94 96 96 97 97 98 98 99 99 96 96 98 98 100 100 101 101 102 102 103 103 101 101 100 100 104 104 105 105 106 106 107 107 105 105 104 104 108 108 109 109 110 110 111 111 109 109 108 108 112 112 113 113 114 114 115 115 113 113 112 112 116 116 117 117 118 118 119 119 117 117 116 116 120 120 121 121 122 122 120 120 123 123 121 121 124 124 125 125 126 126 124 124 127 127 125 125 128 128 129 129 130 130 128 128 131 131 129 129 132 132 133 133 134 134 132 132 135 135 133 133 136 136 137 137 138 138 136 136 139 139 137 137 140 140 141 141 142 142 140 140 142 142 143 143</p>
        </triangles>
      </mesh>
    </geometry>
  </library_geometries>
  <library_materials>
    <material id="85b79766c88647f281e455f8c5de513f" name="pbrmaterial">
      <instance_effect url="#463ba95eb252405ab91e7b15d2f62c87"/>
    </material>
    <material id="06a31a4f075c49d888ee62d249a5b6ea" name="pbrmaterial">
      <instance_effect url="#634f6115434b4456a57b6327907a193b"/>
    </material>
  </library_materials>
  <library_visual_scenes>
    <visual_scene id="scene">
      <node id="node0" name="node0">
        <instance_geometry url="#dc37900efabd4776a53628fcba47c5db">
          <bind_material>
            <technique_common>
              <instance_material symbol="material0" target="#85b79766c88647f281e455f8c5de513f"/>
            </technique_common>
          </bind_material>
        </instance_geometry>
      </node>
      <node id="node1" name="node1">
        <instance_geometry url="#49f53aeacee24dc5876426b413d4041c">
          <bind_material>
            <technique_common>
              <instance_material symbol="material1" target="#06a31a4f075c49d888ee62d249a5b6ea"/>
            </technique_common>
          </bind_material>
        </instance_geometry>
      </node>
    </visual_scene>
  </library_visual_scenes>
  <scene>
    <instance_visual_scene url="#scene"/>
  </scene>
</COLLADA>
