<COLLADA xmlns="http://www.collada.org/2005/11/COLLADASchema" version="1.4.1">
  <asset>
    <created>2026-08-07T10:28:00.317908</created>
    <modified>2026-08-07T10:28:00.317912</modified>
    <up_axis>Y_UP</up_axis>
  </asset>
  <library_effects>
    <effect id="7d842d1953ac4ba98220669a677f5aaa" name="7d842d1953ac4ba98220669a677f5aaa">
      <profile_COMMON>
        <technique sid="common">
          <phong>
            <ambient>
              <color>0.0 0.0 0.0 1.0</color>
            </ambient>
            <diffuse>
              <color>0.0 0.18823529411764706 1.0 1.0</color>
            </diffuse>
            <specular>
              <color>1.0 1.0 1.0 1.0</color>
            </specular>
            <shininess>
              <float>0.06598803534436781</float>
            </shininess>
            <reflective>
              <color>0.0 0.0 0.0 1.0</color>
            </reflective>
            <reflectivity>
              <float>0.0</float>
            </reflectivity>
            <transparent>
              <color>0.0 0.0 0.0 1.0</color>
            </transparent>
            <transparency>
              <float>1.0</float>
            </transparency>
          </phong>
        </technique>
        <extra>
          <technique profile="GOOGLEEARTH">
            <double_sided>0</double_sided>
          </technique>
        </extra>
      </profile_COMMON>
    </effect>
    <effect id="9910f26eb7704cc9b1e310b7eff3cd17" name="9910f26eb7704cc9b1e310b7eff3cd17">
      <profile_COMMON>
        <technique sid="common">
          <phong>
            <ambient>
              <color>0.0 0.0 0.0 1.0</color>
            </ambient>
            <diffuse>
              <color>0.9294117647058824 0.9294117647058824 0.9294117647058824 1.0</color>
            </diffuse>
            <specular>
              <color>1.0 1.0 1.0 1.0</color>
            </specular>
            <shininess>
              <float>0.06598803534436781</float>
            </shininess>
            <reflective>
              <color>0.0 0.0 0.0 1.0</color>
            </reflective>
            <reflectivity>
              <float>0.0</float>
            </reflectivity>
            <transparent>
              <color>0.0 0.0 0.0 1.0</color>
            </transparent>
            <transparency>
              <float>1.0</float>
            </transparency>
          </phong>
        </technique>
        <extra>
          <technique profile="GOOGLEEARTH">
            <double_sided>0</double_sided>
          </technique>
        </extra>
      </profile_COMMON>
    </effect>
  </library_effects>
  <library_geometries>
    <geometry id="6d386e29e2864a95bf541c5c89a39b61" name="e54ba1d0aee3495998a8345858566cbb">
      <mesh>
        <source id="verts-array">
          <float_array count="756" id="verts-array-array">0.05107311 0.057 -0.007698033 0.05165 0.057 1.26506e-17 0.05165 0.019 1.26506e-17 0.05107311 0.019 -0.007698033 0.04935534 0.057 -0.0152241 0.05107311 0.019 -0.007698033 0.04935534 0.019 -0.0152241 0.05107311 0.057 -0.007698033 0.04653504 0.057 -0.02241009 0.04935534 0.057 -0.0152241 0.04935534 0.019 -0.0152241 0.04653504 0.019 -0.02241009 0.04653504 0.057 -0.02241009 0.04653504 0.019 -0.02241009 0.04267523 0.019 -0.02909548 0.04267523 0.057 -0.02909548 0.03786213 0.057 -0.03513092 0.04267523 0.057 -0.02909548 0.04267523 0.019 -0.02909548 0.03786213 0.019 -0.03513092 0.03786213 0.057 -0.03513092 0.03786213 0.019 -0.03513092 0.03220325 0.019 -0.0403816 0.03220325 0.057 -0.0403816 0.025825 0.057 -0.04473021 0.03220325 0.057 -0.0403816 0.03220325 0.019 -0.0403816 0.025825 0.019 -0.04473021 0.01886986 0.057 -0.04807963 0.025825 0.057 -0.04473021 0.025825 0.019 -0.04473021 0.01886986 0.019 -0.04807963 0.01149321 0.057 -0.05035502 0.01886986 0.057 -0.04807963 0.01886986 0.019 -0.04807963 0.01149321 0.019 -0.05035502 0.003859809 0.057 -0.05150558 0.01149321 0.057 -0.05035502 0.01149321 0.019 -0.05035502 0.003859809 0.019 -0.05150558 -0.003859809 0.057 -0.05150558 0.003859809 0.057 -0.05150558 0.003859809 0.019 -0.05150558 -0.003859809 0.019 -0.05150558 -0.003859809 0.057 -0.05150558 -0.003859809 0.019 -0.05150558 -0.01149321 0.019 -0.05035502 -0.01149321 0.057 -0.05035502 -0.01149321 0.057 -0.05035502 -0.01149321 0.019 -0.05035502 -0.01886986 0.019 -0.04807963 -0.01886986 0.057 -0.04807963 -0.025825 0.057 -0.04473021 -0.01886986 0.057 -0.04807963 -0.01886986 0.019 -0.04807963 -0.025825 0.019 -0.04473021 -0.03220325 0.057 -0.0403816 -0.025825 0.057 -0.04473021 -0.025825 0.019 -0.04473021 -0.03220325 0.019 -0.0403816 -0.03220325 0.057 -0.0403816 -0.03220325 0.019 -0.0403816 -0.03786213 0.019 -0.03513092 -0.03786213 0.057 -0.03513092 -0.04267523 0.057 -0.02909548 -0.03786213 0.057 -0.03513092 -0.03786213 0.019 -0.03513092 -0.04267523 0.019 -0.02909548 -0.04653504 0.057 -0.02241009 -0.04267523 0.019 -0.02909548 -0.04653504 0.019 -0.02241009 -0.04267523 0.057 -0.02909548 -0.04935534 0.057 -0.0152241 -0.04653504 0.057 -0.02241009 -0.04653504 0.019 -0.02241009 -0.04935534 0.019 -0.0152241 -0.05107311 0.057 -0.007698033 -0.04935534 0.019 -0.0152241 -0.05107311 0.019 -0.007698033 -0.04935534 0.057 -0.0152241 -0.05165 0.057 3.954911e-17 -0.05107311 0.019 -0.007698033 -0.05165 0.019 3.954911e-17 -0.05107311 0.057 -0.007698033 -0.05107311 0.057 0.007698033 -0.05165 0.019 3.954911e-17 -0.05107311 0.019 0.007698033 -0.05165 0.057 3.954911e-17 -0.04935534 0.057 0.0152241 -0.05107311 0.019 0.007698033 -0.04935534 0.019 0.0152241 -0.04935534 0.057 0.0152241 -0.04935534 0.019 0.0152241 -0.04653504 0.019 0.02241009 -0.05107311 0.057 0.007698033 -0.04653504 0.057 0.02241009 -0.04267523 0.057 0.02909548 -0.04653504 0.019 0.02241009 -0.04267523 0.019 0.02909548 -0.04653504 0.057 0.02241009 -0.03786213 0.057 0.03513092 -0.04267523 0.019 0.02909548 -0.03786213 0.019 0.03513092 -0.04267523 0.057 0.02909548 -0.03220325 0.057 0.0403816 -0.03786213 0.019 0.03513092 -0.03220325 0.019 0.0403816 -0.03220325 0.057 0.0403816 -0.03220325 0.019 0.0403816 -0.025825 0.019 0.04473021 -0.03786213 0.057 0.03513092 -0.025825 0.057 0.04473021 -0.01886986 0.057 0.04807963 -0.025825 0.057 0.04473021 -0.025825 0.019 0.04473021 -0.01886986 0.019 0.04807963 -0.01149321 0.057 0.05035502 -0.01886986 0.057 0.04807963 -0.01886986 0.019 0.04807963 -0.01149321 0.019 0.05035502 -0.003859809 0.057 0.05150558 -0.01149321 0.057 0.05035502 -0.01149321 0.019 0.05035502 -0.003859809 0.019 0.05150558 -0.003859809 0.057 0.05150558 -0.003859809 0.019 0.05150558 0.003859809 0.019 0.05150558 0.003859809 0.057 0.05150558 0.01149321 0.057 0.05035502 0.003859809 0.057 0.05150558 0.003859809 0.019 0.05150558 0.01149321 0.019 0.05035502 0.01886986 0.057 0.04807963 0.01149321 0.057 0.05035502 0.01149321 0.019 0.05035502 0.01886986 0.019 0.04807963 0.025825 0.057 0.04473021 0.01886986 0.057 0.04807963 0.01886986 0.019 0.04807963 0.025825 0.019 0.04473021 0.03220325 0.057 0.0403816 0.025825 0.057 0.04473021 0.025825 0.019 0.04473021 0.03220325 0.019 0.0403816 0.03220325 0.057 0.0403816 0.03220325 0.019 0.0403816 0.03786213 0.019 0.03513092 0.03786213 0.057 0.03513092 0.04267523 0.057 0.02909548 0.03786213 0.057 0.03513092 0.03786213 0.019 0.03513092 0.04267523 0.019 0.02909548 0.04653504 0.057 0.02241009 0.04267523 0.057 0.02909548 0.04267523 0.019 0.02909548 0.04653504 0.019 0.02241009 0.04935534 0.057 0.0152241 0.04653504 0.057 0.02241009 0.04653504 0.019 0.02241009 0.04935534 0.019 0.0152241 0.05107311 0.057 0.007698033 0.04935534 0.057 0.0152241 0.04935534 0.019 0.0152241 0.05107311 0.019 0.007698033 0.05165 0.057 1.26506e-17 0.05107311 0.057 0.007698033 0.05107311 0.019 0.007698033 0.05165 0.019 1.26506e-17 -0.025825 0.057 0.04473021 -0.04267523 0.057 0.02909548 -0.03786213 0.057 0.03513092 -0.03220325 0.057 0.0403816 -0.01149321 0.057 0.05035502 -0.01886986 0.057 0.04807963 -0.05107311 0.057 0.007698033 -0.04935534 0.057 0.0152241 -0.04653504 0.057 0.02241009 -0.003859809 0.057 0.05150558 0.01149321 0.057 0.05035502 0.003859809 0.057 0.05150558 -0.04935534 0.057 -0.0152241 -0.05107311 0.057 -0.007698033 -0.05165 0.057 3.954911e-17 0.025825 0.057 0.04473021 0.01886986 0.057 0.04807963 0.03220325 0.057 0.0403816 -0.03786213 0.057 -0.03513092 -0.04267523 0.057 -0.02909548 -0.04653504 0.057 -0.02241009 0.04267523 0.057 0.02909548 0.03786213 0.057 0.03513092 -0.025825 0.057 -0.04473021 -0.03220325 0.057 -0.0403816 0.04653504 0.057 0.02241009 -0.01149321 0.057 -0.05035502 -0.01886986 0.057 -0.04807963 0.01149321 0.057 -0.05035502 0.003859809 0.057 -0.05150558 -0.003859809 0.057 -0.05150558 0.04653504 0.057 -0.02241009 0.05165 0.057 1.26506e-17 0.05107311 0.057 -0.007698033 0.04935534 0.057 -0.0152241 0.05107311 0.057 0.007698033 0.025825 0.057 -0.04473021 0.01886986 0.057 -0.04807963 0.04267523 0.057 -0.02909548 0.04935534 0.057 0.0152241 0.03786213 0.057 -0.03513092 0.03220325 0.057 -0.0403816 -0.04267523 0.019 0.02909548 -0.025825 0.019 0.04473021 -0.03786213 0.019 0.03513092 -0.03220325 0.019 0.0403816 -0.01149321 0.019 0.05035502 -0.01886986 0.019 0.04807963 -0.04935534 0.019 0.0152241 -0.05107311 0.019 0.007698033 -0.04653504 0.019 0.02241009 -0.003859809 0.019 0.05150558 0.01149321 0.019 0.05035502 0.003859809 0.019 0.05150558 -0.05107311 0.019 -0.007698033 -0.04935534 0.019 -0.0152241 -0.05165 0.019 3.954911e-17 0.025825 0.019 0.04473021 0.01886986 0.019 0.04807963 0.03220325 0.019 0.0403816 -0.04267523 0.019 -0.02909548 -0.03786213 0.019 -0.03513092 -0.04653504 0.019 -0.02241009 0.04267523 0.019 0.02909548 0.03786213 0.019 0.03513092 -0.03220325 0.019 -0.0403816 -0.025825 0.019 -0.04473021 0.04653504 0.019 0.02241009 -0.01886986 0.019 -0.04807963 -0.01149321 0.019 -0.05035502 0.003859809 0.019 -0.05150558 0.01149321 0.019 -0.05035502 -0.003859809 0.019 -0.05150558 0.05165 0.019 1.26506e-17 0.04653504 0.019 -0.02241009 0.05107311 0.019 -0.007698033 0.04935534 0.019 -0.0152241 0.05107311 0.019 0.007698033 0.01886986 0.019 -0.04807963 0.025825 0.019 -0.04473021 0.04267523 0.019 -0.02909548 0.04935534 0.019 0.0152241 0.03786213 0.019 -0.03513092 0.03220325 0.019 -0.0403816</float_array>
          <technique_common>
            <accessor count="252" source="#verts-array-array" stride="3">
              <param type="float" name="X"/>
              <param type="float" name="Y"/>
              <param type="float" name="Z"/>
            </accessor>
          </technique_common>
        </source>
        <source id="normals-array">
          <float_array count="756" id="normals-array-array">0.9972038 0 -0.07473002 0.9972038 0 -0.07473002 0.9972038 0 -0.07473002 0.9972038 0 -0.07473002 0.974928 0 -0.2225205 0.974928 0 -0.2225205 0.974928 0 -0.2225205 0.974928 0 -0.2225205 0.9308735 0 -0.3653416 0.9308735 0 -0.3653416 0.9308735 0 -0.3653416 0.9308735 0 -0.3653416 0.8660255 0 -0.4999998 0.8660255 0 -0.4999998 0.8660255 0 -0.4999998 0.8660255 0 -0.4999998 0.7818317 0 -0.6234896 0.7818317 0 -0.6234896 0.7818317 0 -0.6234896 0.7818317 0 -0.6234896 0.680173 0 -0.7330516 0.680173 0 -0.7330516 0.680173 0 -0.7330516 0.680173 0 -0.7330516 0.5633194 0 -0.8262392 0.5633194 0 -0.8262392 0.5633194 0 -0.8262392 0.5633194 0 -0.8262392 0.4338839 0 -0.9009688 0.4338839 0 -0.9009688 0.4338839 0 -0.9009688 0.4338839 0 -0.9009688 0.2947548 0 -0.9555729 0.2947548 0 -0.9555729 0.2947548 0 -0.9555729 0.2947548 0 -0.9555729 0.1490435 0 -0.9888306 0.1490435 0 -0.9888306 0.1490435 0 -0.9888306 0.1490435 0 -0.9888306 0 0 -1 0 0 -1 0 0 -1 0 0 -1 -0.1490435 0 -0.9888306 -0.1490435 0 -0.9888306 -0.1490435 0 -0.9888306 -0.1490435 0 -0.9888306 -0.2947548 0 -0.9555729 -0.2947548 0 -0.9555729 -0.2947548 0 -0.9555729 -0.2947548 0 -0.9555729 -0.4338839 0 -0.9009688 -0.4338839 0 -0.9009688 -0.4338839 0 -0.9009688 -0.4338839 0 -0.9009688 -0.5633194 0 -0.8262392 -0.5633194 0 -0.8262392 -0.5633194 0 -0.8262392 -0.5633194 0 -0.8262392 -0.680173 0 -0.7330516 -0.680173 0 -0.7330516 -0.680173 0 -0.7330516 -0.680173 0 -0.7330516 -0.7818317 0 -0.6234896 -0.7818317 0 -0.6234896 -0.7818317 0 -0.6234896 -0.7818317 0 -0.6234896 -0.8660255 0 -0.4999998 -0.8660255 0 -0.4999998 -0.8660255 0 -0.4999998 -0.8660255 0 -0.4999998 -0.9308735 0 -0.3653416 -0.9308735 0 -0.3653416 -0.9308735 0 -0.3653416 -0.9308735 0 -0.3653416 -0.974928 0 -0.2225205 -0.974928 0 -0.2225205 -0.974928 0 -0.2225205 -0.974928 0 -0.2225205 -0.9972038 0 -0.07473002 -0.9972038 0 -0.07473002 -0.9972038 0 -0.07473002 -0.9972038 0 -0.07473002 -0.9972038 0 0.07473002 -0.9972038 0 0.07473002 -0.9972038 0 0.07473002 -0.9972038 0 0.07473002 -0.974928 0 0.2225205 -0.974928 0 0.2225205 -0.974928 0 0.2225205 -0.9308735 0 0.3653416 -0.9308735 0 0.3653416 -0.9308735 0 0.3653416 -0.974928 0 0.2225205 -0.9308735 0 0.3653416 -0.8660255 0 0.4999998 -0.8660255 0 0.4999998 -0.8660255 0 0.4999998 -0.8660255 0 0.4999998 -0.7818317 0 0.6234896 -0.7818317 0 0.6234896 -0.7818317 0 0.6234896 -0.7818317 0 0.6234896 -0.680173 0 0.7330516 -0.680173 0 0.7330516 -0.680173 0 0.7330516 -0.5633194 0 0.8262392 -0.5633194 0 0.8262392 -0.5633194 0 0.8262392 -0.680173 0 0.7330516 -0.5633194 0 0.8262392 -0.4338839 0 0.9009688 -0.4338839 0 0.9009688 -0.4338839 0 0.9009688 -0.4338839 0 0.9009688 -0.2947548 0 0.9555729 -0.2947548 0 0.9555729 -0.2947548 0 0.9555729 -0.2947548 0 0.9555729 -0.1490435 0 0.9888306 -0.1490435 0 0.9888306 -0.1490435 0 0.9888306 -0.1490435 0 0.9888306 0 0 1 0 0 1 0 0 1 0 0 1 0.1490435 0 0.9888306 0.1490435 0 0.9888306 0.1490435 0 0.9888306 0.1490435 0 0.9888306 0.2947548 0 0.9555729 0.2947548 0 0.9555729 0.2947548 0 0.9555729 0.2947548 0 0.9555729 0.4338839 0 0.9009688 0.4338839 0 0.9009688 0.4338839 0 0.9009688 0.4338839 0 0.9009688 0.5633194 0 0.8262392 0.5633194 0 0.8262392 0.5633194 0 0.8262392 0.5633194 0 0.8262392 0.680173 0 0.7330516 0.680173 0 0.7330516 0.680173 0 0.7330516 0.680173 0 0.7330516 0.7818317 0 0.6234896 0.7818317 0 0.6234896 0.7818317 0 0.6234896 0.7818317 0 0.6234896 0.8660255 0 0.4999998 0.8660255 0 0.4999998 0.8660255 0 0.4999998 0.8660255 0 0.4999998 0.9308735 0 0.3653416 0.9308735 0 0.3653416 0.9308735 0 0.3653416 0.9308735 0 0.3653416 0.974928 0 0.2225205 0.974928 0 0.2225205 0.974928 0 0.2225205 0.974928 0 0.2225205 0.9972038 0 0.07473002 0.9972038 0 0.07473002 0.9972038 0 0.07473002 0.9972038 0 0.07473002 0 1 0 0 1 0 0 1 0 0 1 0 0 1 0 0 1 0 0 1 0 0 1 0 0 1 0 0 1 0 0 1 0 0 1 0 0 1 0 0 1 0 0 1 0 0 1 0 0 1 0 0 1 0 0 1 0 0 1 0 0 1 0 0 1 0 0 1 0 0 1 0 0 1 0 0 1 0 0 1 0 0 1 0 0 1 0 0 1 0 0 1 0 0 1 0 0 1 0 0 1 0 0 1 0 0 1 0 0 1 0 0 1 0 0 1 0 0 1 0 0 1 0 0 1 0 0 -1 0 0 -1 0 0 -1 0 0 -1 0 0 -1 0 0 -1 0 0 -1 0 0 -1 0 0 -1 0 0 -1 0 0 -1 0 0 -1 0 0 -1 0 0 -1 0 0 -1 0 0 -1 0 0 -1 0 0 -1 0 0 -1 0 0 -1 0 0 -1 0 0 -1 0 0 -1 0 0 -1 0 0 -1 0 0 -1 0 0 -1 0 0 -1 0 0 -1 0 0 -1 0 0 -1 0 0 -1 0 0 -1 0 0 -1 0 0 -1 0 0 -1 0 0 -1 0 0 -1 0 0 -1 0 0 -1 0 0 -1 0 0 -1 0</float_array>
          <technique_common>
            <accessor count="252" source="#normals-array-array" stride="3">
              <param type="float" name="X"/>
              <param type="float" name="Y"/>
              <param type="float" name="Z"/>
            </accessor>
          </technique_common>
        </source>
        <vertices id="verts-array-vertices">
          <input semantic="POSITION" source="#verts-array"/>
        </vertices>
        <triangles count="164" material="material0">
          <input offset="0" semantic="VERTEX" source="#verts-array-vertices"/>
          <input offset="1" semantic="NORMAL" source="#normals-array"/>
          <p>0 0 1 1 2 2 0 0 2 2 3 3 4 4 5 5 6 6 4 4 7 7 5 5 8 8 9 9 10 10 8 8 10 10 11 11 12 12 13 13 14 14 15 15 12 12 14 14 16 16 17 17 18 18 16 16 18 18 19 19 20 20 21 21 22 22 23 23 20 20 22 22 24 24 25 25 26 26 24 24 26 26 27 27 28 28 29 29 30 30 28 28 30 30 31 31 32 32 33 33 34 34 32 32 34 34 35 35 36 36 37 37 38 38 36 36 38 38 39 39 40 40 41 41 42 42 40 40 42 42 43 43 44 44 45 45 46 46 47 47 44 44 46 46 48 48 49 49 50 50 51 51 48 48 50 50 52 52 53 53 54 54 52 52 54 54 55 55 56 56 57 57 58 58 56 56 58 58 59 59 60 60 61 61 62 62 63 63 60 60 62 62 64 64 65 65 66 66 64 64 66 66 67 67 68 68 69 69 70 70 68 68 71 71 69 69 72 72 73 73 74 74 72 72 74 74 75 75 76 76 77 77 78 78 76 76 79 79 77 77 80 80 81 81 82 82 80 80 83 83 81 81 84 84 85 85 86 86 84 84 87 87 85 85 88 88 89 89 90 90 91 91 92 92 93 93 88 88 94 94 89 89 95 95 91 91 93 93 96 96 97 97 98 98 96 96 99 99 97 97 100 100 101 101 102 102 100 100 103 103 101 101 104 104 105 105 106 106 107 107 108 108 109 109 104 104 110 110 105 105 111 111 107 107 109 109 112 112 113 113 114 114 112 112 114 114 115 115 116 116 117 117 118 118 116 116 118 118 119 119 120 120 121 121 122 122 120 120 122 122 123 123 124 124 125 125 126 126 127 127 124 124 126 126 128 128 129 129 130 130 128 128 130 130 131 131 132 132 133 133 134 134 132 132 134 134 135 135 136 136 137 137 138 138 136 136 138 138 139 139 140 140 141 141 142 142 140 140 142 142 143 143 144 144 145 145 146 146 147 147 144 144 146 146 148 148 149 149 150 150 148 148 150 150 151 151 152 152 153 153 154 154 152 152 154 154 155 155 156 156 157 157 158 158 156 156 158 158 159 159 160 160 161 161 162 162 160 160 162 162 163 163 164 164 165 165 166 166 164 164 166 166 167 167 168 168 169 169 170 170 168 168 170 170 171 171 172 172 168 168 173 173 174 174 175 175 176 176 177 177 168 168 172 172 178 178 177 177 179 179 180 180 181 181 182 182 183 183 178 178 184 184 185 185 177 177 178 178 185 185 178 178 183 183 186 186 187 187 188 188 186 186 188 188 180 180 186 186 182 182 174 174 186 186 180 180 182 182 189 189 185 185 190 190 191 191 192 192 186 186 191 191 176 176 169 169 191 191 169 169 168 168 191 191 174 174 176 176 191 191 186 186 174 174 193 193 185 185 189 189 194 194 195 195 191 191 194 194 177 177 185 185 194 194 168 168 177 177 194 194 191 191 168 168 196 196 197 197 198 198 196 196 198 198 194 194 199 199 200 200 201 201 199 199 201 201 202 202 199 199 203 203 200 200 204 204 205 205 196 196 204 204 196 196 194 194 204 204 194 194 185 185 206 206 203 203 199 199 206 206 193 193 207 207 206 206 207 207 203 203 206 206 185 185 193 193 208 208 185 185 206 206 208 208 209 209 204 204 208 208 204 204 185 185 210 210 211 211 212 212 212 212 211 211 213 213 211 211 214 214 215 215 216 216 217 217 218 218 211 211 219 219 214 214 219 219 220 220 221 221 222 222 223 223 224 224 220 220 225 225 226 226 219 219 227 227 220 220 220 220 227 227 225 225 228 228 229 229 230 230 230 230 229 229 223 223 224 224 229 229 217 217 223 223 229 229 224 224 227 227 231 231 232 232 233 233 234 234 229 229 218 218 234 234 210 210 210 210 234 234 211 211 217 217 234 234 218 218 229 229 234 234 217 217 227 227 235 235 231 231 236 236 237 237 234 234 219 219 237 237 227 227 211 211 237 237 219 219 234 234 237 237 211 211 238 238 239 239 240 240 240 240 239 239 237 237 241 241 242 242 243 243 243 243 242 242 244 244 245 245 242 242 241 241 246 246 247 247 239 239 239 239 247 247 237 237 237 237 247 247 227 227 245 245 248 248 242 242 235 235 248 248 249 249 249 249 248 248 245 245 227 227 248 248 235 235 227 227 250 250 248 248 251 251 250 250 247 247 247 247 250 250 227 227</p>
        </triangles>
      </mesh>
    </geometry>
    <geometry id="8c2a0a1c594e47468a6f76be9389ff8b" name="33d4170e07224f97883a4ce28848e5ac">
      <mesh>
        <source id="verts-array">
          <float_array count="1512" id="verts-array-array">0.05107311 0.019 -0.007698033 0.05165 0.019 1.26506e-17 0.05165 0 1.26506e-17 0.05107311 0 -0.007698033 0.04935534 0.019 -0.0152241 0.05107311 0 -0.007698033 0.04935534 0 -0.0152241 0.05107311 0.019 -0.007698033 0.04653504 0.019 -0.02241009 0.04935534 0.019 -0.0152241 0.04935534 0 -0.0152241 0.04653504 0 -0.02241009 0.04653504 0.019 -0.02241009 0.04653504 0 -0.02241009 0.04267523 0 -0.02909548 0.04267523 0.019 -0.02909548 0.03786213 0.019 -0.03513092 0.04267523 0.019 -0.02909548 0.04267523 0 -0.02909548 0.03786213 0 -0.03513092 0.03786213 0.019 -0.03513092 0.03786213 0 -0.03513092 0.03220325 0 -0.0403816 0.03220325 0.019 -0.0403816 0.025825 0.019 -0.04473021 0.03220325 0.019 -0.0403816 0.03220325 0 -0.0403816 0.025825 0 -0.04473021 0.01886986 0.019 -0.04807963 0.025825 0.019 -0.04473021 0.025825 0 -0.04473021 0.01886986 0 -0.04807963 0.01149321 0.019 -0.05035502 0.01886986 0.019 -0.04807963 0.01886986 0 -0.04807963 0.01149321 0 -0.05035502 0.003859809 0.019 -0.05150558 0.01149321 0.019 -0.05035502 0.01149321 0 -0.05035502 0.003859809 0 -0.05150558 -0.003859809 0.019 -0.05150558 0.003859809 0.019 -0.05150558 0.003859809 0 -0.05150558 -0.003859809 0 -0.05150558 -0.003859809 0.019 -0.05150558 -0.003859809 0 -0.05150558 -0.01149321 0 -0.05035502 -0.01149321 0.019 -0.05035502 -0.01149321 0.019 -0.05035502 -0.01149321 0 -0.05035502 -0.01886986 0 -0.04807963 -0.01886986 0.019 -0.04807963 -0.025825 0.019 -0.04473021 -0.01886986 0.019 -0.04807963 -0.01886986 0 -0.04807963 -0.025825 0 -0.04473021 -0.03220325 0.019 -0.0403816 -0.025825 0.019 -0.04473021 -0.025825 0 -0.04473021 -0.03220325 0 -0.0403816 -0.03220325 0.019 -0.0403816 -0.03220325 0 -0.0403816 -0.03786213 0 -0.03513092 -0.03786213 0.019 -0.03513092 -0.04267523 0.019 -0.02909548 -0.03786213 0.019 -0.03513092 -0.03786213 0 -0.03513092 -0.04267523 0 -0.02909548 -0.04653504 0.019 -0.02241009 -0.04267523 0 -0.02909548 -0.04653504 0 -0.02241009 -0.04267523 0.019 -0.02909548 -0.04935534 0.019 -0.0152241 -0.04653504 0.019 -0.02241009 -0.04653504 0 -0.02241009 -0.04935534 0 -0.0152241 -0.05107311 0.019 -0.007698033 -0.04935534 0 -0.0152241 -0.05107311 0 -0.007698033 -0.04935534 0.019 -0.0152241 -0.05165 0.019 3.954911e-17 -0.05107311 0 -0.007698033 -0.05165 0 3.954911e-17 -0.05107311 0.019 -0.007698033 -0.05107311 0.019 0.007698033 -0.05165 0 3.954911e-17 -0.05107311 0 0.007698033 -0.05165 0.019 3.954911e-17 -0.04935534 0.019 0.0152241 -0.05107311 0 0.007698033 -0.04935534 0 0.0152241 -0.04935534 0.019 0.0152241 -0.04935534 0 0.0152241 -0.04653504 0 0.02241009 -0.05107311 0.019 0.007698033 -0.04653504 0.019 0.02241009 -0.04267523 0.019 0.02909548 -0.04653504 0 0.02241009 -0.04267523 0 0.02909548 -0.04653504 0.019 0.02241009 -0.03786213 0.019 0.03513092 -0.04267523 0 0.02909548 -0.03786213 0 0.03513092 -0.04267523 0.019 0.02909548 -0.03220325 0.019 0.0403816 -0.03786213 0 0.03513092 -0.03220325 0 0.0403816 -0.03220325 0.019 0.0403816 -0.03220325 0 0.0403816 -0.025825 0 0.04473021 -0.03786213 0.019 0.03513092 -0.025825 0.019 0.04473021 -0.01886986 0.019 0.04807963 -0.025825 0.019 0.04473021 -0.025825 0 0.04473021 -0.01886986 0 0.04807963 -0.01149321 0.019 0.05035502 -0.01886986 0.019 0.04807963 -0.01886986 0 0.04807963 -0.01149321 0 0.05035502 -0.003859809 0.019 0.05150558 -0.01149321 0.019 0.05035502 -0.01149321 0 0.05035502 -0.003859809 0 0.05150558 -0.003859809 0.019 0.05150558 -0.003859809 0 0.05150558 0.003859809 0 0.05150558 0.003859809 0.019 0.05150558 0.01149321 0.019 0.05035502 0.003859809 0.019 0.05150558 0.003859809 0 0.05150558 0.01149321 0 0.05035502 0.01886986 0.019 0.04807963 0.01149321 0.019 0.05035502 0.01149321 0 0.05035502 0.01886986 0 0.04807963 0.025825 0.019 0.04473021 0.01886986 0.019 0.04807963 0.01886986 0 0.04807963 0.025825 0 0.04473021 0.03220325 0.019 0.0403816 0.025825 0.019 0.04473021 0.025825 0 0.04473021 0.03220325 0 0.0403816 0.03220325 0.019 0.0403816 0.03220325 0 0.0403816 0.03786213 0 0.03513092 0.03786213 0.019 0.03513092 0.04267523 0.019 0.02909548 0.03786213 0.019 0.03513092 0.03786213 0 0.03513092 0.04267523 0 0.02909548 0.04653504 0.019 0.02241009 0.04267523 0.019 0.02909548 0.04267523 0 0.02909548 0.04653504 0 0.02241009 0.04935534 0.019 0.0152241 0.04653504 0.019 0.02241009 0.04653504 0 0.02241009 0.04935534 0 0.0152241 0.05107311 0.019 0.007698033 0.04935534 0.019 0.0152241 0.04935534 0 0.0152241 0.05107311 0 0.007698033 0.05165 0.019 1.26506e-17 0.05107311 0.019 0.007698033 0.05107311 0 0.007698033 0.05165 0 1.26506e-17 -0.025825 0.019 0.04473021 -0.04267523 0.019 0.02909548 -0.03786213 0.019 0.03513092 -0.03220325 0.019 0.0403816 -0.01149321 0.019 0.05035502 -0.01886986 0.019 0.04807963 -0.05107311 0.019 0.007698033 -0.04935534 0.019 0.0152241 -0.04653504 0.019 0.02241009 -0.003859809 0.019 0.05150558 0.01149321 0.019 0.05035502 0.003859809 0.019 0.05150558 -0.04935534 0.019 -0.0152241 -0.05107311 0.019 -0.007698033 -0.05165 0.019 3.954911e-17 0.025825 0.019 0.04473021 0.01886986 0.019 0.04807963 0.03220325 0.019 0.0403816 -0.03786213 0.019 -0.03513092 -0.04267523 0.019 -0.02909548 -0.04653504 0.019 -0.02241009 0.04267523 0.019 0.02909548 0.03786213 0.019 0.03513092 -0.025825 0.019 -0.04473021 -0.03220325 0.019 -0.0403816 0.04653504 0.019 0.02241009 -0.01149321 0.019 -0.05035502 -0.01886986 0.019 -0.04807963 0.01149321 0.019 -0.05035502 0.003859809 0.019 -0.05150558 -0.003859809 0.019 -0.05150558 0.04653504 0.019 -0.02241009 0.05165 0.019 1.26506e-17 0.05107311 0.019 -0.007698033 0.04935534 0.019 -0.0152241 0.05107311 0.019 0.007698033 0.025825 0.019 -0.04473021 0.01886986 0.019 -0.04807963 0.04267523 0.019 -0.02909548 0.04935534 0.019 0.0152241 0.03786213 0.019 -0.03513092 0.03220325 0.019 -0.0403816 -0.04267523 0 0.02909548 -0.025825 0 0.04473021 -0.03786213 0 0.03513092 -0.03220325 0 0.0403816 -0.01149321 0 0.05035502 -0.01886986 0 0.04807963 -0.04935534 0 0.0152241 -0.05107311 0 0.007698033 -0.04653504 0 0.02241009 -0.003859809 0 0.05150558 0.01149321 0 0.05035502 0.003859809 0 0.05150558 -0.05107311 0 -0.007698033 -0.04935534 0 -0.0152241 -0.05165 0 3.954911e-17 0.025825 0 0.04473021 0.01886986 0 0.04807963 0.03220325 0 0.0403816 -0.04267523 0 -0.02909548 -0.03786213 0 -0.03513092 -0.04653504 0 -0.02241009 0.04267523 0 0.02909548 0.03786213 0 0.03513092 -0.03220325 0 -0.0403816 -0.025825 0 -0.04473021 0.04653504 0 0.02241009 -0.01886986 0 -0.04807963 -0.01149321 0 -0.05035502 0.003859809 0 -0.05150558 0.01149321 0 -0.05035502 -0.003859809 0 -0.05150558 0.05165 0 1.26506e-17 0.04653504 0 -0.02241009 0.05107311 0 -0.007698033 0.04935534 0 -0.0152241 0.05107311 0 0.007698033 0.01886986 0 -0.04807963 0.025825 0 -0.04473021 0.04267523 0 -0.02909548 0.04935534 0 0.0152241 0.03786213 0 -0.03513092 0.03220325 0 -0.0403816 0.05107311 0.0717 -0.007698033 0.05165 0.0717 1.26506e-17 0.05165 0.057 1.26506e-17 0.05107311 0.057 -0.007698033 0.04935534 0.0717 -0.0152241 0.05107311 0.057 -0.007698033 0.04935534 0.057 -0.0152241 0.05107311 0.0717 -0.007698033 0.04653504 0.0717 -0.02241009 0.04935534 0.0717 -0.0152241 0.04935534 0.057 -0.0152241 0.04653504 0.057 -0.02241009 0.04267523 0.0717 -0.02909548 0.04653504 0.0717 -0.02241009 0.04653504 0.057 -0.02241009 0.04267523 0.057 -0.02909548 0.03786213 0.0717 -0.03513092 0.04267523 0.0717 -0.02909548 0.04267523 0.057 -0.02909548 0.03786213 0.057 -0.03513092 0.03786213 0.0717 -0.03513092 0.03786213 0.057 -0.03513092 0.03220325 0.057 -0.0403816 0.03220325 0.0717 -0.0403816 0.025825 0.0717 -0.04473021 0.03220325 0.0717 -0.0403816 0.03220325 0.057 -0.0403816 0.025825 0.057 -0.04473021 0.01886986 0.0717 -0.04807963 0.025825 0.0717 -0.04473021 0.025825 0.057 -0.04473021 0.01886986 0.057 -0.04807963 0.01149321 0.0717 -0.05035502 0.01886986 0.0717 -0.04807963 0.01886986 0.057 -0.04807963 0.01149321 0.057 -0.05035502 0.003859809 0.0717 -0.05150558 0.01149321 0.0717 -0.05035502 0.01149321 0.057 -0.05035502 0.003859809 0.057 -0.05150558 -0.003859809 0.0717 -0.05150558 0.003859809 0.0717 -0.05150558 0.003859809 0.057 -0.05150558 -0.003859809 0.057 -0.05150558 -0.01149321 0.0717 -0.05035502 -0.003859809 0.0717 -0.05150558 -0.003859809 0.057 -0.05150558 -0.01149321 0.057 -0.05035502 -0.01886986 0.0717 -0.04807963 -0.01149321 0.0717 -0.05035502 -0.01149321 0.057 -0.05035502 -0.01886986 0.057 -0.04807963 -0.025825 0.0717 -0.04473021 -0.01886986 0.0717 -0.04807963 -0.01886986 0.057 -0.04807963 -0.025825 0.057 -0.04473021 -0.03220325 0.0717 -0.0403816 -0.025825 0.0717 -0.04473021 -0.025825 0.057 -0.04473021 -0.03220325 0.057 -0.0403816 -0.03786213 0.0717 -0.03513092 -0.03220325 0.0717 -0.0403816 -0.03220325 0.057 -0.0403816 -0.03786213 0.057 -0.03513092 -0.04267523 0.0717 -0.02909548 -0.03786213 0.0717 -0.03513092 -0.03786213 0.057 -0.03513092 -0.04267523 0.057 -0.02909548 -0.04653504 0.0717 -0.02241009 -0.04267523 0.057 -0.02909548 -0.04653504 0.057 -0.02241009 -0.04267523 0.0717 -0.02909548 -0.04935534 0.0717 -0.0152241 -0.04653504 0.0717 -0.02241009 -0.04653504 0.057 -0.02241009 -0.04935534 0.057 -0.0152241 -0.05107311 0.0717 -0.007698033 -0.04935534 0.057 -0.0152241 -0.05107311 0.057 -0.007698033 -0.04935534 0.0717 -0.0152241 -0.05165 0.0717 3.954911e-17 -0.05107311 0.057 -0.007698033 -0.05165 0.057 3.954911e-17 -0.05107311 0.0717 -0.007698033 -0.05107311 0.0717 0.007698033 -0.05165 0.057 3.954911e-17 -0.05107311 0.057 0.007698033 -0.05107311 0.0717 0.007698033 -0.05107311 0.057 0.007698033 -0.04935534 0.057 0.0152241 -0.05165 0.0717 3.954911e-17 -0.04935534 0.0717 0.0152241 -0.04935534 0.0717 0.0152241 -0.04935534 0.057 0.0152241 -0.04653504 0.057 0.02241009 -0.04653504 0.0717 0.02241009 -0.04267523 0.0717 0.02909548 -0.04653504 0.057 0.02241009 -0.04267523 0.057 0.02909548 -0.04267523 0.0717 0.02909548 -0.04267523 0.057 0.02909548 -0.03786213 0.057 0.03513092 -0.04653504 0.0717 0.02241009 -0.03786213 0.0717 0.03513092 -0.03220325 0.0717 0.0403816 -0.03786213 0.057 0.03513092 -0.03220325 0.057 0.0403816 -0.03220325 0.0717 0.0403816 -0.03220325 0.057 0.0403816 -0.025825 0.057 0.04473021 -0.03786213 0.0717 0.03513092 -0.025825 0.0717 0.04473021 -0.025825 0.057 0.04473021 -0.01886986 0.057 0.04807963 -0.025825 0.0717 0.04473021 -0.01886986 0.0717 0.04807963 -0.01149321 0.0717 0.05035502 -0.01886986 0.0717 0.04807963 -0.01886986 0.057 0.04807963 -0.01149321 0.057 0.05035502 -0.003859809 0.0717 0.05150558 -0.01149321 0.0717 0.05035502 -0.01149321 0.057 0.05035502 -0.003859809 0.057 0.05150558 -0.003859809 0.0717 0.05150558 -0.003859809 0.057 0.05150558 0.003859809 0.057 0.05150558 0.003859809 0.0717 0.05150558 0.01149321 0.0717 0.05035502 0.003859809 0.0717 0.05150558 0.003859809 0.057 0.05150558 0.01149321 0.057 0.05035502 0.01149321 0.0717 0.05035502 0.01149321 0.057 0.05035502 0.01886986 0.057 0.04807963 0.01886986 0.0717 0.04807963 0.025825 0.0717 0.04473021 0.01886986 0.0717 0.04807963 0.01886986 0.057 0.04807963 0.025825 0.057 0.04473021 0.03220325 0.0717 0.0403816 0.025825 0.0717 0.04473021 0.025825 0.057 0.04473021 0.03220325 0.057 0.0403816 0.03786213 0.0717 0.03513092 0.03220325 0.0717 0.0403816 0.03220325 0.057 0.0403816 0.03786213 0.057 0.03513092 0.04267523 0.0717 0.02909548 0.03786213 0.0717 0.03513092 0.03786213 0.057 0.03513092 0.04267523 0.057 0.02909548 0.04653504 0.0717 0.02241009 0.04267523 0.0717 0.02909548 0.04267523 0.057 0.02909548 0.04653504 0.057 0.02241009 0.04935534 0.0717 0.0152241 0.04653504 0.0717 0.02241009 0.04653504 0.057 0.02241009 0.04935534 0.057 0.0152241 0.05107311 0.0717 0.007698033 0.04935534 0.0717 0.0152241 0.04935534 0.057 0.0152241 0.05107311 0.057 0.007698033 0.05165 0.0717 1.26506e-17 0.05107311 0.0717 0.007698033 0.05107311 0.057 0.007698033 0.05165 0.057 1.26506e-17 -0.025825 0.0717 0.04473021 -0.04267523 0.0717 0.02909548 -0.03786213 0.0717 0.03513092 -0.03220325 0.0717 0.0403816 -0.01149321 0.0717 0.05035502 -0.01886986 0.0717 0.04807963 -0.05107311 0.0717 0.007698033 -0.04935534 0.0717 0.0152241 -0.04653504 0.0717 0.02241009 -0.003859809 0.0717 0.05150558 0.01149321 0.0717 0.05035502 0.003859809 0.0717 0.05150558 -0.04935534 0.0717 -0.0152241 -0.05107311 0.0717 -0.007698033 -0.05165 0.0717 3.954911e-17 0.025825 0.0717 0.04473021 0.01886986 0.0717 0.04807963 0.03220325 0.0717 0.0403816 -0.03786213 0.0717 -0.03513092 -0.04267523 0.0717 -0.02909548 -0.04653504 0.0717 -0.02241009 0.04267523 0.0717 0.02909548 0.03786213 0.0717 0.03513092 -0.025825 0.0717 -0.04473021 -0.03220325 0.0717 -0.0403816 0.04653504 0.0717 0.02241009 -0.01149321 0.0717 -0.05035502 -0.01886986 0.0717 -0.04807963 0.01149321 0.0717 -0.05035502 0.003859809 0.0717 -0.05150558 -0.003859809 0.0717 -0.05150558 0.04653504 0.0717 -0.02241009 0.05165 0.0717 1.26506e-17 0.05107311 0.0717 -0.007698033 0.04935534 0.0717 -0.0152241 0.05107311 0.0717 0.007698033 0.025825 0.0717 -0.04473021 0.01886986 0.0717 -0.04807963 0.04267523 0.0717 -0.02909548 0.04935534 0.0717 0.0152241 0.03786213 0.0717 -0.03513092 0.03220325 0.0717 -0.0403816 -0.04267523 0.057 0.02909548 -0.025825 0.057 0.04473021 -0.03786213 0.057 0.03513092 -0.03220325 0.057 0.0403816 -0.01149321 0.057 0.05035502 -0.01886986 0.057 0.04807963 -0.04935534 0.057 0.0152241 -0.05107311 0.057 0.007698033 -0.04653504 0.057 0.02241009 -0.003859809 0.057 0.05150558 0.01149321 0.057 0.05035502 0.003859809 0.057 0.05150558 -0.05107311 0.057 -0.007698033 -0.04935534 0.057 -0.0152241 -0.05165 0.057 3.954911e-17 0.025825 0.057 0.04473021 0.01886986 0.057 0.04807963 0.03220325 0.057 0.0403816 -0.04267523 0.057 -0.02909548 -0.03786213 0.057 -0.03513092 -0.04653504 0.057 -0.02241009 0.04267523 0.057 0.02909548 0.03786213 0.057 0.03513092 -0.03220325 0.057 -0.0403816 -0.025825 0.057 -0.04473021 0.04653504 0.057 0.02241009 -0.01886986 0.057 -0.04807963 -0.01149321 0.057 -0.05035502 0.003859809 0.057 -0.05150558 0.01149321 0.057 -0.05035502 -0.003859809 0.057 -0.05150558 0.05165 0.057 1.26506e-17 0.04653504 0.057 -0.02241009 0.05107311 0.057 -0.007698033 0.04935534 0.057 -0.0152241 0.05107311 0.057 0.007698033 0.01886986 0.057 -0.04807963 0.025825 0.057 -0.04473021 0.04267523 0.057 -0.02909548 0.04935534 0.057 0.0152241 0.03786213 0.057 -0.03513092 0.03220325 0.057 -0.0403816</float_array>
          <technique_common>
            <accessor count="504" source="#verts-array-array" stride="3">
              <param type="float" name="X"/>
              <param type="float" name="Y"/>
              <param type="float" name="Z"/>
            </accessor>
          </technique_common>
        </source>
        <source id="normals-array">
          <float_array count="1512" id="normals-array-array">0.9972038 0 -0.07473002 0.9972038 0 -0.07473002 0.9972038 0 -0.07473002 0.9972038 0 -0.07473002 0.974928 0 -0.2225205 0.974928 0 -0.2225205 0.974928 0 -0.2225205 0.974928 0 -0.2225205 0.9308735 0 -0.3653416 0.9308735 0 -0.3653416 0.9308735 0 -0.3653416 0.9308735 0 -0.3653416 0.8660255 0 -0.4999998 0.8660255 0 -0.4999998 0.8660255 0 -0.4999998 0.8660255 0 -0.4999998 0.7818317 0 -0.6234896 0.7818317 0 -0.6234896 0.7818317 0 -0.6234896 0.7818317 0 -0.6234896 0.680173 0 -0.7330516 0.680173 0 -0.7330516 0.680173 0 -0.7330516 0.680173 0 -0.7330516 0.5633194 0 -0.8262392 0.5633194 0 -0.8262392 0.5633194 0 -0.8262392 0.5633194 0 -0.8262392 0.4338839 0 -0.9009688 0.4338839 0 -0.9009688 0.4338839 0 -0.9009688 0.4338839 0 -0.9009688 0.2947548 0 -0.9555729 0.2947548 0 -0.9555729 0.2947548 0 -0.9555729 0.2947548 0 -0.9555729 0.1490435 0 -0.9888306 0.1490435 0 -0.9888306 0.1490435 0 -0.9888306 0.1490435 0 -0.9888306 0 0 -1 0 0 -1 0 0 -1 0 0 -1 -0.1490435 0 -0.9888306 -0.1490435 0 -0.9888306 -0.1490435 0 -0.9888306 -0.1490435 0 -0.9888306 -0.2947548 0 -0.9555729 -0.2947548 0 -0.9555729 -0.2947548 0 -0.9555729 -0.2947548 0 -0.9555729 -0.4338839 0 -0.9009688 -0.4338839 0 -0.9009688 -0.4338839 0 -0.9009688 -0.4338839 0 -0.9009688 -0.5633194 0 -0.8262392 -0.5633194 0 -0.8262392 -0.5633194 0 -0.8262392 -0.5633194 0 -0.8262392 -0.680173 0 -0.7330516 -0.680173 0 -0.7330516 -0.680173 0 -0.7330516 -0.680173 0 -0.7330516 -0.7818317 0 -0.6234896 -0.7818317 0 -0.6234896 -0.7818317 0 -0.6234896 -0.7818317 0 -0.6234896 -0.8660255 0 -0.4999998 -0.8660255 0 -0.4999998 -0.8660255 0 -0.4999998 -0.8660255 0 -0.4999998 -0.9308735 0 -0.3653416 -0.9308735 0 -0.3653416 -0.9308735 0 -0.3653416 -0.9308735 0 -0.3653416 -0.974928 0 -0.2225205 -0.974928 0 -0.2225205 -0.974928 0 -0.2225205 -0.974928 0 -0.2225205 -0.9972038 0 -0.07473002 -0.9972038 0 -0.07473002 -0.9972038 0 -0.07473002 -0.9972038 0 -0.07473002 -0.9972038 0 0.07473002 -0.9972038 0 0.07473002 -0.9972038 0 0.07473002 -0.9972038 0 0.07473002 -0.974928 0 0.2225205 -0.974928 0 0.2225205 -0.974928 0 0.2225205 -0.9308735 0 0.3653416 -0.9308735 0 0.3653416 -0.9308735 0 0.3653416 -0.974928 0 0.2225205 -0.9308735 0 0.3653416 -0.8660255 0 0.4999998 -0.8660255 0 0.4999998 -0.8660255 0 0.4999998 -0.8660255 0 0.4999998 -0.7818317 0 0.6234896 -0.7818317 0 0.6234896 -0.7818317 0 0.6234896 -0.7818317 0 0.6234896 -0.680173 0 0.7330516 -0.680173 0 0.7330516 -0.680173 0 0.7330516 -0.5633194 0 0.8262392 -0.5633194 0 0.8262392 -0.5633194 0 0.8262392 -0.680173 0 0.7330516 -0.5633194 0 0.8262392 -0.4338839 0 0.9009688 -0.4338839 0 0.9009688 -0.4338839 0 0.9009688 -0.4338839 0 0.9009688 -0.2947548 0 0.9555729 -0.2947548 0 0.9555729 -0.2947548 0 0.9555729 -0.2947548 0 0.9555729 -0.1490435 0 0.9888306 -0.1490435 0 0.9888306 -0.1490435 0 0.9888306 -0.1490435 0 0.9888306 0 0 1 0 0 1 0 0 1 0 0 1 0.1490435 0 0.9888306 0.1490435 0 0.9888306 0.1490435 0 0.9888306 0.1490435 0 0.9888306 0.2947548 0 0.9555729 0.2947548 0 0.9555729 0.2947548 0 0.9555729 0.2947548 0 0.9555729 0.4338839 0 0.9009688 0.4338839 0 0.9009688 0.4338839 0 0.9009688 0.4338839 0 0.9009688 0.5633194 0 0.8262392 0.5633194 0 0.8262392 0.5633194 0 0.8262392 0.5633194 0 0.8262392 0.680173 0 0.7330516 0.680173 0 0.7330516 0.680173 0 0.7330516 0.680173 0 0.7330516 0.7818317 0 0.6234896 0.7818317 0 0.6234896 0.7818317 0 0.6234896 0.7818317 0 0.6234896 0.8660255 0 0.4999998 0.8660255 0 0.4999998 0.8660255 0 0.4999998 0.8660255 0 0.4999998 0.9308735 0 0.3653416 0.9308735 0 0.3653416 0.9308735 0 0.3653416 0.9308735 0 0.3653416 0.974928 0 0.2225205 0.974928 0 0.2225205 0.974928 0 0.2225205 0.974928 0 0.2225205 0.9972038 0 0.07473002 0.9972038 0 0.07473002 0.9972038 0 0.07473002 0.9972038 0 0.07473002 0 1 0 0 1 0 0 1 0 0 1 0 0 1 0 0 1 0 0 1 0 0 1 0 0 1 0 0 1 0 0 1 0 0 1 0 0 1 0 0 1 0 0 1 0 0 1 0 0 1 0 0 1 0 0 1 0 0 1 0 0 1 0 0 1 0 0 1 0 0 1 0 0 1 0 0 1 0 0 1 0 0 1 0 0 1 0 0 1 0 0 1 0 0 1 0 0 1 0 0 1 0 0 1 0 0 1 0 0 1 0 0 1 0 0 1 0 0 1 0 0 1 0 0 1 0 0 -1 0 0 -1 0 0 -1 0 0 -1 0 0 -1 0 0 -1 0 0 -1 0 0 -1 0 0 -1 0 0 -1 0 0 -1 0 0 -1 0 0 -1 0 0 -1 0 0 -1 0 0 -1 0 0 -1 0 0 -1 0 0 -1 0 0 -1 0 0 -1 0 0 -1 0 0 -1 0 0 -1 0 0 -1 0 0 -1 0 0 -1 0 0 -1 0 0 -1 0 0 -1 0 0 -1 0 0 -1 0 0 -1 0 0 -1 0 0 -1 0 0 -1 0 0 -1 0 0 -1 0 0 -1 0 0 -1 0 0 -1 0 0 -1 0 0.9972038 0 -0.07473002 0.9972038 0 -0.07473002 0.9972038 0 -0.07473002 0.9972038 0 -0.07473002 0.974928 0 -0.2225205 0.974928 0 -0.2225205 0.974928 0 -0.2225205 0.974928 0 -0.2225205 0.9308735 0 -0.3653416 0.9308735 0 -0.3653416 0.9308735 0 -0.3653416 0.9308735 0 -0.3653416 0.8660255 0 -0.4999998 0.8660255 0 -0.4999998 0.8660255 0 -0.4999998 0.8660255 0 -0.4999998 0.7818317 0 -0.6234896 0.7818317 0 -0.6234896 0.7818317 0 -0.6234896 0.7818317 0 -0.6234896 0.680173 0 -0.7330516 0.680173 0 -0.7330516 0.680173 0 -0.7330516 0.680173 0 -0.7330516 0.5633194 0 -0.8262392 0.5633194 0 -0.8262392 0.5633194 0 -0.8262392 0.5633194 0 -0.8262392 0.4338839 0 -0.9009688 0.4338839 0 -0.9009688 0.4338839 0 -0.9009688 0.4338839 0 -0.9009688 0.2947548 0 -0.9555729 0.2947548 0 -0.9555729 0.2947548 0 -0.9555729 0.2947548 0 -0.9555729 0.1490435 0 -0.9888306 0.1490435 0 -0.9888306 0.1490435 0 -0.9888306 0.1490435 0 -0.9888306 0 0 -1 0 0 -1 0 0 -1 0 0 -1 -0.1490435 0 -0.9888306 -0.1490435 0 -0.9888306 -0.1490435 0 -0.9888306 -0.1490435 0 -0.9888306 -0.2947548 0 -0.9555729 -0.2947548 0 -0.9555729 -0.2947548 0 -0.9555729 -0.2947548 0 -0.9555729 -0.4338839 0 -0.9009688 -0.4338839 0 -0.9009688 -0.4338839 0 -0.9009688 -0.4338839 0 -0.9009688 -0.5633194 0 -0.8262392 -0.5633194 0 -0.8262392 -0.5633194 0 -0.8262392 -0.5633194 0 -0.8262392 -0.680173 0 -0.7330516 -0.680173 0 -0.7330516 -0.680173 0 -0.7330516 -0.680173 0 -0.7330516 -0.7818317 0 -0.6234896 -0.7818317 0 -0.6234896 -0.7818317 0 -0.6234896 -0.7818317 0 -0.6234896 -0.8660255 0 -0.4999998 -0.8660255 0 -0.4999998 -0.8660255 0 -0.4999998 -0.8660255 0 -0.4999998 -0.9308735 0 -0.3653416 -0.9308735 0 -0.3653416 -0.9308735 0 -0.3653416 -0.9308735 0 -0.3653416 -0.974928 0 -0.2225205 -0.974928 0 -0.2225205 -0.974928 0 -0.2225205 -0.974928 0 -0.2225205 -0.9972038 0 -0.07473002 -0.9972038 0 -0.07473002 -0.9972038 0 -0.07473002 -0.9972038 0 -0.07473002 -0.9972038 0 0.07473002 -0.9972038 0 0.07473002 -0.9972038 0 0.07473002 -0.974928 0 0.2225205 -0.974928 0 0.2225205 -0.974928 0 0.2225205 -0.9972038 0 0.07473002 -0.974928 0 0.2225205 -0.9308735 0 0.3653416 -0.9308735 0 0.3653416 -0.9308735 0 0.3653416 -0.9308735 0 0.3653416 -0.8660255 0 0.4999998 -0.8660255 0 0.4999998 -0.8660255 0 0.4999998 -0.7818317 0 0.6234896 -0.7818317 0 0.6234896 -0.7818317 0 0.6234896 -0.8660255 0 0.4999998 -0.7818317 0 0.6234896 -0.680173 0 0.7330516 -0.680173 0 0.7330516 -0.680173 0 0.7330516 -0.5633194 0 0.8262392 -0.5633194 0 0.8262392 -0.5633194 0 0.8262392 -0.680173 0 0.7330516 -0.4338839 0 0.9009688 -0.4338839 0 0.9009688 -0.4338839 0 0.9009688 -0.5633194 0 0.8262392 -0.4338839 0 0.9009688 -0.2947548 0 0.9555729 -0.2947548 0 0.9555729 -0.2947548 0 0.9555729 -0.2947548 0 0.9555729 -0.1490435 0 0.9888306 -0.1490435 0 0.9888306 -0.1490435 0 0.9888306 -0.1490435 0 0.9888306 0 0 1 0 0 1 0 0 1 0 0 1 0.1490435 0 0.9888306 0.1490435 0 0.9888306 0.1490435 0 0.9888306 0.1490435 0 0.9888306 0.2947548 0 0.9555729 0.2947548 0 0.9555729 0.2947548 0 0.9555729 0.2947548 0 0.9555729 0.4338839 0 0.9009688 0.4338839 0 0.9009688 0.4338839 0 0.9009688 0.4338839 0 0.9009688 0.5633194 0 0.8262392 0.5633194 0 0.8262392 0.5633194 0 0.8262392 0.5633194 0 0.8262392 0.680173 0 0.7330516 0.680173 0 0.7330516 0.680173 0 0.7330516 0.680173 0 0.7330516 0.7818317 0 0.6234896 0.7818317 0 0.6234896 0.7818317 0 0.6234896 0.7818317 0 0.6234896 0.8660255 0 0.4999998 0.8660255 0 0.4999998 0.8660255 0 0.4999998 0.8660255 0 0.4999998 0.9308735 0 0.3653416 0.9308735 0 0.3653416 0.9308735 0 0.3653416 0.9308735 0 0.3653416 0.974928 0 0.2225205 0.974928 0 0.2225205 0.974928 0 0.2225205 0.974928 0 0.2225205 0.9972038 0 0.07473002 0.9972038 0 0.07473002 0.9972038 0 0.07473002 0.9972038 0 0.07473002 0 1 0 0 1 0 0 1 0 0 1 0 0 1 0 0 1 0 0 1 0 0 1 0 0 1 0 0 1 0 0 1 0 0 1 0 0 1 0 0 1 0 0 1 0 0 1 0 0 1 0 0 1 0 0 1 0 0 1 0 0 1 0 0 1 0 0 1 0 0 1 0 0 1 0 0 1 0 0 1 0 0 1 0 0 1 0 0 1 0 0 1 0 0 1 0 0 1 0 0 1 0 0 1 0 0 1 0 0 1 0 0 1 0 0 1 0 0 1 0 0 1 0 0 1 0 0 -1 0 0 -1 0 0 -1 0 0 -1 0 0 -1 0 0 -1 0 0 -1 0 0 -1 0 0 -1 0 0 -1 0 0 -1 0 0 -1 0 0 -1 0 0 -1 0 0 -1 0 0 -1 0 0 -1 0 0 -1 0 0 -1 0 0 -1 0 0 -1 0 0 -1 0 0 -1 0 0 -1 0 0 -1 0 0 -1 0 0 -1 0 0 -1 0 0 -1 0 0 -1 0 0 -1 0 0 -1 0 0 -1 0 0 -1 0 0 -1 0 0 -1 0 0 -1 0 0 -1 0 0 -1 0 0 -1 0 0 -1 0 0 -1 0</float_array>
          <technique_common>
            <accessor count="504" source="#normals-array-array" stride="3">
              <param type="float" name="X"/>
              <param type="float" name="Y"/>
              <param type="float" name="Z"/>
            </accessor>
          </technique_common>
        </source>
        <vertices id="verts-array-vertices">
          <input semantic="POSITION" source="#verts-array"/>
        </vertices>
        <triangles count="328" material="material1">
          <input offset="0" semantic="VERTEX" source="#verts-array-vertices"/>
          <input offset="1" semantic="NORMAL" source="#normals-array"/>
          <p>0 0 1 1 2 2 0 0 2 2 3 3 4 4 5 5 6 6 4 4 7 7 5 5 8 8 9 9 10 10 8 8 10 10 11 11 12 12 13 13 14 14 15 15 12 12 14 14 16 16 17 17 18 18 16 16 18 18 19 19 20 20 21 21 22 22 23 23 20 20 22 22 24 24 25 25 26 26 24 24 26 26 27 27 28 28 29 29 30 30 28 28 30 30 31 31 32 32 33 33 34 34 32 32 34 34 35 35 36 36 37 37 38 38 36 36 38 38 39 39 40 40 41 41 42 42 40 40 42 42 43 43 44 44 45 45 46 46 47 47 44 44 46 46 48 48 49 49 50 50 51 51 48 48 50 50 52 52 53 53 54 54 52 52 54 54 55 55 56 56 57 57 58 58 56 56 58 58 59 59 60 60 61 61 62 62 63 63 60 60 62 62 64 64 65 65 66 66 64 64 66 66 67 67 68 68 69 69 70 70 68 68 71 71 69 69 72 72 73 73 74 74 72 72 74 74 75 75 76 76 77 77 78 78 76 76 79 79 77 77 80 80 81 81 82 82 80 80 83 83 81 81 84 84 85 85 86 86 84 84 87 87 85 85 88 88 89 89 90 90 91 91 92 92 93 93 88 88 94 94 89 89 95 95 91 91 93 93 96 96 97 97 98 98 96 96 99 99 97 97 100 100 101 101 102 102 100 100 103 103 101 101 104 104 105 105 106 106 107 107 108 108 109 109 104 104 110 110 105 105 111 111 107 107 109 109 112 112 113 113 114 114 112 112 114 114 115 115 116 116 117 117 118 118 116 116 118 118 119 119 120 120 121 121 122 122 120 120 122 122 123 123 124 124 125 125 126 126 127 127 124 124 126 126 128 128 129 129 130 130 128 128 130 130 131 131 132 132 133 133 134 134 132 132 134 134 135 135 136 136 137 137 138 138 136 136 138 138 139 139 140 140 141 141 142 142 140 140 142 142 143 143 144 144 145 145 146 146 147 147 144 144 146 146 148 148 149 149 150 150 148 148 150 150 151 151 152 152 153 153 154 154 152 152 154 154 155 155 156 156 157 157 158 158 156 156 158 158 159 159 160 160 161 161 162 162 160 160 162 162 163 163 164 164 165 165 166 166 164 164 166 166 167 167 168 168 169 169 170 170 168 168 170 170 171 171 172 172 168 168 173 173 174 174 175 175 176 176 177 177 168 168 172 172 178 178 177 177 179 179 180 180 181 181 182 182 183 183 178 178 184 184 185 185 177 177 178 178 185 185 178 178 183 183 186 186 187 187 188 188 186 186 188 188 180 180 186 186 182 182 174 174 186 186 180 180 182 182 189 189 185 185 190 190 191 191 192 192 186 186 191 191 176 176 169 169 191 191 169 169 168 168 191 191 174 174 176 176 191 191 186 186 174 174 193 193 185 185 189 189 194 194 195 195 191 191 194 194 177 177 185 185 194 194 168 168 177 177 194 194 191 191 168 168 196 196 197 197 198 198 196 196 198 198 194 194 199 199 200 200 201 201 199 199 201 201 202 202 199 199 203 203 200 200 204 204 205 205 196 196 204 204 196 196 194 194 204 204 194 194 185 185 206 206 203 203 199 199 206 206 193 193 207 207 206 206 207 207 203 203 206 206 185 185 193 193 208 208 185 185 206 206 208 208 209 209 204 204 208 208 204 204 185 185 210 210 211 211 212 212 212 212 211 211 213 213 211 211 214 214 215 215 216 216 217 217 218 218 211 211 219 219 214 214 219 219 220 220 221 221 222 222 223 223 224 224 220 220 225 225 226 226 219 219 227 227 220 220 220 220 227 227 225 225 228 228 229 229 230 230 230 230 229 229 223 223 224 224 229 229 217 217 223 223 229 229 224 224 227 227 231 231 232 232 233 233 234 234 229 229 218 218 234 234 210 210 210 210 234 234 211 211 217 217 234 234 218 218 229 229 234 234 217 217 227 227 235 235 231 231 236 236 237 237 234 234 219 219 237 237 227 227 211 211 237 237 219 219 234 234 237 237 211 211 238 238 239 239 240 240 240 240 239 239 237 237 241 241 242 242 243 243 243 243 242 242 244 244 245 245 242 242 241 241 246 246 247 247 239 239 239 239 247 247 237 237 237 237 247 247 227 227 245 245 248 248 242 242 235 235 248 248 249 249 249 249 248 248 245 245 227 227 248 248 235 235 227 227 250 250 248 248 251 251 250 250 247 247 247 247 250 250 227 227 252 252 253 253 254 254 252 252 254 254 255 255 256 256 257 257 258 258 256 256 259 259 257 257 260 260 261 261 262 262 260 260 262 262 263 263 264 264 265 265 266 266 264 264 266 266 267 267 268 268 269 269 270 270 268 268 270 270 271 271 272 272 273 273 274 274 275 275 272 272 274 274 276 276 277 277 278 278 276 276 278 278 279 279 280 280 281 281 282 282 280 280 282 282 283 283 284 284 285 285 286 286 284 284 286 286 287 287 288 288 289 289 290 290 288 288 290 290 291 291 292 292 293 293 294 294 292 292 294 294 295 295 296 296 297 297 298 298 296 296 298 298 299 299 300 300 301 301 302 302 300 300 302 302 303 303 304 304 305 305 306 306 304 304 306 306 307 307 308 308 309 309 310 310 308 308 310 310 311 311 312 312 313 313 314 314 312 312 314 314 315 315 316 316 317 317 318 318 316 316 318 318 319 319 320 320 321 321 322 322 320 320 323 323 321 321 324 324 325 325 326 326 324 324 326 326 327 327 328 328 329 329 330 330 328 328 331 331 329 329 332 332 333 333 334 334 332 332 335 335 333 333 336 336 337 337 338 338 339 339 340 340 341 341 336 336 342 342 337 337 343 343 339 339 341 341 344 344 345 345 346 346 347 347 344 344 346 346 348 348 349 349 350 350 351 351 352 352 353 353 348 348 354 354 349 349 355 355 351 351 353 353 356 356 357 357 358 358 359 359 360 360 361 361 356 356 362 362 357 357 363 363 364 364 365 365 366 366 359 359 361 361 367 367 363 363 365 365 368 368 369 369 370 370 368 368 370 370 371 371 372 372 373 373 374 374 372 372 374 374 375 375 376 376 377 377 378 378 379 379 376 376 378 378 380 380 381 381 382 382 380 380 382 382 383 383 384 384 385 385 386 386 387 387 384 384 386 386 388 388 389 389 390 390 388 388 390 390 391 391 392 392 393 393 394 394 392 392 394 394 395 395 396 396 397 397 398 398 396 396 398 398 399 399 400 400 401 401 402 402 400 400 402 402 403 403 404 404 405 405 406 406 404 404 406 406 407 407 408 408 409 409 410 410 408 408 410 410 411 411 412 412 413 413 414 414 412 412 414 414 415 415 416 416 417 417 418 418 416 416 418 418 419 419 420 420 421 421 422 422 420 420 422 422 423 423 424 424 420 420 425 425 426 426 427 427 428 428 429 429 420 420 424 424 430 430 429 429 431 431 432 432 433 433 434 434 435 435 430 430 436 436 437 437 429 429 430 430 437 437 430 430 435 435 438 438 439 439 440 440 438 438 440 440 432 432 438 438 434 434 426 426 438 438 432 432 434 434 441 441 437 437 442 442 443 443 444 444 438 438 443 443 428 428 421 421 443 443 421 421 420 420 443 443 426 426 428 428 443 443 438 438 426 426 445 445 437 437 441 441 446 446 447 447 443 443 446 446 429 429 437 437 446 446 420 420 429 429 446 446 443 443 420 420 448 448 449 449 450 450 448 448 450 450 446 446 451 451 452 452 453 453 451 451 453 453 454 454 451 451 455 455 452 452 456 456 457 457 448 448 456 456 448 448 446 446 456 456 446 446 437 437 458 458 455 455 451 451 458 458 445 445 459 459 458 458 459 459 455 455 458 458 437 437 445 445 460 460 437 437 458 458 460 460 461 461 456 456 460 460 456 456 437 437 462 462 463 463 464 464 464 464 463 463 465 465 463 463 466 466 467 467 468 468 469 469 470 470 463 463 471 471 466 466 471 471 472 472 473 473 474 474 475 475 476 476 472 472 477 477 478 478 471 471 479 479 472 472 472 472 479 479 477 477 480 480 481 481 482 482 482 482 481 481 475 475 476 476 481 481 469 469 475 475 481 481 476 476 479 479 483 483 484 484 485 485 486 486 481 481 470 470 486 486 462 462 462 462 486 486 463 463 469 469 486 486 470 470 481 481 486 486 469 469 479 479 487 487 483 483 488 488 489 489 486 486 471 471 489 489 479 479 463 463 489 489 471 471 486 486 489 489 463 463 490 490 491 491 492 492 492 492 491 491 489 489 493 493 494 494 495 495 495 495 494 494 496 496 497 497 494 494 493 493 498 498 499 499 491 491 491 491 499 499 489 489 489 489 499 499 479 479 497 497 500 500 494 494 487 487 500 500 501 501 501 501 500 500 497 497 479 479 500 500 487 487 479 479 502 502 500 500 503 503 502 502 499 499 499 499 502 502 479 479</p>
        </triangles>
      </mesh>
    </geometry>
  </library_geometries>
  <library_materials>
    <material id="383f68986b5f4195a52e4fe55873b746" name="pbrmaterial">
      <instance_effect url="#7d842d1953ac4ba98220669a677f5aaa"/>
    </material>
    <material id="7c67460e39414df09af7d8552675d58f" name="pbrmaterial">
      <instance_effect url="#9910f26eb7704cc9b1e310b7eff3cd17"/>
    </material>
  </library_materials>
  <library_visual_scenes>
    <visual_scene id="scene">
      <node id="node0" name="node0">
        <instance_geometry url="#6d386e29e2864a95bf541c5c89a39b61">
          <bind_material>
            <technique_common>
              <instance_material symbol="material0" target="#383f68986b5f4195a52e4fe55873b746"/>
            </technique_common>
          </bind_material>
        </instance_geometry>
      </node>
      <node id="node1" name="node1">
        <instance_geometry url="#8c2a0a1c594e47468a6f76be9389ff8b">
          <bind_material>
            <technique_common>
              <instance_material symbol="material1" target="#7c67460e39414df09af7d8552675d58f"/>
            </technique_common>
          </bind_material>
        </instance_geometry>
      </node>
    </visual_scene>
  </library_visual_scenes>
  <scene>
    <instance_visual_scene url="#scene"/>
  </scene>
</COLLADA>
